<svg xmlns="http://www.w3.org/2000/svg" xmlns:xlink="http://www.w3.org/1999/xlink" viewBox="0 0 264.42 208.78"><defs><style>.cls-1{fill:none;}.cls-2{clip-path:url(#clip-path);}.cls-3,.cls-5{fill:#00579b;}.cls-3{fill-rule:evenodd;}.cls-4{fill:#5282c3;}</style></defs><g id="Layer_2" data-name="Layer 2"><g id="Layer_1-2" data-name="Layer 1"><g class="cls-2"><path class="cls-3" d="M242.35,68.83l9.12-2.48L251,60l-9.37-1.09c-.23-1.32-.5-2.63-.83-3.94l8.16-4.75-2.12-6-9.35,1.38c-.55-1.21-1.16-2.41-1.81-3.58l6.66-6.71L238.72,30,230,33.74q-1.28-1.55-2.67-3l4.69-8.2-4.85-4.17-7.39,5.87c-.72-.51-1.46-1-2.2-1.48-.38-.25-.77-.49-1.17-.73l1.17-4.44,1.23-4.68-1.23-.59-4.52-2.18-4.72,6.35-.91,1.23c-1.26-.46-2.53-.88-3.82-1.25l0-9.45-6.28-1.18-3.48,8.78c-1.33-.12-2.67-.2-4-.23l-2.48-9.11-3.9.3L181,5.77l-1.09,9.37c-1.32.22-2.63.5-3.93.83l-4.76-8.16-1.83.64-4.2,1.47,1.38,9.35c-1.21.56-2.41,1.17-3.58,1.82l-2.84-2.83-3.87-3.83L151,18l3.76,8.68c-1,.85-2,1.74-3,2.67l-8.21-4.69-4.16,4.85,5.86,7.4c-.77,1.09-1.51,2.21-2.2,3.36l-9.13-2.41-2.77,5.76,7.58,5.63c-.46,1.26-.88,2.53-1.25,3.82l-9.45,0-1.18,6.28,8.78,3.48c-.12,1.33-.2,2.67-.23,4l-9.1,2.48.48,6.37,9.37,1.09c.23,1.32.5,2.63.83,3.93l-8.16,4.76,2.12,6,9.35-1.38c.56,1.21,1.16,2.4,1.81,3.57l-6.66,6.72,3.6,5.28,8.68-3.76c.86,1,1.75,2,2.67,3l-4.69,8.21,4.85,4.16,7.4-5.86q1.08.77,2.19,1.47l1.17.73-1.17,4.45-1.23,4.68,1.23.59,4.52,2.18,4.72-6.36.91-1.22c1.26.46,2.53.88,3.82,1.25l0,9.44,6.28,1.19,3-7.65.45-1.14c1.33.13,2.67.21,4,.23l2.48,9.11,6.37-.48,1.09-9.38c1.32-.22,2.63-.5,3.93-.82l4.76,8.16,1.83-.64,4.2-1.48-1.38-9.35c1.21-.56,2.4-1.17,3.57-1.81l2.85,2.82,3.87,3.84,5.28-3.61L223,109c1-.85,2-1.74,3-2.67l8.21,4.7,4.16-4.85-5.86-7.4c.77-1.09,1.51-2.21,2.2-3.36l9.13,2.4,2.77-5.76L239,86.45c.47-1.25.89-2.53,1.26-3.81l9.45,0,1.18-6.28-8.78-3.48C242.25,71.51,242.33,70.17,242.35,68.83ZM213.82,43.06a6.33,6.33,0,0,1,3.8-1.12,6.44,6.44,0,1,1-3.8,1.12ZM165.76,34a6.43,6.43,0,1,1-1.69,8.94A6.38,6.38,0,0,1,165.76,34Zm-1.82,58.69a6.44,6.44,0,1,1,1.69-8.94A6.46,6.46,0,0,1,163.94,92.68Zm5.44-23a11.76,11.76,0,0,1-9.24,4.48A11.56,11.56,0,0,1,158,74a11.77,11.77,0,0,1,2.18-23.33,12.45,12.45,0,0,1,2.18.2,11.77,11.77,0,0,1,7.06,18.85ZM195,98.79a11.76,11.76,0,0,1-11.56,9.59,11.58,11.58,0,0,1-2.18-.21,11.77,11.77,0,0,1,2.18-23.33,11.58,11.58,0,0,1,2.18.21A11.76,11.76,0,0,1,195,98.79ZM182.69,66.7a6.31,6.31,0,1,1,.77,4.37A6.29,6.29,0,0,1,182.69,66.7Zm9.43-16a11.78,11.78,0,0,1-9.38-13.75,12,12,0,0,1,.72-2.39,11.77,11.77,0,1,1,8.66,16.14ZM212,101.75a6.43,6.43,0,1,1-7.25-10.63A6.43,6.43,0,1,1,212,101.75Zm17.19-26.28a11.78,11.78,0,0,1-11.57,9.59,11.83,11.83,0,0,1-9.24-4.49,11.77,11.77,0,1,1,20.81-5.1Z" transform="translate(12.22 27.73)"/><path class="cls-4" d="M251.72,59.92a.74.74,0,0,0-.65-.67l-8.83-1c-.18-1-.39-2-.61-2.91l7.68-4.47a.74.74,0,0,0,.32-.88l-2.11-6a.74.74,0,0,0-.8-.49l-8.81,1.3c-.42-.88-.87-1.77-1.34-2.64l6.27-6.32a.75.75,0,0,0,.09-.94l-3.61-5.27a.72.72,0,0,0-.89-.26l-8.18,3.53c-.64-.76-1.3-1.5-2-2.21l4.42-7.73a.75.75,0,0,0-.16-.92l-4.85-4.16a.73.73,0,0,0-.93,0l-7,5.52c-.82-.57-1.65-1.11-2.49-1.63l2.27-8.59a.74.74,0,0,0-.4-.85l-5.75-2.77a.74.74,0,0,0-.91.22l-5.31,7.14c-.93-.33-1.88-.64-2.82-.92l0-8.9a.74.74,0,0,0-.59-.72l-6.28-1.18a.72.72,0,0,0-.82.45l-3.28,8.27c-1-.08-2-.14-3-.17l-2.34-8.58a.74.74,0,0,0-.77-.54L180.93,5a.74.74,0,0,0-.67.65l-1,8.83c-1,.18-2,.38-2.91.61l-4.48-7.68a.74.74,0,0,0-.88-.32l-6,2.11a.73.73,0,0,0-.48.8l1.3,8.81c-.89.42-1.78.87-2.65,1.34l-6.32-6.27a.73.73,0,0,0-.93-.09l-5.28,3.61a.72.72,0,0,0-.26.89l3.54,8.18c-.76.64-1.5,1.3-2.21,2l-7.73-4.42a.75.75,0,0,0-.93.16l-4.16,4.85a.73.73,0,0,0,0,.93l5.52,7c-.56.82-1.11,1.65-1.62,2.49l-8.6-2.27a.74.74,0,0,0-.85.4l-2.77,5.75a.74.74,0,0,0,.22.91l7.15,5.31c-.34.93-.65,1.88-.93,2.82l-8.9,0a.76.76,0,0,0-.72.6l-1.18,6.28a.72.72,0,0,0,.45.82l8.27,3.28c-.08,1-.14,2-.17,3l-8.58,2.34a.74.74,0,0,0-.54.76l.48,6.38a.74.74,0,0,0,.65.67l8.83,1c.18,1,.38,1.95.61,2.91l-7.68,4.48a.74.74,0,0,0-.32.88l2.11,6a.73.73,0,0,0,.8.48l8.81-1.3c.42.89.87,1.78,1.34,2.64L134.92,100a.73.73,0,0,0-.09.93l3.61,5.28a.73.73,0,0,0,.9.26l8.17-3.54c.64.76,1.3,1.5,2,2.21l-4.42,7.73a.76.76,0,0,0,.16.93l4.85,4.16a.73.73,0,0,0,.93,0l7-5.53c.82.57,1.66,1.12,2.49,1.63l-2.27,8.6a.74.74,0,0,0,.4.85l5.75,2.77a.74.74,0,0,0,.91-.22l5.31-7.15q1.4.51,2.82.93l0,8.9a.74.74,0,0,0,.59.72l6.28,1.18a.74.74,0,0,0,.82-.45l3.28-8.27c1,.08,2,.13,3,.16l2.34,8.59a.74.74,0,0,0,.71.54h.06l6.37-.49a.72.72,0,0,0,.67-.64l1-8.84c1-.17,1.94-.38,2.9-.61l4.48,7.69a.74.74,0,0,0,.88.32l6-2.11a.73.73,0,0,0,.48-.8l-1.3-8.82c.89-.41,1.77-.86,2.65-1.33l6.32,6.27a.73.73,0,0,0,.93.08l5.28-3.6a.74.74,0,0,0,.26-.9l-3.54-8.17c.75-.64,1.49-1.3,2.21-2l7.73,4.43a.76.76,0,0,0,.93-.16l4.16-4.85a.74.74,0,0,0,0-.94l-5.53-7c.57-.82,1.12-1.65,1.63-2.48l8.6,2.26a.71.71,0,0,0,.85-.39l2.77-5.76a.74.74,0,0,0-.22-.91l-7.15-5.3q.51-1.39.93-2.82l8.9,0a.74.74,0,0,0,.72-.6l1.18-6.28a.73.73,0,0,0-.45-.82l-8.27-3.27c.08-1,.14-2,.17-3l8.58-2.33a.74.74,0,0,0,.54-.77Zm-3.43.48,1.53.18-1.1,5.75-1.57.43Q247.71,63.72,248.29,60.4Zm-1.79,6.54-2.42.66c.46-2.52.9-5,1.35-7.53l2.25.26C247.28,62.63,246.88,64.84,246.5,66.94Zm-5.71,29.34-1.74-.46,1.32-7.45,1.74,1.29Zm1.87-6.22,1.3,1-1.11,5.79-1.46-.38Zm-4.2,5.6-2.09-.54a.42.42,0,0,0-.14-.09.32.32,0,0,0-.14,0l-.47-.12a52.9,52.9,0,0,0,3.57-7.43l.63.47Zm-5.8,4.51a.28.28,0,0,0-.15.2c-.48,2.69-1,5.36-1.44,8l-1.8-1,.52-2.83a.31.31,0,1,0-.6-.11l-.49,2.62-1.67-1a54.41,54.41,0,0,0,5.37-6.25Zm-12.23,9.71-9.07-1.69a.3.3,0,0,0-.36.25.31.31,0,0,0,.25.36l8.5,1.57c-.29.21-.57.43-.86.63l-9.63-1.75a.29.29,0,0,0-.35.24.3.3,0,0,0,.24.36l9,1.64-.58.38L207.53,110a.31.31,0,0,0-.36.25.3.3,0,0,0,.25.35l9.41,1.74-1,.61L205,111a.29.29,0,0,0-.35.24.31.31,0,0,0,.24.36L215,113.45l-.77.42-11.47-2.17a.31.31,0,0,0-.35.25.29.29,0,0,0,.24.35l10.73,2-.58.31-12.27-2.35a.3.3,0,0,0-.35.25.29.29,0,0,0,.24.35l11.47,2.2-.69.34-13.65-2.55a.32.32,0,0,0-.36.25.31.31,0,0,0,.25.36l12.77,2.38c-.27.12-.54.25-.82.36l-15.76-2.89a.3.3,0,0,0-.36.25.31.31,0,0,0,.24.36l14.83,2.72c-.47.18-.94.38-1.42.55-8.76-1.59-18.49-3.37-25.16-4.64l-15.45-3-12.23-2.37-.72-.65,14.42,2.65,4.44.81h.05a.29.29,0,0,0,.3-.25.3.3,0,0,0-.24-.35l-4.44-.82-15.35-2.81-.84-.82,16.88,3.16h.06a.3.3,0,0,0,.3-.25.31.31,0,0,0-.24-.36c-5.82-1.08-11.73-2.18-17.62-3.29H151c-.21-.22-.43-.44-.64-.67l15.49,2.81h0a.31.31,0,0,0,.05-.61l-16-2.91a.31.31,0,0,0-.19,0l-.7-.81,14.75,2.8h.06a.31.31,0,0,0,.3-.25.16.16,0,0,0,0-.07,44.23,44.23,0,0,0,67.49-25.5l0,0s0,0,0,0c.08-.32.17-.64.25-1,0,0,0,0,0,0v0c.08-.36.15-.72.23-1.09,0,0,0,0,0-.07a.24.24,0,0,0,0-.12c0-.21.1-.42.14-.64s.05-.32.07-.47.05,0,.05-.09a.26.26,0,0,0,0-.15c0-.27.1-.55.14-.83a.33.33,0,0,0,.06-.1.29.29,0,0,0,0-.16c0-.26.07-.51.11-.76a.6.6,0,0,0,.06-.11.31.31,0,0,0,0-.19c0-.24.06-.49.08-.74a.26.26,0,0,0,.08-.13.28.28,0,0,0,0-.2c0-.3.06-.6.08-.9a.24.24,0,0,0,.08-.13.32.32,0,0,0-.06-.23c0-.33.05-.66.07-1a.35.35,0,0,0,.08-.13.31.31,0,0,0-.06-.23c0-.25,0-.49,0-.73a.29.29,0,0,0,.09-.15.31.31,0,0,0-.08-.26c0-.18,0-.37,0-.56a.29.29,0,0,0,0-.41c0-.25,0-.5,0-.75a.29.29,0,0,0,.09-.15.31.31,0,0,0-.1-.29l0-.82a.29.29,0,0,0,.08-.14.3.3,0,0,0-.11-.3c0-.31-.05-.62-.08-.94a.25.25,0,0,0,.1-.16.3.3,0,0,0-.14-.31l-.06-.67a.32.32,0,0,0,.09-.16.31.31,0,0,0-.15-.32c0-.16,0-.33-.07-.49a.3.3,0,0,0,.1-.17.32.32,0,0,0-.17-.33c0-.24-.06-.48-.1-.72a.28.28,0,0,0,.09-.16.29.29,0,0,0-.18-.33c-.05-.26-.09-.51-.14-.77a.32.32,0,0,0,.1-.17.31.31,0,0,0-.2-.34c-.06-.31-.14-.62-.21-.93a.37.37,0,0,0,.11-.18.31.31,0,0,0-.24-.35c0-.22-.09-.44-.15-.65a.27.27,0,0,0,.1-.17.31.31,0,0,0-.24-.36h0c-.06-.19-.12-.39-.17-.58a.42.42,0,0,0,.11-.18.31.31,0,0,0-.25-.36h0c-.06-.19-.11-.39-.17-.59a.27.27,0,0,0,.1-.17A.31.31,0,0,0,231,54h0c-.08-.25-.17-.5-.25-.75a.28.28,0,0,0,.11-.18.31.31,0,0,0-.25-.36h0c-.12-.32-.25-.64-.37-.95a.41.41,0,0,0,.12-.19.31.31,0,0,0-.25-.36l-.1,0c-.09-.21-.17-.43-.26-.65a.27.27,0,0,0,.11-.18.31.31,0,0,0-.24-.36l-.13,0-.21-.48a.35.35,0,0,0,.12-.19A.31.31,0,0,0,229,49l-.15,0c-.11-.24-.22-.48-.34-.72a.26.26,0,0,0,.12-.18.3.3,0,0,0-.24-.36l-.18,0-.38-.75a.26.26,0,0,0,.12-.19.3.3,0,0,0-.24-.35l-.21,0c-.18-.34-.38-.67-.58-1a.33.33,0,0,0,.14-.19.31.31,0,0,0-.25-.36l-.23,0-.45-.69a.25.25,0,0,0,.14-.19.29.29,0,0,0-.24-.36l-.29,0c-.12-.18-.22-.36-.34-.54l-.09-.11a.3.3,0,0,0,.14-.19.31.31,0,0,0-.25-.36l-.32-.06-.42-.58a.33.33,0,0,0,.14-.19.31.31,0,0,0-.24-.36L224,41c-.19-.25-.39-.49-.58-.73,0,0,.08,0,.1-.09a.31.31,0,0,0,.25.24l11,2,.36.67-9.94-1.86a.31.31,0,0,0-.36.24.31.31,0,0,0,.25.36l10.41,2,.25.5-9.46-1.81a.3.3,0,0,0-.36.24.31.31,0,0,0,.24.36l9.93,1.9.23.48-9-1.69a.31.31,0,0,0-.12.6l9.41,1.77.25.54-2.19-.41-6.35-1.19a.31.31,0,1,0-.11.61l6.35,1.18,2.6.49.33.81-8-1.46a.3.3,0,0,0-.35.25.3.3,0,0,0,.24.35l8.41,1.53.27.68-7.69-1.44a.31.31,0,0,0-.36.25.3.3,0,0,0,.25.35l8,1.51.2.56L232,49.56l-.85-.17a.31.31,0,1,0-.12.6l7.69,1.4c0,.14.1.27.14.41l-7.15-1.36a.31.31,0,1,0-.11.61l7.46,1.41.15.52-5.58-1.06-1.32-.25a.33.33,0,0,0-.36.25.32.32,0,0,0,.25.36l1.32.24,5.89,1.12c.07.26.15.51.22.76L233,53.19a.31.31,0,1,0-.11.6l6.91,1.26c.06.23.11.45.17.67l-6.46-1.2a.31.31,0,1,0-.11.6l6.73,1.26c0,.17.08.33.11.5l-6.33-1.21a.29.29,0,0,0-.36.24.3.3,0,0,0,.24.36l6.58,1.26c0,.14.05.29.08.44l-6.2-1.18a.31.31,0,0,0-.36.25.3.3,0,0,0,.24.35l6.45,1.23c0,.17.07.34.1.52L234.57,58a.3.3,0,0,0-.36.24.31.31,0,0,0,.25.36l6.32,1.21c0,.24.07.48.11.72l-6-1.1a.3.3,0,0,0-.35.25.3.3,0,0,0,.24.35l6.2,1.14.09.66-5.93-1.11a.31.31,0,0,0-.12.6l6.11,1.14c0,.17,0,.34.05.51l-5.87-1.06a.3.3,0,0,0-.1.6l6,1.09c0,.14,0,.29,0,.43l-5.83-1.11a.3.3,0,0,0-.36.24.31.31,0,0,0,.25.36l6,1.14c0,.17,0,.34,0,.51L235.55,64a.29.29,0,0,0-.36.24.31.31,0,0,0,.24.36l5.94,1.14c0,.23,0,.46,0,.69l-5.76-1.06a.3.3,0,0,0-.35.25.3.3,0,0,0,.24.35l5.9,1.09c0,.21,0,.43,0,.64l-5.74-1.07a.3.3,0,0,0-.35.25.3.3,0,0,0,.24.36l5.84,1.08v.49l-5.72-1a.31.31,0,0,0-.36.25.3.3,0,0,0,.25.35l5.82,1.06c0,.14,0,.28,0,.43l-5.72-1.09a.3.3,0,0,0-.36.24.31.31,0,0,0,.25.36l5.79,1.1,0,.5-5.69-1.09a.29.29,0,0,0-.36.24.31.31,0,0,0,.24.36l5.77,1.11c0,.22,0,.44,0,.67l-5.7-1a.31.31,0,0,0-.36.25.3.3,0,0,0,.25.35l5.75,1.06c0,.21,0,.42-.08.63l-5.67-1.05a.31.31,0,1,0-.11.6L241,74.15l-.06.5-5.66-1.09a.31.31,0,0,0-.36.25.3.3,0,0,0,.24.35l5.7,1.09c0,.14,0,.28-.07.42l-5.65-1.08a.31.31,0,1,0-.11.6l5.66,1.08c0,.17-.05.33-.08.49l-.12,0L235,75.68a.29.29,0,0,0-.35.24.29.29,0,0,0,.24.36l5.51,1.06.14,0a2,2,0,0,0,0,.24l-.09.41-5.63-1a.3.3,0,0,0-.35.25.31.31,0,0,0,.24.36l5.61,1c0,.21-.08.41-.13.62l-5.6-1a.3.3,0,0,0-.35.24.31.31,0,0,0,.24.36l5.58,1c0,.16-.08.32-.12.48l-5.58-1.07a.31.31,0,1,0-.12.6l5.55,1.07-.1.4-5.59-1.07a.32.32,0,0,0-.36.25.32.32,0,0,0,.24.36l5.55,1c0,.16-.09.32-.13.49l-5.61-1.09a.31.31,0,0,0-.36.25.32.32,0,0,0,.25.36L239.19,83c-.07.22-.13.43-.2.64l-5.64-1a.3.3,0,0,0-.36.24.31.31,0,0,0,.25.36l5.57,1c-.06.19-.13.38-.19.57L233,83.69a.3.3,0,0,0-.36.24.31.31,0,0,0,.24.36l5.58,1.07c-.08.22-.15.43-.23.64l-5.73-1a.31.31,0,1,0-.11.6l5.63,1c-.07.2-.16.4-.24.6L232,86.11a.31.31,0,0,0-.36.25.3.3,0,0,0,.24.35l5.67,1.06c-.07.15-.13.31-.19.46l-5.83-1.12a.31.31,0,0,0-.36.25.3.3,0,0,0,.25.35l5.7,1.1-.18.39L231,88.08a.3.3,0,0,0-.36.24.31.31,0,0,0,.25.36l5.74,1.09c-.07.16-.14.31-.22.46l-5.95-1.14a.3.3,0,0,0-.35.24.29.29,0,0,0,.24.36l5.8,1.12c-.1.21-.22.42-.32.63l-6.07-1.11a.29.29,0,0,0-.35.24.31.31,0,0,0,.24.36L235.54,92c-.09.17-.18.36-.28.53l-6.12-1.17a.3.3,0,0,0-.36.24A.31.31,0,0,0,229,92L235,93.11l-.36.63-6.25-1.15a.3.3,0,0,0-.35.25.3.3,0,0,0,.24.36l6,1.1c-.11.19-.22.39-.34.58L227.6,93.7a.31.31,0,0,0-.12.6l6.11,1.14c-.08.14-.18.29-.27.43l-6.41-1.22a.3.3,0,0,0-.36.24.31.31,0,0,0,.25.36L233,96.43l-.25.38-6.52-1.24a.32.32,0,0,0-.36.25.3.3,0,0,0,.24.35l6.26,1.19-.3.44-6.62-1.26a.31.31,0,0,0-.36.25.3.3,0,0,0,.25.35l6.35,1.21c-.15.22-.31.42-.46.63l-6.8-1.24a.31.31,0,1,0-.11.6l6.49,1.19-.36.49L224.79,99l-1.25-.24a.31.31,0,0,0-.36.25.32.32,0,0,0,.24.36l1.26.23,5.32,1c-.17.22-.34.42-.52.63l-7.09-1.29a.3.3,0,0,0-.35.25.3.3,0,0,0,.24.35l6.76,1.24-.46.54-7.23-1.35a.31.31,0,1,0-.11.6l6.86,1.28-.36.4-7.34-1.4a.29.29,0,0,0-.35.24.29.29,0,0,0,.24.36l7,1.33c-.11.13-.23.25-.35.37l-7.52-1.42a.3.3,0,0,0-.35.24.29.29,0,0,0,.24.36l7.11,1.35-.4.41-2.27-.43-5.43-1a.32.32,0,0,0-.36.25.31.31,0,0,0,.24.36l5.44,1,1.85.35-.67.64-8-1.46a.31.31,0,1,0-.11.6l7.55,1.38-.58.5-8.19-1.54a.32.32,0,0,0-.36.25.31.31,0,0,0,.25.36l7.71,1.45-.42.36-8.4-1.61a.31.31,0,0,0-.12.61l7.9,1.51-.45.36-8.7-1.64a.31.31,0,1,0-.11.6l8.18,1.54Zm-31.49,10.54c-1,0-2,0-3-.1l-13-2.38c-1.18-.37-2.34-.78-3.49-1.24l9.94,1.85,10,1.85ZM144.16,26.14l0-.23,1.59.91-1.47,7.76L143,32.89C143.37,30.66,143.77,28.4,144.16,26.14Zm.66,9.07q.78-4,1.53-8.07l1.5.85L147,32.33a.3.3,0,0,0,.24.36h.06a.31.31,0,0,0,.3-.25l.84-4.13,1.28.73-.08.41a.3.3,0,0,0,.25.35h.06a.32.32,0,0,0,.3-.25l0-.2.48.27a55.28,55.28,0,0,0-5.37,6.25Zm13-9.72a.26.26,0,0,0,.16-.11c.43-.31.85-.62,1.29-.92a.25.25,0,0,0,.15-.1l1.15-.76a.31.31,0,0,0,.19-.13c.46-.29.93-.57,1.4-.84a.38.38,0,0,0,.15-.09l1.33-.76a.19.19,0,0,0,.1-.05c.47-.26.95-.51,1.43-.75a.33.33,0,0,0,.1-.06c.63-.31,1.26-.62,1.9-.91h0a52.14,52.14,0,0,1,21.63-4.69,53,53,0,0,1,9.8.92,52.31,52.31,0,0,1,17,6.39l-17.43-3.24L185.25,17a.31.31,0,0,0-.36.24.31.31,0,0,0,.25.36L198.05,20l17.48,3.24h.06a.31.31,0,0,0,.3-.25.31.31,0,0,0,0-.21c.8.48,1.59,1,2.36,1.5L205.52,22c-6.77-1.26-13.64-2.51-20.55-3.77l-3.42-.63a.31.31,0,0,0-.36.25.3.3,0,0,0,.25.35l3.42.63,20.55,3.77L218.62,25h.06a.3.3,0,0,0,.26-.19q1,.69,1.92,1.41c-7.56-1.38-15.94-2.91-22-4.07l-15.34-3-5-1a.29.29,0,0,0-.36.24.3.3,0,0,0,.24.36l5,1,15.35,3c6.31,1.21,15.13,2.82,22.92,4.24h.06s.06,0,.09,0c.3.24.58.48.87.73L192.81,22,176.2,18.83a.31.31,0,0,0-.11.61L192.7,22.6q15.42,2.94,30.92,5.88l.67.61-23.68-4.64-26.55-4.93a.31.31,0,0,0-.36.25.3.3,0,0,0,.25.35l21,3.9a43.88,43.88,0,0,0-5.72-.41l-17.43-3.25a.31.31,0,1,0-.11.6l14.59,2.72c-.75,0-1.5.11-2.24.19l-1.9-.35q-6.23-1.12-12.45-2.28a.3.3,0,0,0-.35.25.31.31,0,0,0,.24.36L182,24.13h0c-.58.09-1.16.19-1.73.31-4.13-.81-8.27-1.61-12.36-2.39a.3.3,0,0,0-.36.24.31.31,0,0,0,.24.36c3.63.69,7.29,1.4,10.94,2.11l-1,.25L166.4,22.85a.3.3,0,0,0-.36.24.31.31,0,0,0,.24.36l10.17,1.93c-.35.1-.71.2-1.06.32l-10.65-1.94a.31.31,0,1,0-.11.61l9.57,1.73c-.35.13-.7.25-1,.39l-9.88-1.85a.31.31,0,0,0-.36.24.31.31,0,0,0,.25.36l8.91,1.67c-.35.14-.7.3-1,.45l-9.32-1.72a.3.3,0,0,0-.35.25.32.32,0,0,0,.24.36l8.44,1.55-1,.5-8.8-1.63a.31.31,0,0,0-.12.61l8,1.48c-.24.12-.47.25-.7.38l-8.38-1.6a.31.31,0,0,0-.36.24.31.31,0,0,0,.25.36l7.66,1.46L166,30l-8.09-1.53a.31.31,0,0,0-.12.6l7.43,1.41-.71.46-7.6-1.38-.25-.05a.31.31,0,0,0-.36.24.31.31,0,0,0,.24.36l7.24,1.32-.59.41-7.57-1.42a.32.32,0,0,0-.36.25.31.31,0,0,0,.25.36l7,1.31-.71.54-7.35-1.37a.32.32,0,0,0-.36.25.32.32,0,0,0,.24.36l6.83,1.26-.48.39-7.15-1.36a.33.33,0,0,0-.36.25.32.32,0,0,0,.25.36l6.66,1.26-.45.39-7-1.32a.31.31,0,0,0-.36.24.31.31,0,0,0,.24.36l6.54,1.23-.46.43-6.87-1.27a.29.29,0,0,0-.36.24.31.31,0,0,0,.25.36l6.43,1.19-.52.52-6.72-1.26a.31.31,0,0,0-.36.25.3.3,0,0,0,.24.35L157,37.14c-.18.19-.37.38-.55.58l-6.59-1.23a.31.31,0,1,0-.11.6L156,38.25l-.35.39-6.49-1.22a.31.31,0,0,0-.36.24A.31.31,0,0,0,149,38l6.14,1.16c-.12.13-.23.27-.34.41l-6.41-1.2a.31.31,0,1,0-.11.6l6.07,1.14-.45.57-6.27-1.24a.31.31,0,0,0-.36.24.3.3,0,0,0,.24.36l6,1.18-.32.43L147,40.5a.3.3,0,0,0-.35.24.29.29,0,0,0,.24.36l6,1.12-.42.61-6.18-1.16a.31.31,0,0,0-.11.6L152,43.38l-.26.4-6.12-1.15a.3.3,0,0,0-.36.24.31.31,0,0,0,.25.36l5.88,1.11-.27.43-6.08-1.15a.31.31,0,0,0-.36.25.32.32,0,0,0,.25.36l5.85,1.1c-.1.15-.18.32-.28.48l-6-1.13a.32.32,0,0,0-.36.25.31.31,0,0,0,.25.36l5.83,1.08c-.1.19-.21.37-.31.55l-6-1.13a.31.31,0,0,0-.36.25.31.31,0,0,0,.24.36l5.81,1.09c-.1.21-.21.42-.32.63l-6-1.13a.31.31,0,0,0-.36.25.3.3,0,0,0,.25.35l5.79,1.1c-.07.13-.13.27-.19.41L142.86,48a.31.31,0,0,0-.36.24.31.31,0,0,0,.25.36l5.79,1.09c-.07.15-.14.29-.2.44L142.42,49a.32.32,0,0,0-.36.25.3.3,0,0,0,.24.35l5.79,1.09c-.07.17-.14.33-.2.5L142,50.09a.31.31,0,0,0-.36.25.3.3,0,0,0,.25.35l5.79,1.08-.21.56-5.9-1.11a.31.31,0,0,0-.36.25.3.3,0,0,0,.25.35l5.8,1.1c-.08.21-.16.42-.23.64l-5.9-1.11a.29.29,0,0,0-.35.24.29.29,0,0,0,.24.36l5.81,1.1c-.05.14-.08.28-.13.42l-5.9-1.11a.3.3,0,0,0-.36.24.31.31,0,0,0,.24.36l5.84,1.1c-.05.15-.09.3-.14.45l-5.91-1.11a.31.31,0,1,0-.11.61l5.86,1.1-.15.58-5.91-1.17a.31.31,0,0,0-.36.24.3.3,0,0,0,.24.36l5.87,1.16-.12.51-5.93-1.12a.32.32,0,0,0-.36.25.32.32,0,0,0,.24.36l5.92,1.11c0,.22-.09.44-.14.66l-6-1.13a.31.31,0,0,0-.36.25.3.3,0,0,0,.25.35l6,1.13c0,.15,0,.29-.07.43l-6-1.13a.32.32,0,0,0-.36.25.31.31,0,0,0,.25.36l6,1.13c0,.16,0,.31-.07.47l-6-1.13a.31.31,0,1,0-.11.6l6,1.13c0,.2-.05.4-.07.6l-6.05-1.19a.29.29,0,0,0-.36.24.3.3,0,0,0,.24.36l6.1,1.2-.06.52-6.1-1.15a.31.31,0,0,0-.36.24.31.31,0,0,0,.25.36l6.15,1.16c0,.23,0,.45,0,.68l-6.16-1.16a.3.3,0,0,0-.36.24.31.31,0,0,0,.24.36l6.24,1.18c0,.14,0,.29,0,.44l-6.21-1.17a.31.31,0,0,0-.12.6l6.3,1.19c0,.27,0,.55,0,.83l-6.29-1.19a.3.3,0,0,0-.35.25.3.3,0,0,0,.24.35L144.62,68v.45l-6.34-1.2a.31.31,0,0,0-.35.25.31.31,0,0,0,.24.36l6.47,1.22c0,.16,0,.32,0,.48l-6.41-1.2a.3.3,0,0,0-.36.24.31.31,0,0,0,.24.36l6.55,1.23c0,.21,0,.42,0,.62l-6.48-1.27a.3.3,0,0,0-.36.24.31.31,0,0,0,.24.36l6.66,1.31c0,.18,0,.35,0,.53l-6.58-1.24a.31.31,0,0,0-.36.25.3.3,0,0,0,.25.35l6.75,1.27c0,.24.05.47.08.7l-6.68-1.25a.3.3,0,0,0-.36.24.31.31,0,0,0,.25.36L145.05,74l.06.46-6.77-1.27a.3.3,0,0,0-.35.24.29.29,0,0,0,.24.36l7,1.32c0,.29.11.57.16.86l-6.91-1.3a.31.31,0,0,0-.36.24.31.31,0,0,0,.25.36l7.14,1.35c0,.15.06.31.09.46l-7-1.32a.31.31,0,0,0-.36.25.3.3,0,0,0,.24.35l7.27,1.37.12.51-7.13-1.35a.32.32,0,0,0-.36.25.31.31,0,0,0,.25.36l7.33,1.38H146l.18.68-7.28-1.44a.31.31,0,0,0-.36.25.31.31,0,0,0,.24.36l7.6,1.49.15.52-7.42-1.39a.31.31,0,0,0-.36.24.31.31,0,0,0,.24.36l7.74,1.45c.08.25.17.49.25.73l-7.6-1.42a.31.31,0,0,0-.12.6l7.95,1.49c.06.16.11.33.17.49l-7.75-1.46a.31.31,0,1,0-.11.6l8.13,1.53.36.89-8-1.49a.31.31,0,0,0-.36.24.31.31,0,0,0,.24.36l8.39,1.57c.07.17.16.33.23.5l-8.19-1.54a.29.29,0,0,0-.35.24.29.29,0,0,0,.24.36l8.62,1.63c.08.17.15.35.24.52l-8.39-1.58a.31.31,0,0,0-.36.24.31.31,0,0,0,.25.36l8.85,1.67.36.7-3.87-.71L141.14,87a.31.31,0,0,0-.12.6l4.8.94,4.35.79.33.58-8.92-1.68a.31.31,0,0,0-.11.61l9.44,1.77c.15.25.3.5.46.75l-9.23-1.71a.31.31,0,1,0-.11.6l9.8,1.82c.12.19.23.37.36.55l-.25,0-9.31-1.77a.31.31,0,0,0-.36.25.3.3,0,0,0,.25.35l9.3,1.77.87.16c.12.18.26.37.39.55L143.17,92a.31.31,0,0,0-.11.6l10.54,2,.54.69-9.28-1.68-1-.2a.3.3,0,0,0-.36.24.31.31,0,0,0,.24.36l11,2c.18.21.36.43.55.64l-10.78-2a.31.31,0,1,0-.11.61l11.54,2.16.71.78L145.3,96.06a.31.31,0,1,0-.11.6l12.17,2.25.66.66-7.15-1.37L146,97.27a.33.33,0,0,0-.36.25.31.31,0,0,0,.25.36l4.84.92,8.08,1.55h0c.33.31.67.62,1,.92l-12.8-2.36a.32.32,0,0,0-.36.24A51.7,51.7,0,0,1,143,93.32a.21.21,0,0,0,0-.06q-.67-1.23-1.29-2.49a.22.22,0,0,0-.06-.13c-.17-.35-.32-.7-.48-1.06a.54.54,0,0,0-.05-.11c-.2-.42-.39-.85-.57-1.28a.39.39,0,0,0-.06-.15c-.15-.36-.3-.73-.44-1.1a.29.29,0,0,0-.07-.16c-.15-.38-.29-.76-.43-1.14a.28.28,0,0,0-.06-.18c-.11-.32-.23-.65-.34-1a.31.31,0,0,0-.07-.21c-.1-.3-.2-.6-.29-.91a.29.29,0,0,0-.07-.22c-.13-.43-.26-.86-.38-1.29h0a.28.28,0,0,0-.08-.26c-.08-.28-.14-.57-.21-.85h0a.29.29,0,0,0-.07-.25c-.09-.36-.18-.73-.26-1.1,0,0,0,0,0,0a.31.31,0,0,0-.08-.26c-.07-.32-.13-.64-.19-1,0,0,0,0,0,0a.31.31,0,0,0-.06-.25c-.07-.32-.13-.63-.19-1a.05.05,0,0,0,0,0,.31.31,0,0,0-.07-.26c-.05-.28-.09-.56-.13-.84,0,0,0,0,0,0a.32.32,0,0,0-.06-.25l-.12-.8s0,0,0-.05a.29.29,0,0,0-.07-.25c-.05-.39-.09-.79-.13-1.18,0,0,0,0,0-.06a.3.3,0,0,0-.07-.24c0-.26-.05-.52-.07-.79,0,0,0,0,0-.06a.29.29,0,0,0-.07-.25l-.06-1s0,0,0-.08a.34.34,0,0,0-.06-.24c0-.3,0-.61,0-.91,0,0,0,0,.05-.08a.34.34,0,0,0-.06-.24c0-.27,0-.55,0-.82,0,0,.05-.06.06-.11a.31.31,0,0,0-.06-.23c0-.26,0-.52,0-.78a.19.19,0,0,0,0-.1.27.27,0,0,0,0-.23c0-.24,0-.48,0-.72a.24.24,0,0,0,.07-.12.29.29,0,0,0-.06-.24c0-.36,0-.72.06-1.09a.21.21,0,0,0,.07-.11.25.25,0,0,0,0-.22c0-.24,0-.47,0-.7a.32.32,0,0,0,.08-.14.34.34,0,0,0-.06-.24c0-.3.07-.6.1-.91a.29.29,0,0,0,.08-.13.36.36,0,0,0,0-.21l.09-.84a.29.29,0,0,0,.09-.15.28.28,0,0,0,0-.23c0-.24.08-.49.11-.73a.27.27,0,0,0,.1-.16.27.27,0,0,0,0-.2l.12-.72a.39.39,0,0,0,.1-.16.33.33,0,0,0,0-.2c0-.22.06-.43.1-.64v0a.29.29,0,0,0,.08-.39l.18-.87a.25.25,0,0,0,.11-.18.25.25,0,0,0,0-.19c.06-.27.11-.53.18-.8a.26.26,0,0,0,.12-.18.25.25,0,0,0,0-.19c.06-.25.13-.49.19-.73a.28.28,0,0,0,.12-.19.28.28,0,0,0,0-.18c.06-.22.11-.46.18-.68a.38.38,0,0,0,.14-.19.27.27,0,0,0,0-.18c.06-.22.13-.44.2-.66a.3.3,0,0,0,.13-.18.32.32,0,0,0,0-.17c.09-.29.17-.58.27-.87a.28.28,0,0,0,.12-.36c.09-.26.19-.51.28-.77a.33.33,0,0,0,.14-.19.29.29,0,0,0,0-.16l.27-.75a.28.28,0,0,0,.16-.19.26.26,0,0,0,0-.15c.1-.23.19-.46.29-.7a.31.31,0,0,0,.14-.19.29.29,0,0,0,0-.13c.09-.22.17-.45.27-.66a.32.32,0,0,0,.16-.2.33.33,0,0,0,0-.14l.4-.87a.29.29,0,0,0,.15-.19.56.56,0,0,0,0-.13c.12-.26.24-.52.37-.78a.31.31,0,0,0,.16-.21.2.2,0,0,0,0-.11l.39-.76a.3.3,0,0,0,.16-.2.34.34,0,0,0,0-.1l.38-.7a.31.31,0,0,0,.17-.2v-.1l.38-.67a.27.27,0,0,0,.16-.29l.53-.89a.25.25,0,0,0,.17-.2s0,0,0-.07l.5-.79a.32.32,0,0,0,.18-.21v-.07c.17-.27.35-.52.52-.78a.29.29,0,0,0,.18-.21v0c.16-.24.32-.49.49-.73a.26.26,0,0,0,.19-.2s0,0,0-.06l.51-.68a.28.28,0,0,0,.18-.2v0c.23-.3.45-.6.68-.89a.3.3,0,0,0,.2-.22v0l.67-.82a.28.28,0,0,0,.2-.21v0l.67-.77a.3.3,0,0,0,.2-.21h0l.64-.72a.31.31,0,0,0,.21-.22h0c.21-.23.44-.45.66-.68a.34.34,0,0,0,.18-.19l.89-.91a.29.29,0,0,0,.21-.19c.26-.26.53-.51.81-.76a.29.29,0,0,0,.18-.18l1-.86a.27.27,0,0,0,.16-.14l.86-.75a.31.31,0,0,0,.21-.16l.9-.72a.27.27,0,0,0,.17-.13C157,26.1,157.42,25.79,157.83,25.49Zm68.57,5.65.6.62-9-1.65-8.9-1.63c-.63-.32-1.26-.63-1.9-.92Zm-1.56,18.08-.38.58,0-.1a5.63,5.63,0,0,0,.1-.91C224.68,48.93,224.75,49.08,224.84,49.22ZM222,90.46,216.69,99a37.72,37.72,0,0,1-3.27,2.64l.3-.46A6.92,6.92,0,0,0,215,99.28l5-7.74c1.83-2.83,3.65-5.66,5.45-8.46a12.54,12.54,0,0,0,3.45-4.25l-.27,1Q225.29,85.14,222,90.46Zm4.9-5.83a40.15,40.15,0,0,1-6.67,10.78q1.35-2.19,2.71-4.37Zm-7.23-22.18a11,11,0,1,1-10.88,17.41c-.1-.13-.2-.25-.3-.39s-.24-.38-.35-.58-.16-.25-.23-.38-.2-.4-.29-.61-.13-.27-.19-.41-.16-.41-.23-.62l-.15-.47c-.06-.19-.11-.39-.16-.59s-.08-.37-.11-.55-.07-.36-.09-.55,0-.43-.06-.65,0-.32,0-.48,0-.52,0-.79,0-.25,0-.37a11,11,0,0,1,.15-1.15v0c.07-.37.16-.72.26-1.07l.12-.35c.07-.24.16-.47.25-.7l.17-.39c.1-.21.2-.42.31-.63l.2-.36c.16-.28.34-.55.52-.82l.24-.31c.16-.2.31-.4.48-.59l.3-.32.48-.48.31-.28q.33-.29.69-.54l.17-.13a10.1,10.1,0,0,1,1-.59,11,11,0,0,1,7.43-1.22Zm10.38,6.34-.49.79c-.14-.42-.29-.84-.47-1.25l.91-1.44C230,67.52,230.05,68.15,230.05,68.79ZM230,71.4c0-.1,0-.21-.05-.31L230,71Zm-1.45-4.23q-.3-.51-.63-1l1.77-2.77c.07.54.14,1.08.19,1.62Zm-20.14,35h0a5.7,5.7,0,1,1,3.21-1A5.69,5.69,0,0,1,208.38,102.13ZM211,83.87l-3.52,5.46a6.86,6.86,0,0,0-1.67.44l4.12-6.66C210.25,83.38,210.61,83.63,211,83.87Zm3.32,8.52-.14-.18,4-6.44a10.73,10.73,0,0,0,1.39-.14l-4.76,7.69A8.56,8.56,0,0,0,214.3,92.39Zm-.89-1a6.9,6.9,0,0,0-.88-.74l3.07-5a11.47,11.47,0,0,0,1.3.14ZM211.59,90a6.19,6.19,0,0,0-.8-.34l2.89-4.55c.26.09.51.16.78.23Zm-1.92-.64a6.44,6.44,0,0,0-.87-.1l3.14-4.87c.22.11.45.22.69.32Zm5.88,6.93a7.41,7.41,0,0,0-.24-1.69l5.78-9.33a12.35,12.35,0,0,0,2.07-.81L219,91C217.85,92.73,216.7,94.53,215.55,96.32Zm-32.08,11.33a11.06,11.06,0,0,1-2.06-.2,11,11,0,0,1-8.79-12.88,11.06,11.06,0,0,1,3.78-6.44h0c.3-.25.61-.47.93-.69l.15-.09a10.28,10.28,0,0,1,.91-.53l.07,0a11.4,11.4,0,0,1,3.41-1.08h0c.37,0,.75-.08,1.12-.1h.15c.32,0,.65,0,1,0h.23a11,11,0,0,1,1.15.15,10.54,10.54,0,0,1,1.14.28l.31.11c.27.09.53.18.79.29l.33.15c.24.11.49.23.72.36l.32.18c.23.14.45.28.66.43a3.55,3.55,0,0,1,.31.23,6.86,6.86,0,0,1,.59.48l.31.27c.18.17.35.35.52.52l.3.32c.16.19.31.39.46.59l.25.33c.2.29.39.6.57.91a.35.35,0,0,0,0,.08l0,0a11,11,0,0,1-9.69,16.3ZM160.32,93.06h0a5.69,5.69,0,0,1-4.71-2.48,5.71,5.71,0,0,1,1.49-7.92,5.7,5.7,0,0,1,8.82,5.76,5.7,5.7,0,0,1-5.6,4.64Zm-2.23-19.77a11,11,0,1,1,10.5-17.94h0c.06.07.11.15.16.22.19.24.38.48.54.73s.17.27.25.41.24.39.35.59.14.28.2.42.2.43.29.65l.15.4c.08.23.16.47.23.72l.1.37c.06.26.11.51.15.77l.06.36c0,.27.06.55.07.82,0,.11,0,.23,0,.35a8,8,0,0,1,0,.85c0,.11,0,.21,0,.32a11.5,11.5,0,0,1-.15,1.16c-.07.37-.17.74-.27,1.09a3.38,3.38,0,0,1-.11.34q-.12.36-.27.72l-.15.37c-.11.22-.22.44-.34.66s-.11.22-.17.33c-.18.3-.37.6-.58.89l-.14.18c-.17.23-.35.46-.54.67l-.27.28c-.17.18-.34.36-.53.53l-.26.24c-.25.21-.51.42-.78.62l-.08,0a9.14,9.14,0,0,1-1,.62,10.94,10.94,0,0,1-5.35,1.4h0A11,11,0,0,1,158.09,73.29Zm16-37.2a5.71,5.71,0,0,1-4.7,8.92h0a5.7,5.7,0,1,1,4.7-8.92Zm-7.43,15.7L170,46.43a7.24,7.24,0,0,0,2.1-.5l-4.17,6.73A12.25,12.25,0,0,0,166.66,51.79Zm-1.88-7L161.43,50c-.26,0-.53,0-.8-.05l3.61-5.69A6.51,6.51,0,0,0,164.78,44.79Zm.9.64a6.32,6.32,0,0,0,.86.44l-2.87,4.58c-.34-.1-.69-.18-1-.25Zm1.93.82a6.41,6.41,0,0,0,1.08.18l-3,4.82c-.32-.15-.63-.3-1-.43Zm-4.15-2.9,0,0L159.31,50c-.35,0-.7.06-1,.11,1.52-2.44,3.09-5,4.7-7.6A7.32,7.32,0,0,0,163.46,43.35Zm30.83-15.26a11,11,0,0,1,7.09,19.49l0,0a8,8,0,0,1-1,.7l-.1.07c-.31.2-.63.39-1,.56h0a11.2,11.2,0,0,1-4.56,1.2h-.13c-.33,0-.66,0-1,0h-.22a11.31,11.31,0,0,1-1.15-.15,10.56,10.56,0,0,1-1.14-.29l-.3-.1c-.27-.09-.54-.18-.81-.29l-.31-.15c-.25-.11-.49-.23-.73-.36l-.32-.19a6.77,6.77,0,0,1-.66-.43l-.31-.22c-.21-.15-.4-.32-.59-.48l-.31-.28c-.18-.16-.35-.34-.52-.52s-.2-.21-.29-.32a6.51,6.51,0,0,1-.46-.58c-.09-.11-.18-.22-.26-.34a9.8,9.8,0,0,1-.55-.87l-.07-.12,0,0a11,11,0,0,1,9.68-16.3Zm23.15,14.58a5.69,5.69,0,0,1,4.71,2.49,5.62,5.62,0,0,1,.89,4.27,5.68,5.68,0,0,1-5.59,4.64h0a5.7,5.7,0,1,1,0-11.4ZM215.14,61c-.39.08-.77.18-1.15.29,1.17-1.87,2.37-3.81,3.6-5.8a8.33,8.33,0,0,0,1.12-.11c-1.08,1.7-2.16,3.41-3.25,5.11Zm-8.38,18.42.06.11c-1-.72-2.41-1.65-3.81-2.59a14.39,14.39,0,0,0,.7-1.42l1.83.91.09.29.12.44c.09.25.19.51.29.76s.1.26.16.39.23.49.36.73ZM195.88,95.18a10,10,0,0,0-.26-1.43l2.07-3.24c.49-.2,1-.41,1.46-.63Zm-4-7.85-.36-.31-.67-.52a3.88,3.88,0,0,0-.33-.23l-.12-.1c0-.58-.07-1.17-.11-1.78h0c.52,0,1,0,1.53-.09.26,1.29.51,2.57.72,3.68l-.14-.12C192.2,87.68,192,87.51,191.83,87.33Zm-2.43-1.72c-.28-.15-.57-.28-.86-.41-.1,0-.19-.1-.3-.14L188,85c0-.26,0-.51.05-.76.51.07,1,.12,1.54.14,0,.49.06,1,.09,1.43h0Zm-2.37-1c-.38-.11-.76-.2-1.15-.28l.12-.6a12.16,12.16,0,0,0,1.47.37c0,.22,0,.43,0,.65l-.11,0Zm-5.14-.41-.53.07-.3,0L182.22,82c.41.27.83.51,1.26.74l-.48,1.4-.61,0Zm-2.52.58c-.21.07-.42.16-.63.24l-.34.14-.58.28-.36.19-.27.14c.94-1.35,2.21-3.24,3.4-5,.36.31.74.6,1.12.88-.48,1-1,2-1.43,2.88l-.57.17ZM170,80.72c1.38-.85,4.35-2.82,6.91-4.54.16.22.32.43.49.64s.16.29.25.43c-2.31,2-5,4.35-6.21,5.35C171,82,170.47,81.37,170,80.72Zm-.54-10,.3-.36c.2-.24.39-.48.56-.73a3.62,3.62,0,0,0,.22-.32l3.82-.25c0,.43.09.86.17,1.28-2.26.46-4.27.85-5.8,1.13l.07-.06C169.05,71.22,169.26,71,169.48,70.75ZM171,56.22c0-.06-.06-.12-.1-.18,2,1.38,4,2.75,5.75,4-.23.36-.44.74-.64,1.12l-3.78-2c-.07-.23-.13-.47-.21-.7s-.11-.31-.17-.46-.18-.46-.28-.69-.17-.34-.25-.52S171.08,56.42,171,56.22Zm10.88-16.11a11.27,11.27,0,0,0,.14,1.15l-2.69,4.28c-.48.21-1,.43-1.42.67Zm4.08,8.29.36.32c.21.18.44.34.66.51l.34.24.19.14q.09,1.88.15,3.75c-.43,0-.85.09-1.28.17-.29-1.75-.63-3.68-1-5.69l0,0C185.56,48.05,185.74,48.23,185.93,48.4Zm3.28,2.13.31.15.25.09c-.07.86-.15,1.71-.23,2.57l-.67,0-.62,0c0-1.12-.09-2.24-.15-3.35l.27.15C188.64,50.27,188.92,50.4,189.21,50.53Zm1.52.58a11.46,11.46,0,0,0,1.19.28c-.16.72-.33,1.44-.49,2.15a10.93,10.93,0,0,0-1.28-.17c.08-.8.15-1.59.22-2.39l.06,0Zm7.64-.17c.24-.08.46-.17.69-.26l.27-.11.65-.31.29-.15.44-.25c-1.34,2-2.69,3.92-4,5.74-.36-.23-.73-.45-1.12-.65.66-1.25,1.32-2.5,2-3.75l.53-.17Zm9.39,4.11c-2.34,1.58-4.69,3.08-6.93,4.48l-.1-.09c-.22-.32-.45-.63-.7-.93,2-1.68,4.17-3.47,6.29-5.35A22.4,22.4,0,0,1,207.76,55.05Zm-1.54,13.13c-.07.15-.13.3-.19.46a.59.59,0,0,0,0,.08l-1.1-.08a14.18,14.18,0,0,0-.17-1.46l2.05-.09-.24.46C206.42,67.76,206.32,68,206.22,68.18Zm-.59,1.6c-.11.37-.2.74-.28,1.12l-.46-.1a13.26,13.26,0,0,0,0-1.54l.85.06a.14.14,0,0,0,0,.07C205.71,69.52,205.67,69.65,205.63,69.78ZM193.31,88.92c-.23-1.28-.56-3-.9-4.69.53-.08,1.05-.18,1.56-.31.79,2.34,1.52,4.54,1.86,5.68a17.28,17.28,0,0,1-1.7.49c0-.08-.11-.15-.17-.23s-.11-.2-.18-.3a2.77,2.77,0,0,0-.22-.29Zm-8-4.66a12.65,12.65,0,0,0-1.62-.14c.13-.37.26-.74.38-1.12a13.74,13.74,0,0,0,1.38.56C185.37,83.8,185.32,84,185.27,84.26Zm-17.7-11.77.25-.19c2.12-.38,5.19-1,6.83-1.33.1.43.2.84.33,1.26-2.93,1-6.32,2.13-7.84,2.59-.18-.56-.35-1.13-.49-1.7l.17-.12Q167.21,72.76,167.57,72.49Zm25-21a14.91,14.91,0,0,0,1.63.13L193.28,54c-.41-.13-.83-.24-1.25-.33C192.2,52.94,192.36,52.21,192.52,51.49Zm2.29.12.56,0,.54-.06.48-.07.39-.07-1.73,3.31c-.39-.18-.79-.34-1.19-.49C194.18,53.34,194.49,52.47,194.81,51.61Zm14.44,6c-2.47,1.23-4.94,2.39-7.16,3.4-.26-.36-.54-.7-.84-1,2.21-1.38,4.52-2.86,6.83-4.42A19.87,19.87,0,0,1,209.25,57.63Zm-4.09,14.64c0,.12,0,.25,0,.38s0,.3,0,.45l-.55-.19c0-.16.08-.32.11-.48.06-.34.11-.68.15-1l.42.09C205.23,71.76,205.18,72,205.16,72.27ZM167.34,75.4c1.55-.47,4.93-1.6,7.85-2.6.15.4.31.8.5,1.19-2.77,1.38-6,3-7.44,3.6A21,21,0,0,1,167.34,75.4ZM172.13,66c.11-.36.19-.72.27-1.09l2.16.42a11.78,11.78,0,0,0-.18,1.31L172,66.38l0,0Zm2.55-1.26-2.19-.44c0-.26.08-.52.1-.78,0-.1,0-.2,0-.3s0-.39,0-.59l2.38.88Q174.83,64.07,174.68,64.7Zm.53-1.81-2.59-1v-.08c0-.31,0-.62-.07-.94,0-.12,0-.23-.06-.36s-.06-.39-.1-.59c1.11.57,2.21,1.15,3.31,1.73A11.41,11.41,0,0,0,175.21,62.89Zm-4,5.31c.11-.21.21-.43.31-.65s.13-.3.19-.45l.06-.12,2.56.23c0,.42,0,.85,0,1.27L171,68.7l0-.06Zm-2.71,9.94c1.49-.67,4.68-2.23,7.43-3.59.2.38.42.75.65,1.11-2.56,1.72-5.54,3.7-6.9,4.54C169.27,79.53,168.88,78.84,168.52,78.14ZM196,91.1l-.8,1.26c-.12-.32-.24-.62-.38-.93C195.22,91.33,195.62,91.22,196,91.1Zm.4-1.69c-.35-1.16-1.07-3.35-1.85-5.67a13.47,13.47,0,0,0,1.5-.55c1.05,2.14,2.05,4.22,2.54,5.31A21,21,0,0,1,196.41,89.41Zm8-15.9.69.23,0,.36c0,.23,0,.47.05.69s.08.46.12.69l0,.22L204,75C204.14,74.51,204.3,74,204.44,73.51Zm-2-12c2.2-1,4.64-2.15,7.08-3.36a23.39,23.39,0,0,1,.9,2.19c-2.49.86-5,1.66-7.27,2.36C202.94,62.32,202.71,61.93,202.45,61.54Zm13.89-6.09-3.93,6.34c-.17-.66-.37-1.3-.59-1.93l3-4.83A7.21,7.21,0,0,0,216.34,55.45Zm-5,3.11c-.16-.38-.33-.76-.51-1.13L213,54a7.64,7.64,0,0,0,.83.57Zm-1.09-2.28c-.16-.3-.33-.59-.51-.88l1.88-2.89a6.25,6.25,0,0,0,.56.69Zm.74-4.83-1.9,2.93c-.16-.25-.33-.49-.5-.73l2-3.18A7.34,7.34,0,0,0,211,51.45Zm-29.9,4.15c-1.34-2.13-2.87-4.53-4.49-6.93a19.87,19.87,0,0,1,2.06-1.17c1.29,2.58,2.5,5.17,3.54,7.45A12.37,12.37,0,0,0,181.07,55.6ZM182.77,44l-.3.48c-.49.13-1,.28-1.45.45l1.32-2.11A10.44,10.44,0,0,0,182.77,44Zm0,10.72c-1-2.28-2.25-4.86-3.54-7.45a23.45,23.45,0,0,1,2.19-.91c1,2.74,1.8,5.46,2.54,7.87C183.52,54.32,183.12,54.49,182.73,54.67Zm1.78-.68c-.74-2.41-1.6-5.13-2.55-7.87.55-.17,1.11-.34,1.67-.48l.17.24a2.82,2.82,0,0,0,.18.29,3.15,3.15,0,0,0,.22.29c.11.16.22.31.34.46.46,2.37.87,4.68,1.21,6.74C185.33,53.75,184.92,53.86,184.51,54Zm-8.45-5c1.62,2.4,3.15,4.81,4.49,6.94-.35.24-.69.51-1,.78-1.61-1.93-3.43-4.11-5.36-6.28C174.78,49.92,175.4,49.44,176.06,49Zm-2.34,1.85c1.92,2.17,3.75,4.35,5.35,6.29-.32.29-.62.59-.91.91-1.85-1.72-3.95-3.64-6.13-5.54A22.09,22.09,0,0,1,173.72,50.84Zm15.15,3.94a12.6,12.6,0,0,1,2.44.23,13,13,0,0,1,8.38,5.48,12.53,12.53,0,0,1,1.17,2.12l.71,2.1a12.94,12.94,0,0,1,.18,5.51c-1.42-4-2.83-7.93-4.22-11.85a.55.55,0,0,0-.7-.34.56.56,0,0,0-.34.71q2.35,6.63,4.76,13.36a12.33,12.33,0,0,1-.76,1.79L197.36,65l-2.93-8.29a.54.54,0,0,0-.7-.33.55.55,0,0,0-.34.7l2.93,8.29,3.44,9.76a13.06,13.06,0,0,1-1,1.32l-1.88-5.18a.55.55,0,1,0-1,.37l2.05,5.7c-.26.25-.53.49-.82.72l-1.67-4.9a.55.55,0,1,0-1,.35l1.78,5.23a9.13,9.13,0,0,1-.84.53l-1.59-4.74a.56.56,0,0,0-.7-.35.55.55,0,0,0-.34.7l1.63,4.9a13,13,0,0,1-1.35.52l-1.65-4.61a.55.55,0,1,0-1,.37l1.63,4.54c-.44.1-.89.18-1.34.24L188.87,76a.56.56,0,0,0-.71-.34.56.56,0,0,0-.33.71l1.59,4.54-.53,0c-.31,0-.62,0-.94,0l-2.19-6.07a.54.54,0,0,0-.71-.33.55.55,0,0,0-.33.7l2,5.55-.28,0q-.44-.09-.87-.21l-6.23-18.27a.55.55,0,1,0-1,.35l6,17.51a12.1,12.1,0,0,1-1.17-.5c-1.11-3.3-2.21-6.58-3.3-9.79-.52-1.53-1.1-3.22-1.74-5a.55.55,0,1,0-1,.37c.63,1.81,1.22,3.49,1.74,5q1.44,4.26,2.9,8.63c-.33-.22-.65-.45-1-.7-.38-1-.81-2.07-1.27-3.18-.65-1.58-1.33-3.22-1.84-4.76a.55.55,0,0,0-1,.34c.53,1.59,1.21,3.24,1.87,4.85.12.27.23.53.34.8q-.36-.44-.69-.9a13.09,13.09,0,0,1,10.8-20.47Zm-23,20.92-3.17,4.92a7.16,7.16,0,0,0-1.21-.31l3.87-6.26Q165.6,74.88,165.88,75.7Zm.48,1.28c.12.29.24.57.37.85l-2.32,3.65a5.84,5.84,0,0,0-.68-.41Zm.93,2c.15.28.3.56.46.83l-1.87,3a6.56,6.56,0,0,0-.62-.67Zm-.72,4.86,1.82-3c.22.35.46.7.7,1l-2,3.15A6.75,6.75,0,0,0,166.57,83.86Zm32.58,4.36c-.5-1.1-1.49-3.16-2.53-5.28a14.7,14.7,0,0,0,1.4-.78c1.33,2,2.57,3.88,3.19,4.89A21,21,0,0,1,199.15,88.22Zm2.58-1.49c-.63-1-1.86-2.9-3.19-4.9a13.41,13.41,0,0,0,1.27-1c1.61,1.83,3.07,3.53,3.8,4.43C203,85.79,202.38,86.28,201.73,86.73Zm2.34-1.86c-.77-.94-2.26-2.66-3.8-4.43.39-.37.77-.75,1.12-1.15,1.82,1.6,3.51,3.11,4.37,3.92C205.22,83.79,204.66,84.35,204.07,84.87Zm3.84-19.44c-.16.21-.33.42-.49.64l-.26.39-2.57.11a13.74,13.74,0,0,0-.37-1.4c1.48-.25,3.07-.53,4.69-.84-.19.18-.37.38-.55.58S208.06,65.25,207.91,65.43Zm2.31-2.2-.37.28h0c-2,.4-4,.75-5.82,1.07-.17-.45-.35-.88-.56-1.31,2.25-.69,4.71-1.48,7.18-2.33.17.55.34,1.11.48,1.67-.08,0-.14.1-.21.14ZM210.4,47a7,7,0,0,0-.1,1.83l-2.44,3.84c-.2-.24-.4-.49-.61-.73l3.21-5.21Zm-10.78,11c-.29-.32-.59-.63-.91-.92,1.73-1.85,3.66-4,5.53-6.13.59.54,1.14,1.1,1.67,1.69C203.78,54.59,201.65,56.38,199.62,58.06Zm-1.37-1.32c-.33-.28-.67-.54-1-.79,1.53-2.15,3.13-4.44,4.7-6.82a20.35,20.35,0,0,1,1.86,1.47C201.92,52.76,200,54.88,198.25,56.74Zm6.05-25.09.12-.2c.45.18.88.37,1.32.56l-.58.94A13.91,13.91,0,0,0,204.3,31.65ZM182,36.81c-.08.42-.14.85-.18,1.27l-6.05,9.33c-.6.39-1.19.8-1.75,1.24l8.29-13.1A12.87,12.87,0,0,0,182,36.81ZM171.61,53c2.19,1.9,4.29,3.83,6.14,5.54-.28.33-.54.67-.79,1-2.05-1.46-4.39-3.1-6.82-4.7C170.6,54.17,171.09,53.55,171.61,53Zm-7.74,21.42-3.6,5.83a7,7,0,0,0-1.45.17l3.51-5.61A12.85,12.85,0,0,0,163.87,74.37Zm3.49,14.32a7.15,7.15,0,0,0,.09-2.06l2.35-3.74c.24.31.5.62.76.93q-1.65,2.67-3.31,5.34C167.29,89,167.33,88.85,167.36,88.69Zm4.51-5.63c1.24-1,3.84-3.28,6.12-5.28.25.37.52.73.8,1.08-2,2.26-4.2,4.77-5.25,5.88C173,84.21,172.4,83.65,171.87,83.06Zm7.31-3.72c.3.35.63.68,1,1-1.63,2.44-3.42,5.09-4.28,6.29-.65-.46-1.27-.95-1.87-1.47C175.05,84,177.23,81.58,179.18,79.34Zm-4.43,8.3a12.08,12.08,0,0,0-1.44,1.67c.39-.62.78-1.24,1.18-1.86A2.48,2.48,0,0,0,174.75,87.64Zm21,11.29a12.74,12.74,0,0,0,.2-1.73l5.12-8.33a22.74,22.74,0,0,0,2.27-1.49c-2.57,4.12-5.18,8.26-7.79,12.42C195.61,99.52,195.69,99.23,195.74,98.93Zm10.43-16.17c-.87-.83-2.58-2.35-4.4-4a13.38,13.38,0,0,0,.92-1.31c2,1.36,4,2.69,4.95,3.39C207.18,81.54,206.69,82.16,206.17,82.76Zm11.27-22-.86,0q1.88-3,3.76-5.91a7.48,7.48,0,0,0,1.14-.63l.22-.16Zm1.4-19.44.08-.13.16.18Zm-1.23-.14h-.17a7.17,7.17,0,0,0-1,.08l1-1.57.74.71Zm-2.79.51a7.34,7.34,0,0,0-1.42.73c-.18.12-.35.26-.52.39l.69-1.11,2.16-3.51c.28.24.57.46.85.71Zm-2.19-.57-6.15,10c-.36-.38-.73-.75-1.11-1.1,2.71-4.38,5.55-9,8.35-13.41.39.29.78.58,1.16.89Zm-8.1,8.14c-.25-.22-.51-.43-.77-.63q4.23-6.75,8.32-13.22l.75.53C210.05,40.4,207.23,44.94,204.53,49.29Zm1.82-6.83q.14-.49.24-1c0-.27.07-.53.11-.8L210,35.56l.63-1c.18.1.35.21.52.32Q208.77,38.61,206.35,42.46ZM209.06,35l-2.28,3.53a11.9,11.9,0,0,0-.19-1.59c.73-1.14,1.45-2.29,2.17-3.44.31.17.62.32.92.49Zm-2.83.45a12.29,12.29,0,0,0-.49-1.32l1-1.64,1,.5C207.27,33.78,206.75,34.6,206.23,35.42Zm-20.32-5.55c.23-.36.46-.72.68-1.08.26,0,.52-.05.78-.06A13.32,13.32,0,0,0,185.91,29.87Zm-15,21.66a24.22,24.22,0,0,0-1.8,2.22c-.11-.12-.22-.24-.34-.35,1.74-2.8,3.57-5.76,5.44-8.79a7.18,7.18,0,0,0,2.09-3.39l7.47-12.11,1.45-.2C181,35.65,176.33,43,170.9,51.53Zm5.63-12.79a7.34,7.34,0,0,0-.48-2.07q2.17-3.51,4.32-6.91c.65-.16,1.3-.31,2-.43Zm-1.07-3.22-.16-.26a4.71,4.71,0,0,0-.44-.56l2.62-4.15c.44-.14.88-.26,1.33-.38C177.7,31.93,176.59,33.72,175.46,35.52Zm-1.39-1.63a7,7,0,0,0-.69-.53l1.1-1.71c.44-.18.88-.36,1.33-.52Zm-1.65-1.07-.29-.13.54-.26Zm-10.2,6.64a6.91,6.91,0,0,0,.26,1.74l-5.7,9.2a12.67,12.67,0,0,0-2.39,1L159,44c.72-1.16,1.44-2.31,2.15-3.47C161.47,40.16,161.85,39.81,162.22,39.46ZM149.31,68.68l.12.2-.12.21Zm.8,1.21a10.8,10.8,0,0,0,.81,1l-1.41,2.24c-.06-.67-.12-1.34-.15-2Zm1.6,1.78c.28.25.56.49.86.72L150,76.52c-.11-.55-.2-1.11-.28-1.67ZM153.47,73a12.66,12.66,0,0,0,1.14.63l-3.87,6c-.15-.52-.28-1-.4-1.57Zm2.16,1.08c.24.1.49.18.74.26l-4.9,7.7c-.11-.33-.22-.67-.32-1Zm1.86.55.33.08.48.07-6,9.54c-.14-.32-.26-.65-.39-1Zm2,.27c.21,0,.42,0,.63,0h0c.27,0,.53,0,.79,0q-1.87,3-3.77,6a7.08,7.08,0,0,0-3.9,5.11,3.11,3.11,0,0,0,0,.32c-.13-.26-.25-.53-.37-.79Zm-.72,19.44-.23.37-.46-.56A5.91,5.91,0,0,0,158.8,94.36Zm1.2.16.32,0h0a6.56,6.56,0,0,0,.9-.07L160,96.39c-.23-.25-.47-.51-.69-.77Zm2.77-.43a7.64,7.64,0,0,0,1.59-.8,8.11,8.11,0,0,0,.65-.51q-1.66,2.67-3.32,5.34l-.9-.9Zm8.57-9.43c.26.29.54.56.82.83-2.79,4.33-5.58,8.67-8.31,13l-.67,1-.67-.61Q166.94,91.79,171.34,84.66ZM164.78,99c2.7-4.23,5.45-8.51,8.21-12.79l.62.54q-4.46,7-8.88,14c-.24-.18-.46-.38-.69-.56Zm7.83-8.62a12.57,12.57,0,0,0-1.44,3.88.13.13,0,0,1,0,.06L166.38,102l-.77-.56ZM171,96.77a12.11,12.11,0,0,0,.19,1.9l-2.88,4.58c-.33-.2-.65-.42-1-.63Zm.53,3.43a11.77,11.77,0,0,0,.55,1.46l-1.74,2.78c-.37-.2-.73-.41-1.09-.62Zm1.13,2.61c.16.28.33.56.51.83l-1.08,1.7-.78-.38Zm1.22,1.77c.2.24.41.46.62.68l-.58.91-.83-.35Zm1.43,1.46c.25.21.5.42.76.61l-.18.29c-.31-.11-.63-.22-.93-.34Zm1.67,1.23.22.13-.25-.08Zm7.68,1.79h0Zm1.45-.23a12.37,12.37,0,0,0,1.71-.48l-.59,1-1.36-.1Zm3.52-1.32a12.37,12.37,0,0,0,2-1.39c-.68,1.1-1.37,2.19-2.06,3.28l-1.09,0Zm16.58-22.57a23.49,23.49,0,0,0,2.5-3l.4.39L203.76,91a7.11,7.11,0,0,0-2.33,3.76q-4.53,7.32-9.09,14.6l-1.52.07C196,101.22,201.13,93,206.16,84.94ZM201.24,97.1a7.07,7.07,0,0,0,.29,1.44l-4,6.25c-.91,1.44-1.81,2.86-2.72,4.28l-1.1.13Q197.49,103.17,201.24,97.1Zm-2.78,8.28,3.58-5.6a6,6,0,0,0,.42.69.94.94,0,0,0,.09.12l-5.11,8.06c-.4.07-.79.15-1.19.21Zm4.83-3.91a9.28,9.28,0,0,0,.82.71l-3.53,5.72c-.54.16-1.08.3-1.63.42Zm1.74,1.3a7.86,7.86,0,0,0,.94.41l-2.35,3.75c-.48.17-1,.34-1.45.49Zm2.06.7a7,7,0,0,0,1.29.13h.07l-1.06,1.7c-.67.33-1.35.64-2,.94Zm2.77,0a7,7,0,0,0,1.41-.45l-.17.26c-.58.37-1.18.72-1.78,1.05Zm19.53-41.65-2.21,3.46c-.16-.18-.32-.36-.49-.53.83-1.32,1.67-2.63,2.51-3.95C229.27,61.1,229.33,61.44,229.39,61.78Zm-3.51,2.15a8,8,0,0,0-.63-.53l3.29-5.3c.1.38.22.76.31,1.14Zm-1.53-1.17c-.43-.27-.88-.51-1.34-.74l4.45-7.18c.24.61.45,1.23.65,1.85ZM222,61.59c-.33-.13-.67-.24-1-.34l5.51-8.79c.17.36.33.73.48,1.1Zm-2.15-.6a10.56,10.56,0,0,0-1.11-.15l6.72-10.52c.17.31.32.64.48,1Q222.91,56.08,219.83,61Zm-9-31.57,7,1.29,9.82,1.81c.29.31.56.63.84.95L212.79,30.6C212.15,30.19,211.5,29.8,210.84,29.42ZM160.67,102l.06,0c.33.28.68.54,1,.81-3.8-.73-7.59-1.47-11.34-2.18l-2.49-.47a.28.28,0,0,0-.31.14c-.21-.26-.43-.52-.63-.79L160.47,102A.28.28,0,0,0,160.67,102Zm-12.09-.43c-.2-.24-.39-.49-.59-.74l2.3.44,11.85,2.28h.06a.32.32,0,0,0,.25-.17c.41.31.84.61,1.26.9l-14.86-2.82A.31.31,0,0,0,148.58,101.54ZM223,39.63c-.27-.33-.55-.65-.83-1l11.76,2.18c.18.29.34.58.51.87l-10.48-1.9a.3.3,0,0,0-.32.13.3.3,0,0,0-.24-.24Zm-.78-1.58h-.13a.21.21,0,0,0-.11,0l-.46-.09-.79-.83L233,39.36c.16.26.34.52.5.78ZM220,36.34c-.23-.23-.47-.44-.7-.66l12.86,2.4.38.57Zm-1.53-1.44c-.25-.23-.51-.44-.76-.66l13.56,2.6.38.52Zm-1.71-1.47-.66-.51,14.24,2.69.4.5ZM215,32.09c-.3-.22-.61-.42-.91-.63l15.12,2.76c.19.21.35.44.53.66Zm-10.57-5.67a45.16,45.16,0,0,0-5.56-1.67l1.64.31,24.64,4.82.52.5C218.74,29.08,211.63,27.76,204.41,26.42Zm-8.09,93.47-19.57-3.75-13.58-2.47c-.42-.24-.86-.47-1.27-.72l14.17,2.7,21.36,4.06Zm-20.13-4.84-15.71-3c-.32-.2-.65-.41-1-.63l6.26,1.22,15.44,3c5.28,1,12.44,2.32,19.11,3.54l-1.22.25Zm16.08,5.25-12.7-2.36-12.64-2.34c-.68-.32-1.35-.65-2-1l11.73,2.13,17.69,3.39C193.64,120.2,193,120.25,192.27,120.3Zm9.52-1.49c-7-1.29-14.82-2.71-20.46-3.79l-15.43-3-7.61-1.48c-.35-.24-.68-.49-1-.75l10,1.84c6.92,1.27,13.8,2.52,20.58,3.78l13,2.38,2.73.5C203,118.49,202.39,118.65,201.79,118.81Zm3.1-.88-3.92-.72-13-2.38c-6.78-1.26-13.66-2.52-20.58-3.78l-11.2-2c-.4-.32-.79-.64-1.17-1l11.18,2.16c5.21,1,10.4,2,15.45,3,6.4,1.22,15.61,2.91,24.09,4.45Zm36.17-64a54.29,54.29,0,0,0-2.75-7.77l1.61-.24L239.54,48a.31.31,0,0,0,.24.36h.06a.31.31,0,0,0,.3-.25l.42-2.26,1.72-.26c-.41,2.27-.81,4.56-1.22,6.86a.31.31,0,0,0,.25.36h.05a.31.31,0,0,0,.3-.25c.42-2.37.84-4.73,1.26-7.06l2.33-.34L244,52.22Zm6.09-3.55.36-2,.53,1.51Zm-.05-3.21-.64,3.62-1.76,1,1.19-6.77.44-.06Zm-11.45-6.24A54.66,54.66,0,0,0,231,34.12l1.64-.71L232.33,35a.31.31,0,0,0,.25.36h.06a.32.32,0,0,0,.3-.25l.38-2,2.36-1-1.09,6.2a.31.31,0,0,0,.25.35h0a.31.31,0,0,0,.31-.25l1.15-6.59,2.06-.89c-.55,3-1.11,5.94-1.66,8.91Zm4.51-4.55.46-2.32.75,1.1Zm0-3-.74,3.82-1.87,1.89c.46-2.5.93-5,1.39-7.49Zm-10.39-8.23c.2-1,.4-2.06.6-3.08l.78.66Zm-2.55-5.79.66.56q-.79,4.07-1.59,8.3a.3.3,0,0,0,.24.36h.06a.31.31,0,0,0,.3-.25q.76-4.05,1.53-7.95l1.42,1.23q-.51,2.57-1,5.2l-1.7,3a54.38,54.38,0,0,0-6.23-5.39l2.07-1.65L222.52,25a.3.3,0,0,0,.25.35h0a.32.32,0,0,0,.31-.25l.53-2.94,1.93-1.52-1.15,5.93a.3.3,0,0,0,.24.36h.06a.31.31,0,0,0,.3-.25L226.33,20Zm-10.5-1.1c.32-1.78.63-3.47.93-5.1l.37.18Zm-1.95-6.49-.43,2.13q-.51,2.54-1,5.15a.29.29,0,0,0,.24.36h.06a.31.31,0,0,0,.3-.25c.34-1.74.69-3.46,1-5.15l.4-2,1.74.84c-.43,2.33-.89,4.83-1.36,7.46a.32.32,0,0,0,.25.36h.11l-.12.46a53.49,53.49,0,0,0-7.43-3.57l.9-1.21-.16.83a.31.31,0,0,0,.24.36h.06a.31.31,0,0,0,.3-.24l.41-2.09,2-2.74q-.54,2.73-1.08,5.55a.3.3,0,0,0,.24.36h.06a.31.31,0,0,0,.3-.25q.67-3.48,1.33-6.82l.19-.26ZM199.33,7,198,14a.31.31,0,0,0,.24.36h.06a.32.32,0,0,0,.3-.25l1.36-7,1.46.27q-.67,3.44-1.38,7a.31.31,0,0,0,.25.36h.06a.31.31,0,0,0,.3-.25q.69-3.57,1.37-7l.89.16v3.8l-.68,3.43a.29.29,0,0,0,.24.36h.06a.31.31,0,0,0,.3-.25l.09-.49v1.24c-1.32-.35-2.65-.68-4-.93s-2.71-.45-4.08-.6l1.51-3.83c-.19,1.08-.38,2.16-.58,3.24A.31.31,0,0,0,196,14h0a.29.29,0,0,0,.3-.25c.38-2.07.75-4.15,1.13-6.23l.32-.82Zm-17.68-.51,1-.07c-.42,2.26-.85,4.68-1.31,7.23a.31.31,0,0,0,.25.36h.05a.29.29,0,0,0,.3-.25c.47-2.61.92-5.08,1.35-7.39l2-.15-1.29,7.15a.3.3,0,0,0,.24.35h.06a.32.32,0,0,0,.3-.25l1.32-7.3,1-.08.39,1.43-1,5.69a.32.32,0,0,0,.25.36h.06a.31.31,0,0,0,.3-.25l.76-4.43.94,3.46-.15.81a.3.3,0,0,0,.24.36h.06a.3.3,0,0,0,.16-.05l.11.41h-.11a54.3,54.3,0,0,0-8.1.62Zm-9.23,4.89c-.27,1.5-.55,3-.82,4.5a.3.3,0,0,0,.24.35h.06a.31.31,0,0,0,.3-.25l.69-3.8,1.27,2.18-.13.78a.3.3,0,0,0,.25.35h.05a.32.32,0,0,0,.3-.26v-.06l.3.52a54.49,54.49,0,0,0-7.76,2.74l-.32-2.16q.64-3.35,1.29-6.59l2.14-.75c-.45,2.51-.92,5.15-1.41,7.9a.3.3,0,0,0,.25.35h.06a.32.32,0,0,0,.3-.25c.5-2.83,1-5.55,1.44-8.13ZM167.48,9.9c-.29,1.49-.59,3-.89,4.53l-.59-4ZM152.39,18l1.87-1.28c-.1.52-.19,1-.29,1.55-.21,1.11-.42,2.24-.63,3.37L152.2,19Zm1.39,4.65c.26-1.43.53-2.86.79-4.27.14-.72.27-1.43.41-2.15l1.2-.82.94.92-1.37,7.8a.3.3,0,0,0,.25.35h.05a.3.3,0,0,0,.3-.26l1.3-7.37,1.59,1.58q-.33,1.86-.69,3.72a.3.3,0,0,0,.25.35h.06a.31.31,0,0,0,.3-.25c.2-1.1.41-2.2.61-3.3l1.3,1.28-.08.39a.31.31,0,0,0,.24.36h.06a.32.32,0,0,0,.3-.24l.33.32a53.78,53.78,0,0,0-6.8,4.66Zm-10.17,3.13-.05.29q-.56,3.12-1.09,6.21l-1.87-2.36.15-.81Zm-9.29,13,1.63.43q-.57,3.11-1.15,6.26l-1.58-1.18,1.06-5.43Zm2.22.58,1.68.45c-.43,2.4-.86,4.82-1.3,7.23l-1.57-1.16Q136,42.58,136.54,39.34ZM133.23,41l-.55,2.85-.6-.45Zm4.24,6.41q.67-3.75,1.34-7.49l2.2.58-.08.45a.31.31,0,0,0,.25.35h.06a.32.32,0,0,0,.3-.26l.07-.39.53.14a52.79,52.79,0,0,0-3.57,7.42Zm-7.85,12.3-1.29-.52,1-5.34h1.38l-.9,4.62Zm.82-1.14.92-4.73h1.91L132,60.68,130.2,60Zm-1.8-4.72h.09l-1,5.11-.06,0Zm4,7,1.29-7.06h1.79l-.06.35a.31.31,0,0,0,.25.36h.05a.3.3,0,0,0,.3-.26l.09-.46h.42q-.54,2-.93,4c-.26,1.36-.44,2.72-.6,4.08Zm2.27,6.9A54.58,54.58,0,0,0,135.5,76l-.66-.08.14-.72a.3.3,0,0,0-.24-.36.32.32,0,0,0-.36.24l-.15.77-1.79-.2,1.34-7.57Zm-3.71,1,2-.53-1.29,7.32L130,75.39C130.36,73.19,130.77,71,131.17,68.82Zm-1.82,6.5-1.79-.21,1-5.57,2-.54C130.13,71.1,129.74,73.2,129.35,75.32Zm-1.47-5.6L127.31,73l-.24-3.06Zm8.82,12.07a54,54,0,0,0,2.75,7.78l-.45.06-.11,0a.3.3,0,0,0-.28.1l-2,.3.82-4.45a.31.31,0,1,0-.61-.11L136,90.08l-1.71.25q.76-4,1.52-8Zm-3.09,8.64-1.65.24.47-2.43c.28-1.48.57-3,.87-4.46l1.77-1C134.58,85.3,134.1,87.87,133.61,90.43ZM130,85.68l-.13.71-.18-.52Zm.28,1.89.41-2.29,1.87-1.09c-.26,1.31-.51,2.63-.76,3.94l-.47,2.42Zm9.51,9.54c-.41,2.23-.83,4.45-1.24,6.66L137,101.44l.34-1.83Zm-3.26,3.28-.06.34-.11-.17Zm2.75,4.45-.24-.35q.77-4.06,1.51-8.16l1.53-1.53a55.3,55.3,0,0,0,4.65,6.81l-.38.17a.25.25,0,0,0-.17-.11.31.31,0,0,0-.37.24l0,.11-2.06.89.67-3.58a.3.3,0,0,0-.24-.36.32.32,0,0,0-.36.25l-.75,4-1.75.75c.45-2.41.91-4.82,1.37-7.25a.31.31,0,0,0-.6-.12c-.49,2.57-1,5.12-1.45,7.67Zm10.42,2.79c-.44,2.32-.88,4.62-1.33,6.92l-1.72-1.48,0-.17Zm1.18,8.5q.75-3.87,1.47-7.76a.29.29,0,0,0-.24-.36.31.31,0,0,0-.36.25c-.5,2.64-1,5.27-1.5,7.91L148.93,115q.82-4.17,1.62-8.39a.29.29,0,0,0-.09-.27l.21-.35a54.38,54.38,0,0,0,6.23,5.39l-.55.43,0-.15a.3.3,0,0,0-.25-.35.3.3,0,0,0-.35.25l-.16.83-2,1.62c.24-1.32.49-2.65.73-4a.3.3,0,0,0-.24-.35.31.31,0,0,0-.36.24c-.29,1.56-.58,3.12-.86,4.67Zm13.53,8.54-.86-.41c.44-2.44.88-4.89,1.33-7.33a.32.32,0,0,0-.24-.36.32.32,0,0,0-.36.25c-.44,2.39-.87,4.78-1.31,7.16l-1.56-.75q.72-3.67,1.41-7.37a.29.29,0,0,0-.24-.36.31.31,0,0,0-.36.24q-.67,3.62-1.38,7.22l-1.1-.53,2.06-7.83a53.54,53.54,0,0,0,7.43,3.58l-.26.35a.31.31,0,0,0-.25.24l0,.12-2.39,3.21.76-4.15a.31.31,0,0,0-.6-.11l-1,5.38ZM180,129.06l-.64-.12,1.33-7a.31.31,0,1,0-.6-.11l-1.33,7-1.88-.35,1.21-6.27.15-.72a.31.31,0,0,0-.24-.36.29.29,0,0,0-.36.24l-1.36,7-1.37-.26v-.74q.57-3.18,1.16-6.37a.31.31,0,0,0-.6-.11c-.2,1.05-.38,2.09-.57,3.13l0-4c1.32.35,2.65.67,4,.93s2.71.45,4.08.6l-.16.4a.31.31,0,0,0-.18.22l-.1.49Zm9.56-4.61.36-1.84a.3.3,0,1,0-.59-.12l-.13.64-.34-1.25h.11a54.3,54.3,0,0,0,8.1-.63l0,.38a.31.31,0,0,0-.26.25q-.7,3.73-1.42,7.45l-1.64.13q.72-3.57,1.42-7.18a.3.3,0,0,0-.24-.36.31.31,0,0,0-.36.24q-.72,3.7-1.46,7.35l-2,.14,1.36-7.15a.31.31,0,0,0-.61-.11l-1.17,6.21ZM196,129.3c.14-.72.27-1.44.41-2.15l-.25,2.13ZM206.26,126l1.34-6.56a.3.3,0,0,0-.23-.36.32.32,0,0,0-.37.24l-1.2,5.89L204.53,123l.51-2.74a.31.31,0,1,0-.61-.11l-.37,2-1.25-2.13a53,53,0,0,0,7.77-2.73l.81,5.49-.54,2.82-2.15.75c.5-2.64,1-5.31,1.51-8A.31.31,0,0,0,210,118a.3.3,0,0,0-.35.24c-.53,2.81-1.06,5.59-1.57,8.35l-1.16.4Zm5.25-.56.15-.76.1.67Zm8.54-6.56,1.27-6.7a.31.31,0,0,0-.61-.11l-1.18,6.29-1.3-1.29c.2-1.06.39-2.11.59-3.18a.3.3,0,0,0-.24-.35.31.31,0,0,0-.36.24c-.17.93-.34,1.85-.52,2.77l-1.86-1.85a53.71,53.71,0,0,0,6.8-4.65l.48,1.1-1.71,9.08Zm4.88-.78.38-1.87.54,1.24Zm0-2.85-.69,3.35L222.07,120c.49-2.63,1-5.26,1.48-7.89Zm9.16-5.11-.41-.24.47-2.45c.27-1.44.56-2.9.84-4.35l1.79,2.25-.38,2.1Zm3.09-3.6.1-.55.18.22Zm-2.69-4.07c-.32,1.62-.63,3.25-.94,4.87l-.44,2.24-1.44-.82q.74-4,1.45-8Zm9-5.46h0l1.06-5.54,1.18.87Zm2.18-22,1.32.52-1.22,6.34h-1.44c.4-2,.79-4,1.17-5.95Zm2.12,6.85h-1.39l1.17-6.11,1.28.5-.87,4.49Zm1.38,0h-.75l1-5.36.69.27ZM245,74.79l-.19,1q-.58,3-1.19,6.08H241c.36-1.32.68-2.66.93-4s.45-2.72.6-4.08Zm-2.16-6.87a54.78,54.78,0,0,0-.62-8.22l.42,0v0a.29.29,0,0,0,.25.35H243a.31.31,0,0,0,.31-.25v-.09l1.53.18q-.69,3.89-1.39,7.78Zm6.49-1.76,1-5,.36,4.66Z" transform="translate(12.22 27.73)"/><path class="cls-4" d="M190.19,17.27l5,.92,16,3.07h.06a.3.3,0,0,0,.3-.24.31.31,0,0,0-.24-.36l-16-3.07-5-.92a.3.3,0,0,0-.35.25A.3.3,0,0,0,190.19,17.27Z" transform="translate(12.22 27.73)"/><path class="cls-4" d="M197.93,17.72l6.16,1.17h.06a.31.31,0,0,0,.3-.25.31.31,0,0,0-.24-.36L198,17.12a.31.31,0,1,0-.11.6Z" transform="translate(12.22 27.73)"/><path class="cls-4" d="M181.9,67.06a7.19,7.19,0,0,0-.05.92,7,7,0,0,0,5.73,6.8,7.17,7.17,0,0,0,1.31.12h0a7,7,0,0,0,5.6-2.8,1.47,1.47,0,0,0,.1-.13v0a6.93,6.93,0,0,0,1.19-2.78c0-.15,0-.3.06-.45a7,7,0,0,0-1.78-5.58L191.66,56a.55.55,0,0,0-.7-.34.55.55,0,0,0-.34.7l1.84,5.44a6.19,6.19,0,0,0-1.1-.53l-1.83-5.37a.55.55,0,1,0-1,.36l1.59,4.65a7,7,0,0,0-1-.09c-.52-1.49-1.07-3-1.65-4.67a.55.55,0,0,0-1,.37c.54,1.52,1.05,3,1.54,4.36a7,7,0,0,0-1.71.46l-1.51-4.25a.55.55,0,0,0-.7-.34.56.56,0,0,0-.34.71l1.56,4.38a7.64,7.64,0,0,0-1.07.8l-1.5-4.26a.55.55,0,0,0-1,.36l1.7,4.82a7.14,7.14,0,0,0-.9,1.54l-1.65-4.87a.55.55,0,0,0-.7-.34.54.54,0,0,0-.34.69Zm6.82-4.74h.09l.14,0a6.23,6.23,0,0,1,1,.09,5.8,5.8,0,0,1,1,.28l.09,0h0a5.58,5.58,0,0,1,3.45,5.06,4.76,4.76,0,0,1-.1,1.12,5.54,5.54,0,0,1-2.61,3.74.18.18,0,0,0-.07,0l-.23.1a5.5,5.5,0,0,1-2.54.64,5.16,5.16,0,0,1-1-.1A5.56,5.56,0,0,1,183.32,68a4.72,4.72,0,0,1,.1-1.12A5.54,5.54,0,0,1,188.72,62.32Z" transform="translate(12.22 27.73)"/><path class="cls-3" d="M137,4.59l-4.6-1.72a23.74,23.74,0,0,0-.2-2.53l4.27-2.49a.61.61,0,0,0,.25-.75.56.56,0,0,0-.51-.47l-4.88-.45a22.51,22.51,0,0,0-.83-2.39L134-9.74a.62.62,0,0,0,.06-.79.58.58,0,0,0-.62-.32l-4.82.86c-.44-.71-.9-1.41-1.41-2.08l2.48-4.34a.64.64,0,0,0-.14-.78.58.58,0,0,0-.68-.14l-4.45,2.11c-.61-.58-1.24-1.13-1.89-1.64l1.31-4.84a.62.62,0,0,0-.34-.72.57.57,0,0,0-.69.05l-1.4,1.19-2.36,2q-.93-.51-1.89-.93l-.35-.15,0-5c0-.35-.22-.51-.5-.6a.57.57,0,0,0-.65.22l-2.83,4.11c-.81-.19-1.62-.34-2.44-.45l-1.23-4.86a.58.58,0,0,0-.59-.44h0a.57.57,0,0,0-.58.39l-1.69,4.71c-.83,0-1.65.1-2.48.21l-2.41-4.36a.58.58,0,0,0-.73-.26.57.57,0,0,0-.46.53l-.45,5-.37.12c-.66.22-1.32.46-2,.74l-2.15-2.23L94-23.77a.58.58,0,0,0-.77-.06.58.58,0,0,0-.31.63l.82,4.94c-.69.45-1.37.93-2,1.45l-4.22-2.53a.59.59,0,0,0-.76.15.6.6,0,0,0-.14.69l2,4.55C88-13.32,87.47-12.67,87-12l-4.72-1.32a.56.56,0,0,0-.64.26.61.61,0,0,0,0,.79l3.12,3.85c-.39.75-.74,1.52-1.06,2.3l-4.89,0a.58.58,0,0,0-.56.41.62.62,0,0,0,.18.77l4,2.89c-.18.83-.33,1.66-.44,2.5L77.21,1.7a.59.59,0,0,0-.44.55.61.61,0,0,0,.38.69l4.6,1.73c0,.84.09,1.69.19,2.53L77.68,9.69a.6.6,0,0,0-.28.64c.06.3.19.54.54.58l4.87.44q.36,1.22.84,2.4l-3.49,3.53a.59.59,0,0,0-.11.69c.14.27.32.48.67.41l4.82-.86A23.91,23.91,0,0,0,87,19.61L84.47,24a.61.61,0,0,0,.07.7.6.6,0,0,0,.75.22l4.45-2.11a22.66,22.66,0,0,0,1.89,1.64l-1.31,4.84a.61.61,0,0,0,.25.66.58.58,0,0,0,.77,0l1.41-1.2,2.36-2q.93.5,1.89.93l.35.15,0,5a.56.56,0,0,0,.4.57.58.58,0,0,0,.75-.19l2.83-4.1c.81.19,1.62.34,2.44.45L105,34.37a.6.6,0,0,0,.54.45h0a.59.59,0,0,0,.63-.39l1.69-4.71c.83,0,1.65-.1,2.47-.21l2.42,4.36a.56.56,0,0,0,.63.28c.29-.06.53-.19.56-.55l.45-5,.37-.12c.66-.22,1.32-.47,2-.74L118.9,30l1.28,1.33a.56.56,0,0,0,.68.11.6.6,0,0,0,.4-.68l-.82-4.94c.69-.45,1.37-.93,2-1.46l4.22,2.53a.54.54,0,0,0,.68-.07.62.62,0,0,0,.22-.76l-2-4.56a24.71,24.71,0,0,0,1.61-1.94l4.72,1.32a.58.58,0,0,0,.7-.34.6.6,0,0,0,0-.7L129.41,16c.39-.76.74-1.52,1.06-2.31l4.89,0c.35,0,.5-.23.59-.52a.6.6,0,0,0-.21-.67l-4-2.89c.19-.82.34-1.66.45-2.5l4.74-1.27c.34-.09.43-.35.44-.66A.61.61,0,0,0,137,4.59ZM120.47-8.71a1.39,1.39,0,0,1,.28.46,1.61,1.61,0,0,1-.06,1.34,1.66,1.66,0,0,1-.32.43l-4.08,3.79-.9.84A1.52,1.52,0,0,1,113.22-2a1.6,1.6,0,0,1,.11-2.22l3.18-3,1.79-1.67A1.52,1.52,0,0,1,120.47-8.71ZM99.06-15a19.55,19.55,0,0,1,9-1.7,19.5,19.5,0,0,1,8.79,2.56,19.76,19.76,0,0,1,2.63,1.8l-2.85,2.65-7.74,7.2a6,6,0,0,0-1.51-.26,6.07,6.07,0,0,0-1.53.11l-7-7.91-2.58-2.91A19.07,19.07,0,0,1,99.06-15Zm9.57,20.54a2.31,2.31,0,0,1-1.68.62,2.28,2.28,0,0,1-1.61-.78A2.44,2.44,0,0,1,105.5,2a2.31,2.31,0,0,1,1.68-.62,2.28,2.28,0,0,1,1.61.78A2.43,2.43,0,0,1,108.63,5.54ZM94.6-9.52a1.46,1.46,0,0,1,.33-.42,1.51,1.51,0,0,1,2.17.1L98.72-8l2.88,3.25a1.6,1.6,0,0,1-.11,2.22h0a1.51,1.51,0,0,1-2.17-.1l-.81-.92L94.82-7.72a1.46,1.46,0,0,1-.28-.46A1.61,1.61,0,0,1,94.6-9.52ZM90.23,14.87A20.92,20.92,0,0,1,91.38-8.91l3,3.42,4,4.49L101,1.91A6.85,6.85,0,0,0,100.81,5L98,7.67l-4.39,4.09Zm3.43,1.37h0a1.35,1.35,0,0,1-.28-.45,1.61,1.61,0,0,1,.06-1.34,1.51,1.51,0,0,1,.32-.43l4.08-3.79.9-.84a1.52,1.52,0,0,1,2.17.11h0a1.6,1.6,0,0,1-.11,2.22l-3.18,2.95-1.79,1.68A1.52,1.52,0,0,1,93.66,16.24Zm21.41,6.3a19.64,19.64,0,0,1-17.78-.86,20.25,20.25,0,0,1-2.64-1.81l2.85-2.64,7.74-7.2a6.46,6.46,0,0,0,1.51.26,6.58,6.58,0,0,0,1.53-.11l7,7.91L117.86,21A20.05,20.05,0,0,1,115.07,22.54Zm4.46-5.48a1.46,1.46,0,0,1-.33.42h0a1.5,1.5,0,0,1-2.16-.1l-1.63-1.84-2.88-3.25a1.61,1.61,0,0,1,.11-2.23,1.52,1.52,0,0,1,2.17.11l.81.92,3.69,4.17a1.53,1.53,0,0,1,.28.45A1.63,1.63,0,0,1,119.53,17.06Zm3.22-.61-3-3.42-4-4.49-2.58-2.91a6.86,6.86,0,0,0,.15-3.12l2.85-2.65,4.39-4.08,3.34-3.12A20.94,20.94,0,0,1,122.75,16.45Z" transform="translate(12.22 27.73)"/><path class="cls-4" d="M137.13,4.18l-4.32-1.63c0-.66-.08-1.32-.16-2l4-2.35A1,1,0,0,0,137.13-3a1,1,0,0,0-.9-.81l-4.59-.43c-.19-.63-.41-1.26-.64-1.86l3.27-3.32a1.05,1.05,0,0,0,.15-1.32,1,1,0,0,0-1.08-.55l-4.54.81c-.35-.56-.72-1.11-1.1-1.63L130-16.18a1.06,1.06,0,0,0-.19-1.31,1,1,0,0,0-1.18-.24l-4.18,2c-.48-.45-1-.88-1.48-1.28l1.23-4.55a1,1,0,0,0-.52-1.21,1,1,0,0,0-1.2.07l-3.54,3c-.58-.31-1.16-.59-1.76-.85l0-4.72a1,1,0,0,0-.81-1,1,1,0,0,0-1.14.4L112.64-22c-.63-.14-1.27-.26-1.9-.35l-1.16-4.57a1,1,0,0,0-1-.78,1,1,0,0,0-1,.68l-1.59,4.44c-.65,0-1.29.08-1.93.16l-2.27-4.1a1,1,0,0,0-1.21-.48,1,1,0,0,0-.79.93l-.43,4.69c-.61.2-1.22.43-1.82.68l-3.23-3.36A1,1,0,0,0,93-24.23a1,1,0,0,0-.54,1.11l.78,4.64c-.55.36-1.08.74-1.6,1.14l-4-2.38a1,1,0,0,0-.46-.15,1.13,1.13,0,0,0-.81.35,1.05,1.05,0,0,0-.24,1.21L88.06-14c-.44.49-.86,1-1.25,1.51l-4.44-1.24a1,1,0,0,0-1.12.44,1.05,1.05,0,0,0,0,1.33L84.2-8.38c-.3.59-.57,1.19-.83,1.8l-4.6,0a1,1,0,0,0-1,.73,1.06,1.06,0,0,0,.35,1.27L81.9-1.89c-.13.65-.25,1.3-.34,2L77.1,1.27a1,1,0,0,0-.76,1A1,1,0,0,0,77,3.36L81.32,5c0,.66.08,1.32.16,2l-4,2.34A1,1,0,0,0,77,10.43a1,1,0,0,0,.92.92l4.58.42c.2.64.42,1.26.65,1.87L79.86,17a1,1,0,0,0-.19,1.22,1,1,0,0,0,1.12.64L85.33,18c.35.56.72,1.11,1.1,1.63L84.1,23.72A1.05,1.05,0,0,0,84.22,25a1.15,1.15,0,0,0,.78.42.91.91,0,0,0,.47-.1l4.18-2c.48.44,1,.87,1.48,1.28L89.9,29.12a1.07,1.07,0,0,0,.43,1.15,1,1,0,0,0,1.29,0l3.54-3c.58.31,1.16.59,1.75.85l0,4.71a1,1,0,0,0,.71,1,1,1,0,0,0,1.24-.36l2.66-3.86c.63.14,1.27.26,1.9.35l1.16,4.57a1,1,0,0,0,.93.77,1,1,0,0,0,1.11-.67l1.6-4.44c.65,0,1.3-.08,1.93-.16l2.27,4.1a1.08,1.08,0,0,0,2-.45l.43-4.7c.61-.2,1.23-.42,1.82-.67l3.23,3.35a1,1,0,0,0,1.19.2,1,1,0,0,0,.63-1.16L120.91,26c.55-.35,1.08-.73,1.6-1.13l4,2.38a1,1,0,0,0,1.19-.13,1,1,0,0,0,.32-1.28l-1.92-4.28c.43-.49.85-1,1.25-1.52l4.44,1.25a1,1,0,0,0,1.18-.54,1,1,0,0,0-.07-1.23l-2.94-3.62c.3-.59.58-1.19.83-1.8l4.6,0a1,1,0,0,0,1-.83,1,1,0,0,0-.38-1.17l-3.77-2.72c.14-.64.26-1.3.35-1.95L137,6.27a1,1,0,0,0,.77-1.07A1,1,0,0,0,137.13,4.18Zm-3.61-14.59a.13.13,0,0,1,.12.08c.1.2.07.22,0,.27l-.46.47-3.45-.15Zm-5.62-6,1.21.05-.49.87-2.42-.12Zm1.12-.53a.14.14,0,0,1,.17,0c.14.16.12.2.09.26l0,.07-.91,0Zm-8.87-2.63,2.58.16-.15.57L119.47-19Zm1-.84.31,0,1.53.07-.19.69-2.39-.15Zm1.17-1,1,0-.22.83-1.65-.08Zm.75-.64a.14.14,0,0,1,.17,0c.18.12.17.16.15.22l-.06.25-.76,0Zm-7.56-2.61.87,0v.71L115-23.95Zm.51-.74s0,0,.06-.05h.15c.15.06.16.1.16.16v.44l-.72,0Zm-1.13,1.65,1.49.06v.75l-2-.08Zm-.66.95,2.14.08v.86l-2.18-.09-.52,0ZM107.74-25l1.44.08.19.77-1.9-.08Zm.29-.79.94.05.15.59-1.3-.07Zm.32-.9h0l.37,0h0l.18.71-.8,0Zm-1,2.68,2,.09.2.77-2.51-.11Zm-.35,1,2.65.12.21.86-3.16-.15Zm-5.19-1.44-1.37-.06.07-.79.85,0Zm.57,1-2-.08.08-.79,1.52.07Zm-1.85-2.1,0-.42a.16.16,0,0,1,.12-.14c.13,0,.19-.08.26.05l.29.54Zm-.21,2.24,2.19.09.45.81-1.69-.1-1-.05ZM93.69-20.9l2.51.11L97-20l-3.18-.15Zm-.39-2.38a.13.13,0,0,1,.07-.15.38.38,0,0,1,.2-.07s0,0,.07,0l.48.5-.78,0Zm1,.56.76.78L93.51-22l-.13-.76Zm-.79.93,1.78.09L96-21l-2.32-.1Zm-6.46,3.47,1.27.06,1.41.84-2.32-.11Zm-.16-.37a.14.14,0,0,1,0-.17.53.53,0,0,1,.18-.12l.07,0,.75.45-1-.05Zm-5,6.12s-.07-.08,0-.26,0-.05.1-.06h.09l3.36.94-3.22-.15ZM80.64,17.94h0s-.06,0-.15-.18a.14.14,0,0,1,0-.14l1.47.09Zm6.74,5.44-2-.1.43-.75H86l2.87.15Zm-1.91.91-.64,0a.15.15,0,0,1,0-.09l.38-.67,1.72.09Zm8,3.22-2.2-.12.17-.64,2.79.11Zm-2.11,1.81-.6,0,.17-.63,1.15,0Zm1-.83L91,28.43l.22-.82,2,.11Zm-1.26,1.08s-.07,0-.08,0a.85.85,0,0,1-.18-.09h0l.31,0Zm9.18.25-2.48-.14v-.75l3,.12Zm-.62.9-1.86-.1V29.9l2.33.13ZM98.4,32.51l-.65,0v-.79l1.17,0Zm.68-1-1.32-.05v-.62l1.71.09Zm-1.23,1.42a.14.14,0,0,1-.1-.14v-.1l.5,0-.13.2C98,33,98,33,97.85,32.94Zm9.07-1.85L104.56,31l-.18-.71.75,0,2.05.09Zm-.28.79-1.87-.1-.15-.58,2.22.11Zm-.7,1.95-.66,0-.2-.78,1.13,0Zm.35-1L105,32.8l-.2-.79,1.74.09Zm-.76,1.52a.14.14,0,0,1-.14-.11l-.06-.23.53,0-.08.23C105.75,34.34,105.74,34.38,105.53,34.37Zm5.92-3.79,2.33.09-.06.77-1.85-.09Zm2.25,1.08-.06.59-1.3-.07-.34-.6Zm-1.23.75,1.15.06-.06.7-.69,0Zm1.33-2-2.48-.1-.48-.88,3,.13Zm-.54,3.27a.15.15,0,0,1-.11-.07l-.15-.28.54,0v.16C113.52,33.63,113.52,33.67,113.26,33.72Zm7.23-4.94-2.21-.08-.85-.88,2.92.12Zm.15.87-1.5-.06-.64-.66,2,.08Zm.18,1.07-.61,0-.85-.88,1.32.06Zm-.16.3a.14.14,0,0,1-.17,0l-.06-.06h.35A.31.31,0,0,1,120.66,31Zm6.15-5.66-1.93-.09-1.56-.94,3.09.12Zm.39.86a0,0,0,0,1,0,0l-.75,0-1.17-.7,1.63.08Zm-.28.27,0,0h.22A.14.14,0,0,1,126.92,26.49Zm5.28-6.39a.15.15,0,0,1,0,.18c-.1.17-.15.16-.17.16h0L130.42,20l1.77.1Zm4.61-14.69-1.49.4-3.17-.12a.1.1,0,0,0-.11.1.11.11,0,0,0,.1.12h0l2.47.09-2.06.55-.48,0h0a.11.11,0,0,0-.12.1.13.13,0,0,0,0,.09.43.43,0,0,0-.24.34c-.11.82-.26,1.64-.44,2.45a.47.47,0,0,0,.17.47l.41.29-.51,0a.11.11,0,0,0-.11.11.12.12,0,0,0,.1.12h0l.85,0,.93.67-2-.1h0a.11.11,0,0,0-.12.11.1.1,0,0,0,.1.11l2.35.12,1.17.85-3.81-.21h0a.11.11,0,0,0-.12.1c0,.07,0,.12.1.12l4.16.23.49.36a.14.14,0,0,1,.06.17c0,.14-.08.18-.12.19L130.5,13a.11.11,0,0,0-.11.11.09.09,0,0,0,.05.09.44.44,0,0,0-.37.27,24.49,24.49,0,0,1-1,2.27.46.46,0,0,0,0,.49l.37.46-.67,0a.12.12,0,0,0-.12.11.12.12,0,0,0,.1.12l.88,0,.65.8-1.76-.07-.35,0a.11.11,0,0,0-.11.11.12.12,0,0,0,.1.12h.35l2,.08.76.94-3.78-.17a.12.12,0,0,0-.12.11.11.11,0,0,0,.11.11h0l4,.18.58.71-2.56-.13-2.17-.61a.43.43,0,0,0-.46.16c-.49.66-1,1.3-1.58,1.91a.46.46,0,0,0-.08.49l.3.66-1,0a.1.1,0,0,0-.11.11.1.1,0,0,0,.1.11h0l1.14,0,.28.62h0l-2.22-.1a.11.11,0,0,0-.11.11.12.12,0,0,0,.1.12h0l2.22.1h.14l.37.83-3.38-.14L122.7,24a.44.44,0,0,0-.49,0c-.64.5-1.31,1-2,1.43a.42.42,0,0,0-.2.45h-.19a.12.12,0,1,0,0,.23H120l.12.66-1.8-.08a.13.13,0,0,0-.12.11.11.11,0,0,0,.11.11h0l1.84.09.12.72-3.1-.12-.15-.16a.43.43,0,0,0-.48-.1,22.56,22.56,0,0,1-2.3.85.45.45,0,0,0-.3.35h-.26a.13.13,0,0,0-.12.11.11.11,0,0,0,.11.11H114l-.06.63-3.2-.13a.43.43,0,0,0-.4-.19,24.11,24.11,0,0,1-2.43.21.46.46,0,0,0-.4.29l-.22.61L104.32,30l-.16-.64a.45.45,0,0,0-.36-.33,22,22,0,0,1-2.4-.44h-.08a.42.42,0,0,0-.38.19v0l-3.15-.13V28h.28a.1.1,0,0,0,.11-.1.11.11,0,0,0-.1-.12l-.3,0a.41.41,0,0,0-.26-.38c-.74-.32-1.49-.67-2.21-1.07a.44.44,0,0,0-.48.05l-.35.3-3-.12.22-.81,2,.09a.1.1,0,0,0,.11-.1.11.11,0,0,0-.1-.12h0l-2-.09.2-.74h.27a.13.13,0,0,0,.12-.11.11.11,0,0,0-.11-.11H92v0a.46.46,0,0,0-.16-.47q-1-.77-1.86-1.62a.43.43,0,0,0-.48-.08l-.3.14L86,22.32h-.06l.32-.56,2.76.12a.12.12,0,0,0,0-.23h0l-2.64-.11.46-.81,1.2.06h0a.1.1,0,0,0,.11-.1.11.11,0,0,0-.1-.12L87,20.5l.32-.57h.06a.11.11,0,0,0,.12-.1.11.11,0,0,0-.08-.1.45.45,0,0,0-.07-.39,24.55,24.55,0,0,1-1.39-2.05.42.42,0,0,0-.44-.21l-2.57.46h-.4l-1.85-.11.74-.75,3.89.19a.13.13,0,0,0,.12-.11.12.12,0,0,0-.11-.12l-3.69-.18.73-.74,2.4.12h0a.1.1,0,0,0,.11-.11.1.1,0,0,0-.1-.11l-2.2-.11.53-.54,1.27.06a.1.1,0,0,0,.11-.11.1.1,0,0,0-.1-.11h0l-1.07-.05.67-.68a.45.45,0,0,0,.1-.49c-.31-.76-.58-1.55-.82-2.36a.44.44,0,0,0-.27-.29v0c0-.07,0-.12-.1-.12l-2.78-.13L78,10.46c-.07,0-.11,0-.15-.22a.13.13,0,0,1,.07-.16L78,10l.77,0c1.28.07,2.57.13,3.86.18a.1.1,0,0,0,.11-.1.11.11,0,0,0-.1-.12h0l-4.28-.2L79.83,9l2.56.12A.13.13,0,0,0,82.51,9a.11.11,0,0,0-.11-.11l-2.21-.11L81.4,8l.82,0a.12.12,0,0,0,0-.23h0l-.47,0,.4-.23a.47.47,0,0,0,.22-.45c-.11-.82-.17-1.65-.2-2.49A.45.45,0,0,0,82,4.31a.13.13,0,0,0-.1-.09h-.1l-2.32-.87,2.41.1a.11.11,0,0,0,.12-.1.11.11,0,0,0-.11-.12h0l-3.09-.14L77.3,2.52c-.06,0-.1,0-.09-.22l4.73.22a.1.1,0,0,0,.11-.1c0-.07,0-.12-.1-.12l-4.48-.21,2.47-.67,2.07.1a.1.1,0,0,0,.11-.1A.11.11,0,0,0,82,1.3l-1.38-.07L82.06.85a.43.43,0,0,0,.32-.37c.11-.82.25-1.65.44-2.46a.44.44,0,0,0-.09-.38.05.05,0,0,0,0,0,.11.11,0,0,0-.1-.12h-.11l-1.15-.83,1.51.07A.1.1,0,0,0,83-3.39a.1.1,0,0,0-.1-.11l-1.85-.09-.82-.59L83.13-4a.1.1,0,0,0,.11-.1.11.11,0,0,0-.1-.12h0l-3.23-.15-1.26-.91h0l4.85.23a.13.13,0,0,0,.12-.11.11.11,0,0,0-.11-.11h0l-4.88-.24v0a.16.16,0,0,1,.14-.11l4.9,0a.44.44,0,0,0,.4-.28,23.17,23.17,0,0,1,1-2.26.48.48,0,0,0,0-.5l0,0h.1a.13.13,0,0,0,.12-.11A.11.11,0,0,0,85.15-9h0l-.3,0-.72-.89,1.62.08a.12.12,0,0,0,.12-.11.11.11,0,0,0-.11-.11l-1.82-.09-.57-.7.5,0,2.45.09a.12.12,0,0,0,.12-.1.11.11,0,0,0-.11-.12h0L83.88-11l-.71,0-.67-.83,4,.2.36.1a.46.46,0,0,0,.46-.16,23.89,23.89,0,0,1,1.58-1.91.46.46,0,0,0,.08-.49l0-.06h.2a.1.1,0,0,0,.11-.1.11.11,0,0,0-.1-.12h-.31l-.42-.92,1.81.08a.12.12,0,0,0,.12-.11.1.1,0,0,0-.1-.11h0l-1.92-.09L88-16.29l3.27.12a.1.1,0,0,0,.11-.1.11.11,0,0,0-.1-.12h0l-3.39-.13-.35-.78,2.63.13,1.25.75a.44.44,0,0,0,.49,0,23.44,23.44,0,0,1,2-1.43.45.45,0,0,0,.2-.46L94-18.83l1.07,0a.1.1,0,0,0,.11-.11.1.1,0,0,0-.1-.11h0l-1.12,0-.13-.82,3.13.14a.12.12,0,0,0,.12-.1,0,0,0,0,0,0,0,.41.41,0,0,0,.44.06,23.41,23.41,0,0,1,2.3-.84.44.44,0,0,0,.3-.39l0-.42,1.75.09h0a.11.11,0,0,0,.11-.11.1.1,0,0,0-.1-.11l-1.74-.09.07-.72,1,.06,1.83.1.27.48a.4.4,0,0,0,.43.22,21.91,21.91,0,0,1,2.43-.2.44.44,0,0,0,.39-.3v0l1,.06,2.27.1v0a.42.42,0,0,0,.36.33c.8.11,1.61.26,2.4.44a.44.44,0,0,0,.45-.17l.32-.47.66,0,2.19.09v.77l-1.61-.08h0a.12.12,0,0,0-.12.11.11.11,0,0,0,.11.11l1.62.08v.38a.45.45,0,0,0,.27.42c.75.32,1.49.67,2.21,1.06a.39.39,0,0,0,.38,0h.08l3.24.15-.19.71-1.48-.06a.1.1,0,0,0-.11.1c0,.07,0,.12.1.12h0l1.43.06-.19.69a.47.47,0,0,0,.16.47c.64.5,1.26,1.05,1.86,1.62a.44.44,0,0,0,.48.08l1.19-.57,2.72.12-.36.63-3.46-.18h0a.1.1,0,0,0-.11.11.1.1,0,0,0,.1.11l3.35.18-.35.61-2.11-.1,0,.11v.12l2,.09-.42.75-.68,0a.12.12,0,0,0-.12.11.11.11,0,0,0,.1.12h0l.56,0-.18.32a.45.45,0,0,0,0,.5c.49.65,1,1.34,1.39,2.05a.43.43,0,0,0,.44.2h.09l4.24.19-.65.65-3.26-.18h0a.11.11,0,0,0-.11.11.11.11,0,0,0,.1.12l3.06.16-.58.59-2-.1h0a.1.1,0,0,0-.11.1c0,.07,0,.12.1.12l1.82.09-.67.68-.69,0h0a.1.1,0,0,0-.11.1.1.1,0,0,0,.1.12l.49,0-.28.29a.45.45,0,0,0-.1.49c.31.76.58,1.55.82,2.35a.44.44,0,0,0,.37.32l4.88.45a.16.16,0,0,1,.09,0l-4.88-.25h0a.1.1,0,0,0-.11.1.11.11,0,0,0,.1.12l5,.26a.12.12,0,0,1-.07.12l-.94.55L131.6-2.2h0a.12.12,0,0,0-.12.11.12.12,0,0,0,.1.12l3.36.18-1.13.66-2-.08a.1.1,0,0,0-.11.11.11.11,0,0,0,.1.11h0l1.66.07L132-.07h0a.11.11,0,0,0-.11.1.43.43,0,0,0-.12.36c.11.82.17,1.66.2,2.49a.43.43,0,0,0,.28.4l1.1.42-1.1-.05a.11.11,0,0,0-.11.11.12.12,0,0,0,.1.12h0L134,4l2.74,1-4.53-.19a.11.11,0,0,0-.12.1.11.11,0,0,0,.1.12h0l4.72.2C136.91,5.37,136.87,5.39,136.81,5.41Z" transform="translate(12.22 27.73)"/><path class="cls-4" d="M89.86,15.12a.61.61,0,0,0,.17.15.35.35,0,0,0,.3.23h0l2.54.1a1.8,1.8,0,0,0,.06.22l-2-.11h0a.33.33,0,0,0-.34.32.33.33,0,0,0,.31.35l2.38.13,0,0a2.89,2.89,0,0,0,.32.29l-1.89-.1h0a.33.33,0,0,0-.34.32.33.33,0,0,0,.31.35l4.69.24-.2.19-3.62-.14a.33.33,0,0,0-.34.32.34.34,0,0,0,.32.35h0l2.94.11-.33.31-1.56-.07a.33.33,0,0,0-.34.32.33.33,0,0,0,.31.35h0l.9,0-.13.12a.46.46,0,0,0-.14.35.42.42,0,0,0,.16.33,19.93,19.93,0,0,0,11.67,4.47,20,20,0,0,0,12-3.32.46.46,0,0,0,.19-.31.44.44,0,0,0-.11-.36l-.21-.24,1.12.05a.33.33,0,0,0,.34-.32.33.33,0,0,0-.31-.35h0l-1.77-.08-.21-.24,3,.15h0a.32.32,0,0,0,.34-.31.34.34,0,0,0-.31-.36l-3.63-.19-.14-.15,4.59.22a.33.33,0,0,0,.34-.32.33.33,0,0,0-.31-.35l-1.94-.09a2.26,2.26,0,0,0,.45-.31l0,0,2.39.1a.34.34,0,0,0,.34-.33.33.33,0,0,0-.31-.34h0l-2-.08a2.91,2.91,0,0,0,.12-.39l2.42.1a.54.54,0,0,0,.21.08h0a.47.47,0,0,0,.33-.17,21.34,21.34,0,0,0,1.18-24.31.44.44,0,0,0-.31-.2.51.51,0,0,0-.35.11l-.07.07-2.24-.1a2.45,2.45,0,0,0,0-.27l2.1.1a.32.32,0,0,0,.32-.32.34.34,0,0,0-.33-.35h0L121-8.65a1.82,1.82,0,0,0-.15-.23l1.81.1h0a.34.34,0,0,0,.35-.32.33.33,0,0,0-.31-.35l-3.12-.17-.36,0-1.93-.1.15-.14,4.5.22a.33.33,0,0,0,.34-.32.33.33,0,0,0-.31-.35l-3.84-.19.36-.33,2.41.09a.32.32,0,0,0,.34-.32.33.33,0,0,0-.31-.35h0l-1.75-.06.41-.39h.08a.34.34,0,0,0,.34-.33.34.34,0,0,0-.18-.3.39.39,0,0,0-.12-.19A20.07,20.07,0,0,0,96-13.84a.48.48,0,0,0-.19.31h0a.33.33,0,0,0-.34.32.33.33,0,0,0,.31.35h0l.47,0,.23.26-1.79-.1h0a.32.32,0,0,0-.34.31.33.33,0,0,0,.3.36l2.46.13.26.3-3.74-.19h0a.34.34,0,0,0-.34.32.33.33,0,0,0,.31.35l4.39.23.18.2-1.86-.07a1.89,1.89,0,0,0-.53,0l-3-.12a.33.33,0,0,0-.34.32.33.33,0,0,0,.31.35h0l1.83.07a1.7,1.7,0,0,0-.23.3l-2.4-.11a.33.33,0,0,0-.34.32.33.33,0,0,0,.31.35h0l2.17.1a2.2,2.2,0,0,0,0,.36L92-8.9l-.28-.31a.43.43,0,0,0-.33-.15.47.47,0,0,0-.33.17A21.34,21.34,0,0,0,89.86,15.12ZM91.41-8.22,100.48,2a7.29,7.29,0,0,0-.14,2.83l-10,9.32A20.45,20.45,0,0,1,91.41-8.22Zm24.29,0,1.27.06-.31.28-1.27-.05Zm3.21,25.38a1.11,1.11,0,0,1-1.55-.07L112.85,12a1.15,1.15,0,0,1,.08-1.59,1.08,1.08,0,0,1,.79-.3,1.09,1.09,0,0,1,.76.37L119,15.56A1.14,1.14,0,0,1,118.91,17.15Zm-20.85-1L96.81,16l.28-.27,1.27.05Zm-4-1.76,5-4.63a1.12,1.12,0,0,1,.8-.29,1,1,0,0,1,.76.37,1.18,1.18,0,0,1,.28.81,1.14,1.14,0,0,1-.36.78l-5,4.63A1.11,1.11,0,0,1,94,15.94,1.14,1.14,0,0,1,94.06,14.35ZM101.59-2l1.9.1a4.35,4.35,0,0,0-.43.32.31.31,0,0,0-.2-.09l-1.7-.09A1.82,1.82,0,0,0,101.59-2Zm5.76-.08a5.83,5.83,0,0,1,5.47,6.18,5.76,5.76,0,1,1-11.51-.56A5.84,5.84,0,0,1,107.35-2.13Zm5.72.63a2.34,2.34,0,0,0,.49.33l-1.76-.09h0a.3.3,0,0,0-.2.06,5.46,5.46,0,0,0-.44-.38ZM110.8,9.63l1.57.09h0a1.43,1.43,0,0,0-.2.23L110,9.86a5,5,0,0,0,.59-.34A.36.36,0,0,0,110.8,9.63Zm-1.3,1.26-.35-.39,2.65.11a2.57,2.57,0,0,0-.08.38Zm-5.58-.23-2.19-.09a1.75,1.75,0,0,0,0-.4l2.61.12Zm-1-1.54c.21.16.42.32.65.47l-2.17-.1a2.73,2.73,0,0,0-.21-.3l-.07-.06,1.57.07A.36.36,0,0,0,103,9.12ZM95.74-6l-1.25-.06-.19-.2,1.27.06Zm.62.7.32.36L95.43-5l-.32-.36Zm.94,1.06.32.36-1.25,0-.32-.37Zm.94,1.06.26.3L97.23-3,97-3.24Zm.92,1a2.34,2.34,0,0,0,.41.29L98.12-2l-.26-.3Zm3.27,1.11c-.06.06-.12.11-.17.17a.3.3,0,0,0-.16,0h0l-3.19-.12-.17-.18Zm-.67.77c-.09.12-.17.25-.25.37l-.1,0h0L99.84,0l-.32-.36Zm-.61,1-.18.4h-.15l-.37-.42Zm-1.09,5.62.79,0,.07,0,.15.36-1.33-.07Zm-1,.94,2.24.12h0a.2.2,0,0,0,.13,0,3.13,3.13,0,0,0,.2.3l-2.85-.14Zm-1,.89,3.83.2h0a.35.35,0,0,0,.18,0l.2.21-4.39-.19ZM97.23,9l1.28,0-.06.05-.31.28-1.26-.05Zm-1,1,1.26.05-.42.4-1.27-.05Zm-1.12,1,1.27,0-.27.25-1.25-.07Zm-.93.86,1.25.07-.29.28-1.26-.07Zm-1,.92,1.25.06-.23.22-1.27,0Zm-.94.87,1.27.05,0,0a3.33,3.33,0,0,0-.25.28l-1.31-.06Zm-1,.93,1.69.08a1.59,1.59,0,0,0-.06.3l-1.95-.08Zm7.83.63-1.27,0,.29-.27,1.27.06Zm1-.9-1.27-.06.36-.33,1.27,0Zm1-1-1.27,0,.16-.14,1.25.06Zm.83-.76-1.26-.07.27-.25,1.25.07Zm.94-.88-1.39-.08a2.11,2.11,0,0,0,.16-.34l1.61.07Zm8.9,0a2.8,2.8,0,0,0,.13.41L110.49,12l-.37-.42Zm.61,1.1.28.31L111.38,13l-.27-.3Zm.9,1,.13.15-1.26-.07-.13-.15Zm.75.85.24.27L113,14.84l-.25-.28Zm.86,1,.22.24-1.25-.05-.22-.25Zm-.41.89,1.25.05.37.42-1.25-.05Zm5.62-.66,1.6.08.19.22-1.75-.08A.93.93,0,0,0,120.08,15.83Zm-.31-.68a1.27,1.27,0,0,0-.13-.19l0,0,1.26.07.19.22Zm-.79-.93-.14-.17,1.26.07.15.17Zm-.76-.87-.34-.37,1.25,0,.34.38Zm-1-1.07-.37-.41,1.25.05.37.41Zm-1-1.11L116,10.8l1.25.06.32.36Zm-.94-1.07-.2-.22,1.27.08.18.2ZM111.3,9l.23-.2a.28.28,0,0,0,.17.07l3.91.2.18.2Zm.78-.78a3.92,3.92,0,0,0,.25-.32.28.28,0,0,0,.13,0h0l2.23.09.3.33Zm.67-.94.22-.41H113l.66,0,.37.42Zm.88-5.64h-.27c0-.13-.09-.26-.14-.39l.79,0Zm1.07-1L113,.55l-.11,0a2.85,2.85,0,0,0-.16-.3l2.2.11Zm.94-.88-3.16-.17h0a.29.29,0,0,0-.16,0l-.15-.19,3.62.18Zm.84-.78L115-1.1a2,2,0,0,0,.55-.3l1.3,0Zm1-1L116.24-2l.42-.39,1.27.05Zm1.11-1-1.27,0,.3-.28,1.26.05Zm1-.91L118.34-4l.18-.17,1.24.07Zm.84-.79-1.24-.07.22-.21,1.26.06Zm.92-.85-1.26-.06.39-.36,1.27,0Zm-1.29-1.24-5,4.63a1.12,1.12,0,0,1-1.56-.08,1.18,1.18,0,0,1-.28-.81,1.19,1.19,0,0,1,.36-.78l5-4.63a1.09,1.09,0,0,1,.79-.29,1,1,0,0,1,.76.37A1.14,1.14,0,0,1,120.07-6.81ZM114.7-7.3l1.27.06-.42.39-1.27-.06Zm-1.11,1,1.27,0-.32.3L113.28-6Zm-1,.92,1.26.07-.18.16-1.24-.08Zm-.84.78,1.25.08a1.21,1.21,0,0,0-.21.24l-1.32-.06Zm-1,.9,1.68.08a1.59,1.59,0,0,0-.06.3h-.3l-1.65-.07Zm-1,.94,2.31.1.35,0a2,2,0,0,0,.13.41l-2-.09a.35.35,0,0,0-.26.13,7.39,7.39,0,0,0-.74-.38Zm-5.4.28a.29.29,0,0,0-.24-.14l-2-.11a2.07,2.07,0,0,0,.15-.34l2.71.11.15.18A5.82,5.82,0,0,0,104.38-2.44Zm-2-1.26a1.83,1.83,0,0,0,0-.33l1.7.08.3.34Zm-.25-1a2,2,0,0,0-.25-.34v0l1.25.06.32.36Zm-.88-1.06-.14-.15,1.26.06.14.15Zm-.76-.86-.25-.28,1.27.07.24.28Zm-.88-1-.28-.32,1.25,0,.3.34Zm.36-1-1.25-.05L98.44-9l1.26.05Zm1.27,4.13a1.15,1.15,0,0,1-.08,1.59,1.1,1.1,0,0,1-1.55-.07L95.14-8a1.14,1.14,0,0,1,.08-1.59A1.07,1.07,0,0,1,96-9.9a1,1,0,0,1,.76.36ZM94.67-7.22l.27.31L93.68-7l-.28-.31Zm1.1,24.16a2.88,2.88,0,0,0,.35-.26h0l1.25.07-.29.26Zm10.32,6.85a19.11,19.11,0,0,1-10.76-3.94l10-9.33a6.6,6.6,0,0,0,2.76.14l9.08,10.25A19.11,19.11,0,0,1,106.09,23.79ZM115.75,18l-.31-.35,1.25,0,0,0a2.31,2.31,0,0,0,.42.34Zm7-2.2L113.65,5.51a7.3,7.3,0,0,0,.14-2.83l10-9.33A20.45,20.45,0,0,1,122.72,15.75Zm-.27-22.34-1.42,0A1.71,1.71,0,0,0,121.2-7l1.65.07ZM117.9-9l-.25.23-1.26-.06.26-.23ZM108-16.26a19.12,19.12,0,0,1,10.76,4L108.78-3a6.39,6.39,0,0,0-1.38-.21,6.49,6.49,0,0,0-1.39.08L96.94-13.37A19.12,19.12,0,0,1,108-16.26ZM98.77-10l.31.35-1.26,0-.3-.35ZM94.09-8.14c0,.07.06.14.09.22L92.78-8l-.18-.2Z" transform="translate(12.22 27.73)"/><path class="cls-4" d="M90.59-13.37a.15.15,0,0,0,.09,0l3.61-1.93,9.48-5.06a.18.18,0,0,0,.08-.25.19.19,0,0,0-.25-.08l-9.47,5.06-3.61,1.93a.19.19,0,0,0-.08.25A.18.18,0,0,0,90.59-13.37Z" transform="translate(12.22 27.73)"/><path class="cls-4" d="M131.7,5.28c0-.13,0-.26,0-.39s0-.39,0-.58a.21.21,0,0,0,0-.19h0V3.32a.17.17,0,0,0,0-.17h0c0-.25,0-.51,0-.76a.18.18,0,0,0,0-.16s0,0,0,0c0-.26,0-.52-.05-.79a.16.16,0,0,0,0-.15,0,0,0,0,0,0,0c0-.35-.07-.7-.12-1a.16.16,0,0,0,0-.15,0,0,0,0,1,0,0c0-.29-.09-.58-.14-.87a.2.2,0,0,0,0-.13s0,0,0,0c-.05-.29-.1-.58-.17-.88a.14.14,0,0,0,0-.11h0c0-.24-.1-.48-.16-.72a.29.29,0,0,0,0-.09v0c-.07-.26-.14-.53-.22-.79a.15.15,0,0,0,0-.09h0c-.1-.34-.21-.69-.33-1a.09.09,0,0,0,0,0h0c-.1-.3-.22-.6-.33-.9h0c-.09-.23-.19-.46-.29-.69h0a25.35,25.35,0,0,0-2.93-5.2.22.22,0,0,0-.31-.05.25.25,0,0,0,0,.32l0,.05-3,1.55-.32-.39,3.15-1.67a.18.18,0,0,0,.07-.25.16.16,0,0,0-.24-.08L123-10.39l-.5-.57,3-1.61c.12.14.24.27.35.41a.21.21,0,0,0,.16.08.18.18,0,0,0,.15-.05.23.23,0,0,0,0-.31l-.7-.84a.21.21,0,0,0-.31,0,.22.22,0,0,0,0,.31l.1.12-3,1.62-.47-.48,3.22-1.69a.19.19,0,0,0,.08-.25.17.17,0,0,0-.24-.08L121.44-12l-.42-.4L124.13-14c.08.09.17.17.26.26a.18.18,0,0,0,.15.07.27.27,0,0,0,.16-.06.23.23,0,0,0,0-.32c-.29-.3-.58-.59-.88-.88a.25.25,0,0,0-.15-.06.19.19,0,0,0-.18,0l-3.39,1.85c-.17-.13-.33-.27-.5-.39l3.29-1.75a.24.24,0,0,0,.13-.07.22.22,0,0,0,0-.31c-.12-.11-.24-.22-.37-.32a.21.21,0,0,0-.3,0,.22.22,0,0,0,0,.32l.16.13-3.24,1.73-.66-.47L122-16.11a.19.19,0,0,0,.08-.25.18.18,0,0,0-.24-.08l-3.58,1.93h0l-.66-.4,1.65-.88,1.86-1a.19.19,0,0,0,.08-.25.17.17,0,0,0-.24-.08l-1.86,1-1.86,1-.59-.32,3.61-1.91a.18.18,0,0,0,.08-.25.18.18,0,0,0-.24-.08l-3.84,2-.57-.26,3.73-2a.19.19,0,0,0,.08-.25.17.17,0,0,0-.24-.08l-4,2.08-.57-.23,3.8-2a.19.19,0,0,0,.08-.25.19.19,0,0,0-.25-.08l-4.08,2.16h0c-.29-.11-.59-.22-.89-.31l3.88-2.1a.19.19,0,0,0,.07-.25.17.17,0,0,0-.24-.08L112.87-17h0c-.32-.09-.65-.18-1-.25L116-19.41a.19.19,0,0,0,.08-.25.2.2,0,0,0-.09-.09h0a.23.23,0,0,0-.12-.29l-1-.37a.22.22,0,0,0-.27.14.23.23,0,0,0,.06.24c-1.49.79-3,1.59-4.52,2.42,0,0,0,0,0,0l-1.14-.13,4.57-2.42a.19.19,0,0,0,.09-.22.21.21,0,0,0,.18-.15.22.22,0,0,0-.15-.27c-.33-.09-.65-.18-1-.25a.22.22,0,0,0-.26.17.21.21,0,0,0,.16.26l.7.18-4.94,2.62,0,0h-.1c-.34,0-.67,0-1,0l5-2.61a.19.19,0,0,0,.08-.25.19.19,0,0,0-.25-.08l-5.56,2.91a.1.1,0,0,0-.06,0c-.38,0-.76,0-1.13.08l5.51-2.91a.19.19,0,0,0,.08-.25.18.18,0,0,0-.09-.08c.25,0,.5.07.74.12h0a.21.21,0,0,0,.22-.18.22.22,0,0,0-.17-.26c-.41-.08-.83-.14-1.24-.2a.23.23,0,0,0-.25.2.23.23,0,0,0,.19.25c.13,0,.25,0,.38.06h-.06l-6.22,3.28a.23.23,0,0,0-.07.07,20.7,20.7,0,0,0-2.11.41l6.61-3.56a.19.19,0,0,0,.08-.26.18.18,0,0,0-.25-.07l-7.85,4.23a.22.22,0,0,0-.09.1,21,21,0,0,0-6.07,3.21.17.17,0,0,0-.12,0l-7,3.63a.19.19,0,0,0-.08.25.18.18,0,0,0,.15.1.15.15,0,0,0,.09,0l5.75-3c-.51.46-1,.94-1.48,1.45a.17.17,0,0,0-.1,0L86.5-8.32a.19.19,0,0,0-.08.26.2.2,0,0,0,.15.1l.09,0,4.58-2.41c-.27.32-.53.65-.79,1a.13.13,0,0,0-.08,0L85.77-6.9a.19.19,0,0,0-.08.25.2.2,0,0,0,.16.1l.09,0,4-2.19c-.26.36-.5.74-.74,1.12l-.06,0-4,2.14a.19.19,0,0,0-.08.25.18.18,0,0,0,.15.1.18.18,0,0,0,.1,0L88.9-7c-.22.37-.42.75-.61,1.14l-.05,0-3.66,2a.19.19,0,0,0-.08.25.2.2,0,0,0,.16.1l.09,0L88-5.35c-.1.22-.21.45-.3.69h0L84.24-2.8a.19.19,0,0,0-.08.25.19.19,0,0,0,.16.1l.09,0,3.1-1.67c-.09.24-.18.47-.26.71,0,0,0,0,0,0L84-1.73a.19.19,0,0,0-.08.25.18.18,0,0,0,.15.1.12.12,0,0,0,.1,0l2.94-1.53q-.14.4-.24.81h0L83.72-.48a.18.18,0,0,0-.08.25.18.18,0,0,0,.15.1l.09,0L86.7-1.64c-.06.24-.11.49-.16.73h0l-3,1.63a.19.19,0,0,0-.08.25.18.18,0,0,0,.15.1.18.18,0,0,0,.1,0L86.43-.43l-.12.72-2.9,1.54a.19.19,0,0,0-.08.25.18.18,0,0,0,.15.1.15.15,0,0,0,.09,0L86.24.75c0,.27-.08.54-.1.82L83.33,3.08a.18.18,0,0,0-.08.25.2.2,0,0,0,.15.1l.09,0L86.1,2c0,.18,0,.35,0,.53l-.15.08-1.79.93L83.31,4a.19.19,0,0,0-.08.25.18.18,0,0,0,.15.1.15.15,0,0,0,.09,0l.82-.43L86,3c0,.23,0,.47,0,.7L83.33,5.09a.19.19,0,0,0-.08.25.18.18,0,0,0,.15.1.15.15,0,0,0,.09,0L86,4.09c0,.19,0,.39,0,.58L83.38,6.09a.18.18,0,0,0-.07.25.18.18,0,0,0,.15.1.1.1,0,0,0,.09,0l2.51-1.34c0,.23,0,.46,0,.69L83.49,7.16a.19.19,0,0,0,.07.36.14.14,0,0,0,.09,0l2.5-1.32c0,.25,0,.49.09.73L83.65,8.29a.19.19,0,0,0-.08.25.18.18,0,0,0,.15.1.13.13,0,0,0,.09,0L86.3,7.29c0,.15,0,.3.07.45l-.12.06L83.79,9.09a.19.19,0,0,0-.07.25.16.16,0,0,0,.15.1.1.1,0,0,0,.09,0l2.46-1.29h0c0,.21.09.42.14.63L84,10.1a.19.19,0,0,0-.07.25.18.18,0,0,0,.15.1.15.15,0,0,0,.09,0l2.49-1.31c0,.2.1.41.16.61l-2.55,1.38a.19.19,0,0,0-.08.25.18.18,0,0,0,.15.1.16.16,0,0,0,.1,0l2.48-1.34c.06.17.11.35.17.52L84.54,12a.18.18,0,0,0-.07.25.18.18,0,0,0,.15.1l.09,0L87.22,11c.08.24.17.48.26.71l-2.56,1.37a.19.19,0,0,0-.08.25.16.16,0,0,0,.16.1.1.1,0,0,0,.09,0L87.62,12c0,.13.1.26.16.39l-2.57,1.36a.18.18,0,0,0-.08.25.18.18,0,0,0,.15.1l.09,0,2.56-1.35.26.57L85.6,14.7a.19.19,0,0,0-.08.25.18.18,0,0,0,.16.1.1.1,0,0,0,.09,0l2.59-1.36.24.47L86,15.53a.19.19,0,0,0-.08.25.18.18,0,0,0,.15.1.16.16,0,0,0,.1,0l2.61-1.39c.1.18.2.36.31.54l-2.63,1.4a.19.19,0,0,0-.08.25.18.18,0,0,0,.16.1.15.15,0,0,0,.09,0l2.66-1.41c.09.14.17.29.27.43L86.9,17.18a.19.19,0,0,0-.07.25.18.18,0,0,0,.15.1.15.15,0,0,0,.09,0l2.7-1.44.24.35-2.45,1.29-.25.13a.18.18,0,0,0-.07.25.18.18,0,0,0,.15.1l.09,0,.25-.13,2.49-1.32.38.5-2.73,1.45a.18.18,0,0,0-.1.19.15.15,0,0,0-.13-.05l-.42-.59a.14.14,0,0,0,0-.11.15.15,0,0,0-.13-.1c-.1-.15-.2-.3-.29-.45a.29.29,0,0,0,0-.09.15.15,0,0,0-.1-.09c-.13-.2-.25-.4-.37-.6a.14.14,0,0,0,0-.06.13.13,0,0,0-.06-.07,24.15,24.15,0,0,1-1.31-2.53.2.2,0,0,0-.29-.11.22.22,0,0,0-.11.29A24.93,24.93,0,0,0,97.12,27l.07,0,1.19.49a.18.18,0,0,0,.1,0h0c.31.12.62.23.94.33a.14.14,0,0,0,.1.05h0c.42.14.84.26,1.26.37a.16.16,0,0,0,.11.05h0c.37.09.74.18,1.12.25a.14.14,0,0,0,.1.05h.06c.47.09.94.17,1.42.23a.14.14,0,0,0,.1.05l.09,0h0c.47.06,1,.1,1.42.14a.21.21,0,0,0,.1,0,.16.16,0,0,0,.1,0h0l.29,0c.5,0,1,0,1.48,0a.14.14,0,0,0,.1,0,.12.12,0,0,0,.1,0l.05,0c.74,0,1.48-.07,2.2-.15a.17.17,0,0,0,.1,0,.1.1,0,0,0,.09,0l.1-.05a24.87,24.87,0,0,0,3-.57.11.11,0,0,0,.08,0,.18.18,0,0,0,.1,0,1.51,1.51,0,0,1,.22-.11,24.72,24.72,0,0,0,9.32-4.94l.27-.14a.2.2,0,0,0,.1-.18,26.06,26.06,0,0,0,2.35-2.35l.14-.08a.17.17,0,0,0,.09-.2c.44-.52.87-1.05,1.27-1.61l.09-.05a.18.18,0,0,0,.09-.21c.3-.42.58-.85.85-1.29l.07,0a.18.18,0,0,0,.09-.21c.21-.36.42-.72.62-1.09l0,0a.19.19,0,0,0,.08-.23c.23-.45.45-.91.66-1.37l0,0a.18.18,0,0,0,.08-.23c.18-.42.35-.84.51-1.27h0a.18.18,0,0,0,.09-.23c.1-.29.2-.59.29-.89a.18.18,0,0,0,.08-.24c.12-.38.23-.77.33-1.16A.18.18,0,0,0,131,9.9c.08-.31.15-.64.22-1a.2.2,0,0,0,0-.22c.05-.28.1-.57.14-.85a.18.18,0,0,0,0-.22h0c0-.27.08-.55.11-.83a.18.18,0,0,0,0-.21h0c0-.37.07-.74.1-1.11a.17.17,0,0,0,0-.2ZM125.14-7.29c-.11-.21-.24-.41-.36-.6h0l2.91-1.52a5.39,5.39,0,0,1,.3.52l-2.77,1.49A.23.23,0,0,0,125.14-7.29Zm2.37-2.45-2.89,1.51,0,0-.35-.52,2.93-1.54C127.29-10.09,127.4-9.91,127.51-9.74ZM126.7-11l.27.39L124-9l-.28-.39Zm-3.17-3.66c.11.1.21.21.32.32l-3.13,1.65-.31-.28Zm-8.67-5.15a.15.15,0,0,0,.08-.11l.65.24-4.24,2.26s0,0,0,0l-.73-.13Q112.76-18.66,114.86-19.77Zm-6.77,2.44c11.35.55,20.12,10.46,19.56,22.1S117.39,25.42,106,24.87,85.92,14.4,86.48,2.77,96.74-17.88,108.09-17.33Zm-5.18,45.59c1.08-.55,2.15-1.11,3.22-1.67l2.17-1.12a.17.17,0,0,0,.1-.18c.63-.05,1.26-.11,1.87-.21l-6.36,3.34ZM101.58,28l4.76-2.56a.27.27,0,0,0,.09-.12h1.37l-1.83.94-3.65,1.9Zm-1.44-.38,3.92-2,.63-.33.06-.05c.35,0,.71.07,1.07.09L101,27.87ZM99,27.26,103.23,25l0,0,.87.14-.23.12-4.26,2.21Zm-1.3-.5,4-2.1v0c.33.09.65.17,1,.24l-4.12,2.21Zm-1.07-.48,3.75-2h0l.79.25-3.91,2.07Zm-1.06-.54,3.65-1.92h0l.69.27-3.7,2Zm-1-.58.29-.15,3.25-1.7.69.32-3.6,1.9Zm-.77-.49,3.4-1.82.5.26-3,1.57-.48.25ZM92.89,24l3.32-1.76.63.37-3.37,1.8Zm-.79-.6,3.22-1.74.54.35-3.3,1.74Zm-.83-.7,3.18-1.68.54.4-3.2,1.73ZM90.48,22h0l3.11-1.63.52.42-3.06,1.61,0,0h0l-.07,0Zm-.59-.58.07,0,3-1.61.34.31-3,1.56,0,0-.06,0,0,0Zm-.82-.87h0a.17.17,0,0,0,.12,0L92.13,19l.56.55-2.9,1.55a.17.17,0,0,0-.06.06.12.12,0,0,0-.08,0h0Zm-.67-.78a.05.05,0,0,0,0,0,.15.15,0,0,0,.16,0l2.85-1.52.44.48L89,20.21a.2.2,0,0,1-.19.11ZM87.83,19a.18.18,0,0,0,.2,0l2.8-1.48.36.42-2.78,1.48a.2.2,0,0,0-.09.13.14.14,0,0,0-.11,0c-.14-.16-.27-.33-.4-.5A.19.19,0,0,0,87.83,19Zm22.94,6.27a.2.2,0,0,0,.08-.26h0a19.14,19.14,0,0,0,2.63-.68l-7.93,4.28-1-.08Q107.66,26.85,110.77,25.24ZM116,26.8l.08,0,3.94-2.09A23.79,23.79,0,0,1,116,26.8Zm6.12-3.67c-2.59,1.39-4.63,2.47-6.21,3.3l-2.36,1.23a24.14,24.14,0,0,1-2.41.57l7.64-4.1,5.43-2.92A25.28,25.28,0,0,1,122.15,23.13ZM125,20.37l-6.37,3.43-8.57,4.6c-.55.07-1.1.13-1.66.17l6.21-3.32L126,19.18C125.68,19.59,125.36,20,125,20.37Zm4.12-6.4-4.79,2.59a.19.19,0,0,0-.08.25.2.2,0,0,0,.16.1.16.16,0,0,0,.09,0l4.37-2.36c-.17.36-.35.71-.53,1.06l-5.56,2.93a.19.19,0,0,0-.08.25.2.2,0,0,0,.16.1l.09,0,5-2.67c-.14.25-.29.5-.44.75l-6.94,3.63a.19.19,0,0,0-.08.25.18.18,0,0,0,.15.1.15.15,0,0,0,.09,0l6.39-3.34c-.21.32-.43.63-.65.94-3.94,2.09-8,4.25-12.08,6.44l-6.89,3.68c-.43,0-.86,0-1.3,0l6.39-3.45,1.14-.6a.19.19,0,0,0,.08-.25.14.14,0,0,0-.13-.09A21.59,21.59,0,0,0,128.08,4.79a21.82,21.82,0,0,0-2.81-11.86h0l.09,0,2.79-1.5c.12.22.24.44.35.67l-2.69,1.43a.18.18,0,0,0-.08.25.18.18,0,0,0,.15.1l.1,0,2.69-1.44c.08.16.15.32.22.49l-2.62,1.42a.19.19,0,0,0-.08.25.18.18,0,0,0,.15.1.16.16,0,0,0,.1,0l2.61-1.42.18.42L126.66-5a.19.19,0,0,0-.07.25.16.16,0,0,0,.15.1.1.1,0,0,0,.09,0L129.42-6c0,.11.09.22.14.34L127-4.3a.19.19,0,0,0-.08.25.19.19,0,0,0,.16.1l.09,0,2.56-1.34.21.57-2.37,1.27-.21.12a.18.18,0,0,0-.07.25.2.2,0,0,0,.15.1l.09,0,.21-.12L130-4.38c.08.24.16.48.23.72l-2.59,1.39a.18.18,0,0,0-.08.25.2.2,0,0,0,.15.1l.09,0,2.53-1.35.15.53-2.62,1.42a.18.18,0,0,0-.07.25A.18.18,0,0,0,128-1a.15.15,0,0,0,.09,0l2.54-1.38c0,.15.07.3.11.45L128-.54a.19.19,0,0,0-.08.25.18.18,0,0,0,.15.1.16.16,0,0,0,.1,0l2.57-1.35c.05.21.08.42.12.63L128.19.49a.19.19,0,0,0-.08.25.18.18,0,0,0,.16.1l.09,0L131-.55c0,.21.07.43.1.64l-2.77,1.5a.19.19,0,0,0-.08.25.18.18,0,0,0,.15.1l.1,0L131.12.48c0,.27.06.54.09.81L128.36,2.8a.19.19,0,0,0-.08.25.18.18,0,0,0,.15.1.18.18,0,0,0,.1,0l2.71-1.44c0,.18,0,.37,0,.55l-2.91,1.52a.19.19,0,0,0-.08.25.18.18,0,0,0,.15.1.15.15,0,0,0,.09,0l2.77-1.44c0,.17,0,.35,0,.53l-3,1.56a.18.18,0,0,0-.08.25.18.18,0,0,0,.15.1l.09,0,2.81-1.48c0,.19,0,.37,0,.56L129.67,5l-1.38.73a.19.19,0,0,0-.08.25.18.18,0,0,0,.15.1.13.13,0,0,0,.09,0l1.39-.73,1.46-.77c0,.1,0,.2,0,.3l0,.45L128.14,7a.19.19,0,0,0-.08.25.19.19,0,0,0,.16.1l.09,0,2.91-1.58c0,.3-.05.59-.08.88L127.9,8.35a.19.19,0,0,0-.08.25.18.18,0,0,0,.15.1.15.15,0,0,0,.09,0l3-1.6c0,.2-.05.4-.09.6l-3.36,1.76a.19.19,0,0,0-.08.25.2.2,0,0,0,.16.1l.09,0,3.11-1.63c0,.2-.07.4-.11.6l-3.51,1.86a.19.19,0,0,0-.08.25.18.18,0,0,0,.15.1.1.1,0,0,0,.09,0l3.25-1.71c-.06.23-.11.47-.17.71l-3.71,2a.19.19,0,0,0-.08.26.2.2,0,0,0,.15.1l.09,0,3.42-1.82c-.09.3-.17.6-.27.9l-4,2.16a.21.21,0,0,0-.08.26.2.2,0,0,0,.16.1l.09,0,3.66-2-.21.61-4.27,2.29a.18.18,0,0,0-.07.25.18.18,0,0,0,.15.1.15.15,0,0,0,.09,0l3.9-2.09Z" transform="translate(12.22 27.73)"/><path class="cls-4" d="M88.73-11.23a.15.15,0,0,0,.09,0l.67-.36,9-4.83,7.11-3.82.82-.44a.19.19,0,0,0,.08-.25.19.19,0,0,0-.25-.08l-.82.44-7.11,3.82q-4.45,2.38-9,4.83l-.68.36a.19.19,0,0,0-.08.25A.18.18,0,0,0,88.73-11.23Z" transform="translate(12.22 27.73)"/><path class="cls-4" d="M94.36-16.53a.15.15,0,0,0,.09,0l5.2-2.69a.19.19,0,0,0,.08-.25.18.18,0,0,0-.24-.09L95.3-17.42l-1,.54a.19.19,0,0,0-.08.25A.18.18,0,0,0,94.36-16.53Z" transform="translate(12.22 27.73)"/><path class="cls-4" d="M102,2.93a.16.16,0,0,0,.12.06.17.17,0,0,0,.13-.05L106.53-1a.19.19,0,0,0,0-.26.17.17,0,0,0-.25,0l-4.24,3.92A.18.18,0,0,0,102,2.93Z" transform="translate(12.22 27.73)"/><path class="cls-4" d="M105.85-1.47a.2.2,0,0,0,.15-.06.19.19,0,0,0,0-.26.18.18,0,0,0-.26,0l0,0a.18.18,0,0,0,0,.25A.2.2,0,0,0,105.85-1.47Z" transform="translate(12.22 27.73)"/><path class="cls-4" d="M102.8,1.21a.16.16,0,0,0,.13.06.18.18,0,0,0,.13-.05c.3-.27.7-.67,1.12-1.07s.75-.72,1.07-1a.19.19,0,0,0,0-.26.19.19,0,0,0-.26,0l-1.07,1L102.81,1A.19.19,0,0,0,102.8,1.21Z" transform="translate(12.22 27.73)"/><path class="cls-4" d="M107.13-1.61a.24.24,0,0,0,.14,0,.2.2,0,0,0,0-.27.18.18,0,0,0-.25,0l0,0a.18.18,0,0,0,0,.25A.18.18,0,0,0,107.13-1.61Z" transform="translate(12.22 27.73)"/><path class="cls-4" d="M104.56,5.9a.17.17,0,0,0-.25,0L103,7.06a.19.19,0,0,0,0,.26.18.18,0,0,0,.13.06.17.17,0,0,0,.13,0l1.27-1.17A.19.19,0,0,0,104.56,5.9Z" transform="translate(12.22 27.73)"/><path class="cls-4" d="M111.73,6,108.9,8.65a.19.19,0,0,0,0,.26A.18.18,0,0,0,109,9a.15.15,0,0,0,.13-.05L112,6.27A.18.18,0,0,0,112,6,.17.17,0,0,0,111.73,6Z" transform="translate(12.22 27.73)"/><path class="cls-4" d="M107.24,7.44a.17.17,0,0,0-.25,0l-1.53,1.41a.19.19,0,0,0,0,.26.16.16,0,0,0,.13.06.18.18,0,0,0,.13-.05l1.52-1.4A.19.19,0,0,0,107.24,7.44Z" transform="translate(12.22 27.73)"/><path class="cls-4" d="M108.58,7.21a.18.18,0,0,0-.25,0l-2,1.81a.19.19,0,0,0,0,.26.18.18,0,0,0,.13.06.18.18,0,0,0,.13-.05l1.95-1.81A.18.18,0,0,0,108.58,7.21Z" transform="translate(12.22 27.73)"/><path class="cls-4" d="M112.21,4.5l-3,2.74L107.31,9a.2.2,0,0,0,0,.27.27.27,0,0,0,.12.06.24.24,0,0,0,.14,0l1.89-1.78,3-2.74a.18.18,0,1,0-.24-.28Z" transform="translate(12.22 27.73)"/><path class="cls-4" d="M105.61,6.93a.18.18,0,0,0-.26,0L104,8.16a.18.18,0,0,0,0,.26.14.14,0,0,0,.12.06.15.15,0,0,0,.13,0l1.33-1.25A.19.19,0,0,0,105.61,6.93Z" transform="translate(12.22 27.73)"/><path class="cls-4" d="M105,6.41a.18.18,0,0,0-.26,0L103.5,7.53a.19.19,0,0,0,0,.27.14.14,0,0,0,.12.06.21.21,0,0,0,.13-.05L105,6.67A.19.19,0,0,0,105,6.41Z" transform="translate(12.22 27.73)"/><path class="cls-4" d="M104.21,5.2a.18.18,0,0,0-.25,0l-1.37,1.26a.19.19,0,0,0,0,.26.18.18,0,0,0,.13.06.16.16,0,0,0,.13,0l1.37-1.26A.2.2,0,0,0,104.21,5.2Z" transform="translate(12.22 27.73)"/><path class="cls-4" d="M112.3,3.53l-2.15,2a.19.19,0,0,0,0,.26.16.16,0,0,0,.13.06.18.18,0,0,0,.13,0l2.14-2a.19.19,0,0,0,0-.26A.17.17,0,0,0,112.3,3.53Z" transform="translate(12.22 27.73)"/><path class="cls-4" d="M106.23,7.23a.18.18,0,0,0-.25,0L104.62,8.5a.21.21,0,0,0,0,.27.31.31,0,0,0,.13.06.24.24,0,0,0,.13-.05l1.35-1.28A.19.19,0,0,0,106.23,7.23Z" transform="translate(12.22 27.73)"/><path class="cls-4" d="M110.15,2.66a.16.16,0,0,0,.13.06.17.17,0,0,0,.13,0l1.47-1.39a.18.18,0,0,0,0-.26.17.17,0,0,0-.25,0L110.16,2.4A.19.19,0,0,0,110.15,2.66Z" transform="translate(12.22 27.73)"/><path class="cls-4" d="M109.67-.91a.2.2,0,0,0,.15-.06.2.2,0,0,0,0-.26.18.18,0,0,0-.26,0h0a.18.18,0,0,0,0,.26A.16.16,0,0,0,109.67-.91Z" transform="translate(12.22 27.73)"/><path class="cls-4" d="M106.42.61a3.22,3.22,0,0,0-2.4,2.3.19.19,0,0,0-.14,0l-2,1.84a.19.19,0,0,0,0,.26.16.16,0,0,0,.13.06.18.18,0,0,0,.13,0l1.76-1.65a1.23,1.23,0,0,0,0,.2,3.12,3.12,0,0,0,0,.61.16.16,0,0,0-.19,0l-1.61,1.52a.18.18,0,0,0,0,.26.16.16,0,0,0,.12.06.15.15,0,0,0,.13,0L104,4.52a3.15,3.15,0,0,0,6.23-.6,3.26,3.26,0,0,0-.81-2.32.18.18,0,0,0,.12-.05L111,.2a.19.19,0,0,0,0-.26.17.17,0,0,0-.25,0l-1.46,1.35a.17.17,0,0,0-.05.15l-.37-.31h0l1.43-1.35a.19.19,0,0,0,0-.26.18.18,0,0,0-.26,0L108.63.84s0,.06,0,.09a3.54,3.54,0,0,0-.53-.23l.6-.59.69-.66a.19.19,0,0,0,0-.26.18.18,0,0,0-.26,0l-.68.66-.72.69s0,0,0,.06a2.3,2.3,0,0,0-.45,0,.81.81,0,0,0-.22,0l1.46-1.36a.19.19,0,0,0,0-.26.18.18,0,0,0-.26,0L106.44.55S106.43.59,106.42.61Zm-.63,1.72a1.87,1.87,0,0,1,2.68.13,2,2,0,0,1,.49,1.4,2,2,0,0,1-.62,1.35,1.92,1.92,0,0,1-2.68-.13,2,2,0,0,1,.13-2.75Z" transform="translate(12.22 27.73)"/><path class="cls-4" d="M110.51,4.14a.19.19,0,0,0,0,.26.16.16,0,0,0,.12.06.18.18,0,0,0,.14,0l1.69-1.6a.18.18,0,0,0,0-.26.17.17,0,0,0-.25,0Z" transform="translate(12.22 27.73)"/><path class="cls-4" d="M108-1.52a.16.16,0,0,0,.13,0l0,0a.18.18,0,0,0,0-.25.18.18,0,0,0-.26,0,.19.19,0,0,0,0,.26A.18.18,0,0,0,108-1.52Z" transform="translate(12.22 27.73)"/><path class="cls-4" d="M108.86-1.29a.24.24,0,0,0,.14-.05.2.2,0,0,0,0-.27.18.18,0,0,0-.25,0h0a.2.2,0,0,0,0,.26A.18.18,0,0,0,108.86-1.29Z" transform="translate(12.22 27.73)"/><path class="cls-4" d="M107.1-1.17l-5,4.71-.16.15a.18.18,0,0,0,0,.26A.14.14,0,0,0,102,4a.13.13,0,0,0,.13,0l5.22-4.85a.19.19,0,0,0,0-.26A.19.19,0,0,0,107.1-1.17Z" transform="translate(12.22 27.73)"/><path class="cls-4" d="M110.39,3.32a.18.18,0,0,0,.13.06.24.24,0,0,0,.13,0l1.55-1.46a.2.2,0,0,0,0-.26.18.18,0,0,0-.26,0L110.4,3.06A.19.19,0,0,0,110.39,3.32Z" transform="translate(12.22 27.73)"/><path class="cls-4" d="M109.74,2a.16.16,0,0,0,.12.06A.15.15,0,0,0,110,2L111.41.73a.19.19,0,0,0,0-.26.19.19,0,0,0-.26,0l-1.42,1.3A.19.19,0,0,0,109.74,2Z" transform="translate(12.22 27.73)"/><path class="cls-4" d="M82.52,5.32a.22.22,0,0,0-.2.24c.05.67.12,1.34.21,2a.24.24,0,0,0,.21.19h0A.23.23,0,0,0,83,7.48c-.1-.64-.17-1.3-.21-1.95A.23.23,0,0,0,82.52,5.32Z" transform="translate(12.22 27.73)"/><path class="cls-4" d="M108.21-21.19c.31,0,.61,0,.91.06h0a.23.23,0,0,0,.23-.21.22.22,0,0,0-.2-.24l-.92-.06a.22.22,0,0,0-.23.21A.22.22,0,0,0,108.21-21.19Z" transform="translate(12.22 27.73)"/><path class="cls-4" d="M83.91,11.53a.22.22,0,0,0-.28-.14.24.24,0,0,0-.14.28c.07.2.13.39.2.58a.2.2,0,0,0,.19.14.11.11,0,0,0,.08,0,.22.22,0,0,0,.14-.28C84,11.91,84,11.72,83.91,11.53Z" transform="translate(12.22 27.73)"/><path class="cls-4" d="M82.48,3.87a.22.22,0,0,0,.22-.22c0-.37,0-.75,0-1.13a.22.22,0,1,0-.44,0c0,.38,0,.77,0,1.15a.21.21,0,0,0,.21.22Z" transform="translate(12.22 27.73)"/><path class="cls-5" d="M119.87,67.87q0,22.42-26.06,31.65a74,74,0,0,1,15.51,6.37q18.2,10.33,18.19,31,0,20.2-16,32.19T68.88,181q-9.66,0-24.49-1.09t-21.79-1.1a94.44,94.44,0,0,0-11.46.66L.58,180.83A10.08,10.08,0,0,0-1,181H-2.56q-9.66-.21-9.66-7.9,0-7,7-7a46,46,0,0,1,6.07.66,32,32,0,0,0,4.71.44Q17,167.2,17,150.94V62.6Q17,46.11,5.52,46.12a30.09,30.09,0,0,0-4.71.44,41.45,41.45,0,0,1-6.07.66q-7,0-7-7,0-7.68,10.33-7.69H1L12,34a97.12,97.12,0,0,0,12.81.66q8.52,0,24.26-1.32,10.55-.87,22.69-.88,22.68,0,35.38,9.34T119.87,67.87Zm-86,9.45Q33.83,89,36,91.72t11.8,2.74H60.34q39.76,0,39.77-25.27,0-23.07-32.81-23.07-22.9,0-28.19,2.85T33.83,63.7Zm0,44.61v24.39q0,14.3,4.94,17.59t27,3.29q42,0,42-30.76,0-28.35-40.44-28.35H48.66q-12.13,0-13.93,5.27A29.13,29.13,0,0,0,33.83,121.93Z" transform="translate(12.22 27.73)"/></g></g></g></svg>
