<svg xmlns="http://www.w3.org/2000/svg" xmlns:xlink="http://www.w3.org/1999/xlink" viewBox="0 0 264.42 208.78"><defs><style>.cls-1{fill:none;}.cls-2{fill:#00579b;}.cls-3{clip-path:url(#clip-path);}.cls-4,.cls-5{fill:#fff;}.cls-4{fill-rule:evenodd;}</style><clipPath id="clip-path" transform="translate(11.78 27.73)"><rect class="cls-1" y="1.4" width="177.69" height="177.69" rx="12"/></clipPath></defs><g id="Layer_2" data-name="Layer 2"><g id="Layer_1-2" data-name="Layer 1"><rect class="cls-2" x="12.22" y="27.73" width="177.69" height="177.69" rx="12"/><g class="cls-3"><path class="cls-4" d="M242.8,68.83l9.11-2.48L251.43,60l-9.38-1.09c-.23-1.32-.5-2.63-.82-3.94l8.15-4.75-2.11-6-9.35,1.38c-.56-1.21-1.17-2.41-1.81-3.58l6.65-6.71L239.16,30l-8.68,3.76q-1.28-1.55-2.67-3l4.69-8.2-4.84-4.17-7.4,5.87c-.72-.51-1.45-1-2.2-1.48-.38-.25-.77-.49-1.17-.73l1.17-4.44,1.24-4.68-1.24-.59-4.52-2.18-4.72,6.35-.91,1.23c-1.26-.46-2.53-.88-3.82-1.25l0-9.45-6.28-1.18-3.48,8.78c-1.33-.12-2.67-.2-4-.23L187.8,5.28l-3.9.3-2.47.19-1.08,9.37c-1.33.22-2.64.5-3.94.83l-4.75-8.16-1.83.64-4.2,1.47L167,19.27c-1.22.56-2.41,1.17-3.58,1.82l-2.85-2.83-3.87-3.83L151.44,18l3.75,8.68c-1,.85-2,1.74-3,2.67L144,24.69l-4.16,4.85,5.86,7.4c-.77,1.09-1.51,2.21-2.2,3.36l-9.13-2.41-2.77,5.76,7.59,5.63c-.47,1.26-.89,2.53-1.25,3.82l-9.45,0-1.19,6.28,8.79,3.48c-.13,1.33-.21,2.67-.23,4l-9.11,2.48.48,6.37,9.38,1.09c.22,1.32.5,2.63.82,3.93l-8.16,4.76,2.12,6,9.35-1.38c.56,1.21,1.16,2.4,1.81,3.57l-6.66,6.72,3.61,5.28,8.68-3.76c.85,1,1.74,2,2.67,3l-4.7,8.21,4.85,4.16,7.4-5.86q1.08.77,2.19,1.47l1.17.73-1.17,4.45-1.23,4.68,1.23.59,4.53,2.18,4.72-6.36.91-1.22c1.25.46,2.53.88,3.81,1.25l0,9.44,6.28,1.19,3-7.65.45-1.14c1.34.13,2.67.21,4,.23l2.48,9.11,6.38-.48,1.08-9.38c1.32-.22,2.63-.5,3.93-.82l4.76,8.16,1.83-.64,4.2-1.48-1.38-9.35c1.21-.56,2.41-1.17,3.58-1.81l2.84,2.82,3.87,3.84,5.28-3.61L223.45,109c1-.85,2-1.74,3-2.67l8.21,4.7,4.17-4.85L233,98.8c.78-1.09,1.51-2.21,2.2-3.36l9.13,2.4,2.77-5.76-7.58-5.63c.46-1.25.88-2.53,1.25-3.81l9.45,0,1.18-6.28-8.78-3.48C242.7,71.51,242.77,70.17,242.8,68.83ZM214.26,43.06a6.35,6.35,0,0,1,3.8-1.12,6.43,6.43,0,0,1,3.45,11.75A6.45,6.45,0,0,1,212.57,52,6.43,6.43,0,0,1,214.26,43.06ZM166.2,34a6.43,6.43,0,1,1-1.69,8.94A6.41,6.41,0,0,1,166.2,34Zm-1.81,58.69a6.52,6.52,0,0,1-3.81,1.12,6.43,6.43,0,1,1,3.81-1.12Zm5.44-23a11.78,11.78,0,0,1-9.25,4.48,11.56,11.56,0,0,1-2.18-.2,11.77,11.77,0,0,1,2.18-23.33,12.45,12.45,0,0,1,2.18.2,11.78,11.78,0,0,1,7.07,18.85Zm25.63,29.06a11.76,11.76,0,0,1-11.56,9.59,11.58,11.58,0,0,1-2.18-.21,11.77,11.77,0,0,1,2.18-23.33,11.58,11.58,0,0,1,2.18.21A11.76,11.76,0,0,1,195.46,98.79ZM183.14,66.7a6.29,6.29,0,1,1,5,7.36,6.34,6.34,0,0,1-4.26-3A6.25,6.25,0,0,1,183.14,66.7Zm9.42-16a11.78,11.78,0,0,1-9.38-13.75,12,12,0,0,1,.72-2.39,11.77,11.77,0,1,1,8.66,16.14Zm19.89,51.06a6.44,6.44,0,0,1-7.26-10.63,6.44,6.44,0,0,1,7.26,10.63Zm17.18-26.28a11.79,11.79,0,1,1-9.38-13.74A11.78,11.78,0,0,1,229.63,75.47Z" transform="translate(11.78 27.73)"/><path class="cls-5" d="M252.16,59.92a.74.74,0,0,0-.65-.67l-8.83-1c-.18-1-.38-2-.61-2.91l7.68-4.47a.73.73,0,0,0,.32-.88l-2.11-6a.74.74,0,0,0-.8-.49l-8.81,1.3c-.42-.88-.87-1.77-1.34-2.64l6.27-6.32a.74.74,0,0,0,.09-.94l-3.6-5.27a.74.74,0,0,0-.9-.26l-8.18,3.53c-.64-.76-1.3-1.5-2-2.21l4.42-7.73A.74.74,0,0,0,233,22l-4.85-4.16a.73.73,0,0,0-.93,0l-7,5.52c-.82-.57-1.65-1.11-2.49-1.63L220,13.1a.74.74,0,0,0-.39-.85l-5.76-2.77a.74.74,0,0,0-.91.22l-5.3,7.14c-.94-.33-1.88-.64-2.83-.92l0-8.9a.75.75,0,0,0-.6-.72l-6.28-1.18a.72.72,0,0,0-.82.45l-3.28,8.27c-1-.08-2-.14-3-.17l-2.34-8.58a.73.73,0,0,0-.76-.54L181.37,5a.74.74,0,0,0-.67.65l-1,8.83c-1,.18-2,.38-2.91.61l-4.48-7.68a.74.74,0,0,0-.88-.32l-6,2.11a.74.74,0,0,0-.48.8l1.3,8.81c-.89.42-1.77.87-2.65,1.34l-6.32-6.27a.73.73,0,0,0-.93-.09L151,17.43a.72.72,0,0,0-.26.89l3.54,8.18c-.75.64-1.49,1.3-2.21,2l-7.73-4.42a.73.73,0,0,0-.92.16l-4.17,4.85a.73.73,0,0,0,0,.93l5.53,7c-.57.82-1.11,1.65-1.63,2.49l-8.6-2.27a.74.74,0,0,0-.85.4l-2.77,5.75a.73.73,0,0,0,.23.91l7.14,5.31c-.34.93-.65,1.88-.93,2.82l-8.9,0a.74.74,0,0,0-.71.6l-1.19,6.28a.75.75,0,0,0,.45.82l8.27,3.28c-.08,1-.14,2-.16,3l-8.58,2.34a.73.73,0,0,0-.54.76l.48,6.38a.73.73,0,0,0,.65.67l8.83,1c.17,1,.38,1.95.61,2.91l-7.69,4.48a.74.74,0,0,0-.32.88l2.11,6a.74.74,0,0,0,.81.48L140.3,91c.42.89.86,1.78,1.33,2.64L135.36,100a.73.73,0,0,0-.08.93l3.6,5.28a.74.74,0,0,0,.9.26l8.17-3.54c.64.76,1.3,1.5,2,2.21l-4.42,7.73a.74.74,0,0,0,.16.93l4.84,4.16a.74.74,0,0,0,.94,0l7-5.53c.82.57,1.65,1.12,2.48,1.63l-2.26,8.6a.73.73,0,0,0,.39.85l5.76,2.77a.74.74,0,0,0,.91-.22l5.3-7.15c.93.34,1.88.65,2.82.93l0,8.9a.74.74,0,0,0,.6.72l6.28,1.18a.74.74,0,0,0,.82-.45l3.27-8.27c1,.08,2,.13,3,.16l2.33,8.59a.74.74,0,0,0,.71.54h.06l6.37-.49a.73.73,0,0,0,.68-.64l1-8.84c1-.17,1.95-.38,2.9-.61l4.49,7.69a.72.72,0,0,0,.87.32l6-2.11a.74.74,0,0,0,.49-.8l-1.3-8.82c.88-.41,1.76-.86,2.64-1.33l6.32,6.27a.74.74,0,0,0,.94.08l5.27-3.6a.72.72,0,0,0,.26-.9l-3.54-8.17q1.14-1,2.22-2l7.73,4.43a.75.75,0,0,0,.92-.16l4.16-4.85a.74.74,0,0,0,0-.94l-5.52-7c.57-.82,1.11-1.65,1.62-2.48l8.61,2.26a.72.72,0,0,0,.85-.39l2.76-5.76a.73.73,0,0,0-.22-.91l-7.14-5.3c.33-.93.64-1.87.92-2.82l8.9,0a.73.73,0,0,0,.72-.6l1.19-6.28a.75.75,0,0,0-.46-.82l-8.27-3.27c.08-1,.14-2,.17-3l8.58-2.33a.74.74,0,0,0,.54-.77Zm-3.42.48,1.52.18-1.1,5.75-1.56.43C248,64.73,248.35,62.61,248.74,60.4Zm-1.8,6.54-2.42.66q.69-3.78,1.35-7.53l2.26.26C247.72,62.63,247.32,64.84,246.94,66.94Zm-5.71,29.34-1.74-.46,1.32-7.45,1.74,1.29Zm1.87-6.22,1.3,1-1.11,5.79-1.46-.38Zm-4.2,5.6-2.08-.54a.46.46,0,0,0-.15-.09.32.32,0,0,0-.14,0l-.47-.12a54.09,54.09,0,0,0,3.58-7.43l.62.47Zm-5.8,4.51a.31.31,0,0,0-.15.2c-.47,2.69-.95,5.36-1.44,8l-1.8-1,.52-2.83a.31.31,0,0,0-.24-.36.31.31,0,0,0-.36.25l-.48,2.62-1.68-1a53.44,53.44,0,0,0,5.37-6.25Zm-12.23,9.71-9.07-1.69a.31.31,0,0,0-.11.61l8.5,1.57c-.28.21-.57.43-.86.63l-9.63-1.75a.29.29,0,0,0-.35.24.31.31,0,0,0,.24.36l9,1.64-.58.38L208,110a.31.31,0,0,0-.11.6l9.42,1.74-1,.61-10.83-2a.3.3,0,0,0-.36.24.31.31,0,0,0,.25.36l10.15,1.85-.78.42-11.46-2.17a.32.32,0,0,0-.36.25.3.3,0,0,0,.24.35l10.74,2-.59.31L201,112.29a.31.31,0,0,0-.36.25.3.3,0,0,0,.24.35l11.47,2.2-.69.34L198,112.88a.31.31,0,0,0-.35.25.3.3,0,0,0,.24.36l12.78,2.38c-.28.12-.55.25-.83.36l-15.76-2.89a.3.3,0,0,0-.36.25.31.31,0,0,0,.25.36l14.82,2.72c-.47.18-.94.38-1.41.55-8.77-1.59-18.49-3.37-25.17-4.64l-15.44-3-12.24-2.37-.72-.65,14.43,2.65,4.43.81h.05a.31.31,0,0,0,.31-.25.3.3,0,0,0-.25-.35l-4.43-.82L153,105.8l-.84-.82,16.89,3.16h.05a.31.31,0,0,0,.06-.61l-17.62-3.29h-.08c-.22-.22-.44-.44-.65-.67l15.49,2.81h.05a.3.3,0,0,0,.3-.25.31.31,0,0,0-.24-.36l-16-2.91a.3.3,0,0,0-.19,0l-.71-.81,14.76,2.8h.05a.3.3,0,0,0,.3-.25.16.16,0,0,0,0-.07,44.24,44.24,0,0,0,67.5-25.5s0,0,0,0v0c.08-.32.17-.64.25-1,0,0,0,0,0,0v0c.09-.36.16-.72.23-1.09a.18.18,0,0,0,.05-.07.49.49,0,0,0,0-.12c0-.21.1-.42.14-.64s.05-.32.08-.47,0,0,0-.09a.26.26,0,0,0,0-.15c0-.27.1-.55.14-.83a.33.33,0,0,0,.06-.1.29.29,0,0,0,0-.16c0-.26.08-.51.11-.76a.6.6,0,0,0,.06-.11.31.31,0,0,0,0-.19l.09-.74a.33.33,0,0,0,.07-.13.24.24,0,0,0,0-.2c0-.3.06-.6.08-.9a.24.24,0,0,0,.08-.13.37.37,0,0,0-.05-.23l.06-1a.35.35,0,0,0,.08-.13.31.31,0,0,0-.06-.23c0-.25,0-.49,0-.73a.29.29,0,0,0,.09-.15.31.31,0,0,0-.08-.26c0-.18,0-.37,0-.56a.38.38,0,0,0,.09-.15.34.34,0,0,0-.08-.26l0-.75a.29.29,0,0,0,.09-.15.31.31,0,0,0-.1-.29l0-.82a.31.31,0,0,0,.09-.14.31.31,0,0,0-.12-.3c0-.31-.05-.62-.07-.94a.3.3,0,0,0,0-.47c0-.23,0-.45-.07-.67a.32.32,0,0,0,.09-.16.3.3,0,0,0-.15-.32c0-.16,0-.33-.07-.49a.3.3,0,0,0,.1-.17.31.31,0,0,0-.16-.33c0-.24-.07-.48-.11-.72a.28.28,0,0,0,.09-.16.29.29,0,0,0-.18-.33c-.05-.26-.09-.51-.14-.77a.27.27,0,0,0,.1-.17.3.3,0,0,0-.2-.34c-.06-.31-.14-.62-.21-.93a.37.37,0,0,0,.11-.18.31.31,0,0,0-.23-.35c-.05-.22-.1-.44-.16-.65a.27.27,0,0,0,.1-.17.29.29,0,0,0-.24-.36h0c-.05-.19-.11-.39-.17-.58a.29.29,0,0,0,.11-.18.31.31,0,0,0-.24-.36h0c0-.19-.11-.39-.17-.59a.27.27,0,0,0,.1-.17.3.3,0,0,0-.24-.36h0l-.26-.75a.25.25,0,0,0,.11-.18.31.31,0,0,0-.24-.36h-.06c-.12-.32-.25-.64-.37-.95a.35.35,0,0,0,.12-.19.31.31,0,0,0-.25-.36l-.1,0c-.08-.21-.16-.43-.26-.65a.32.32,0,0,0,.12-.18.31.31,0,0,0-.25-.36l-.12,0-.22-.48a.3.3,0,0,0,.12-.19.3.3,0,0,0-.24-.36l-.14,0-.35-.72a.3.3,0,0,0,.13-.18.31.31,0,0,0-.25-.36l-.18,0-.38-.75a.3.3,0,0,0,.13-.19.3.3,0,0,0-.25-.35l-.2,0c-.19-.34-.39-.67-.59-1a.29.29,0,0,0,.14-.19.31.31,0,0,0-.24-.36l-.24,0c-.14-.23-.3-.46-.44-.69a.28.28,0,0,0,.14-.19.31.31,0,0,0-.25-.36l-.29,0c-.11-.18-.22-.36-.34-.54a.44.44,0,0,1-.08-.11.33.33,0,0,0,.13-.19.31.31,0,0,0-.24-.36l-.33-.06-.42-.58a.29.29,0,0,0,.14-.19.31.31,0,0,0-.24-.36l-.35-.07c-.19-.25-.39-.49-.59-.73a.48.48,0,0,0,.11-.09.29.29,0,0,0,.24.24l11,2,.36.67-9.94-1.86a.31.31,0,0,0-.11.6l10.41,2,.26.5-9.47-1.81a.3.3,0,0,0-.36.24.31.31,0,0,0,.25.36l9.93,1.9c.07.16.14.32.22.48l-9-1.69a.31.31,0,1,0-.11.6l9.4,1.77c.09.18.17.36.25.54l-2.18-.41-6.36-1.19a.3.3,0,0,0-.35.25.32.32,0,0,0,.24.36l6.35,1.18,2.6.49c.12.27.22.54.33.81l-8-1.46a.31.31,0,1,0-.11.6l8.4,1.53c.09.23.19.45.27.68l-7.68-1.44a.31.31,0,0,0-.36.25.3.3,0,0,0,.24.35l8,1.51.2.56-6.49-1.17-.85-.17a.31.31,0,0,0-.36.24.31.31,0,0,0,.24.36l7.69,1.4c.05.14.1.27.14.41l-7.15-1.36a.31.31,0,1,0-.11.61l7.46,1.41c.05.17.1.35.16.52l-5.58-1.06-1.32-.25a.32.32,0,0,0-.36.25.32.32,0,0,0,.24.36l1.32.24,5.89,1.12c.07.26.15.51.22.76l-6.65-1.21a.31.31,0,0,0-.36.25.3.3,0,0,0,.25.35l6.92,1.26c.05.23.11.45.16.67L234,54.52a.3.3,0,0,0-.35.24.29.29,0,0,0,.24.36l6.73,1.26.12.5-6.34-1.21a.29.29,0,0,0-.36.24.31.31,0,0,0,.24.36l6.58,1.26c0,.14.06.29.08.44l-6.2-1.18a.31.31,0,0,0-.36.25.3.3,0,0,0,.25.35L241,58.62c0,.17.07.34.1.52L235,58a.31.31,0,1,0-.11.6c2.15.4,4.25.81,6.33,1.21,0,.24.06.48.1.72l-6-1.1a.31.31,0,0,0-.36.25.3.3,0,0,0,.25.35l6.19,1.14c0,.22.07.44.09.66l-5.93-1.11a.31.31,0,0,0-.36.25.3.3,0,0,0,.25.35c2,.39,4.07.76,6.1,1.14,0,.17,0,.34.05.51l-5.86-1.06a.31.31,0,0,0-.36.25.3.3,0,0,0,.25.35l6,1.09,0,.43-5.83-1.11a.31.31,0,0,0-.11.6l6,1.14c0,.17,0,.34,0,.51L236,64a.3.3,0,0,0-.36.24.31.31,0,0,0,.25.36l5.93,1.14,0,.69-5.76-1.06a.31.31,0,1,0-.11.6l5.89,1.09c0,.21,0,.43,0,.64l-5.73-1.07a.31.31,0,0,0-.12.61l5.85,1.08c0,.17,0,.33,0,.49l-5.72-1a.31.31,0,0,0-.11.6l5.83,1.06c0,.14,0,.28,0,.43l-5.72-1.09a.31.31,0,0,0-.11.6l5.79,1.1,0,.5-5.69-1.09a.29.29,0,0,0-.36.24.31.31,0,0,0,.25.36l5.77,1.11c0,.22,0,.44,0,.67l-5.71-1a.31.31,0,0,0-.11.6l5.75,1.06c0,.21-.05.42-.07.63l-5.68-1.05a.31.31,0,0,0-.11.6l5.72,1.06c0,.17,0,.33-.05.5l-5.67-1.09a.31.31,0,0,0-.36.25.3.3,0,0,0,.24.35l5.7,1.09c0,.14,0,.28-.07.42l-5.65-1.08a.31.31,0,0,0-.11.6l5.67,1.08c0,.17,0,.33-.08.49l-.13,0-5.5-1.06a.29.29,0,0,0-.36.24.3.3,0,0,0,.24.36l5.51,1.06.14,0c0,.08,0,.16,0,.24l-.09.41-5.62-1a.31.31,0,1,0-.11.61l5.61,1c-.05.21-.09.41-.14.62l-5.59-1a.31.31,0,0,0-.12.6l5.59,1-.12.48-5.59-1.07a.31.31,0,1,0-.11.6l5.54,1.07-.1.4-5.59-1.07a.31.31,0,1,0-.11.61l5.54,1c0,.16-.08.32-.13.49l-5.61-1.09a.31.31,0,0,0-.11.61L239.63,83c-.06.22-.13.43-.2.64l-5.64-1a.31.31,0,1,0-.11.6l5.57,1c-.06.19-.13.38-.19.57l-5.67-1.09a.31.31,0,0,0-.36.24.31.31,0,0,0,.25.36l5.57,1.07c-.07.22-.15.43-.22.64l-5.74-1a.3.3,0,0,0-.35.24.31.31,0,0,0,.24.36l5.64,1-.25.6-5.78-1.08a.31.31,0,0,0-.36.25.3.3,0,0,0,.25.35l5.66,1.06-.19.46-5.83-1.12a.3.3,0,0,0-.35.25.29.29,0,0,0,.24.35l5.7,1.1-.18.39-5.89-1.12a.29.29,0,0,0-.35.24.29.29,0,0,0,.24.36l5.74,1.09-.21.46-6-1.14a.31.31,0,0,0-.12.6l5.8,1.12c-.1.21-.21.42-.32.63l-6.06-1.11a.3.3,0,0,0-.36.24.31.31,0,0,0,.25.36L236,92l-.27.53-6.13-1.17a.31.31,0,1,0-.11.6l5.93,1.14-.36.63-6.25-1.15a.3.3,0,0,0-.35.25.31.31,0,0,0,.24.36l6,1.1-.33.58L228,93.7a.31.31,0,1,0-.11.6L234,95.44l-.27.43-6.42-1.22a.29.29,0,0,0-.35.24.29.29,0,0,0,.24.36l6.18,1.18-.25.38-6.52-1.24a.32.32,0,0,0-.36.25.3.3,0,0,0,.24.35l6.26,1.19-.3.44-6.62-1.26a.3.3,0,0,0-.35.25.29.29,0,0,0,.24.35l6.35,1.21c-.15.22-.31.42-.46.63l-6.8-1.24a.31.31,0,0,0-.36.25.3.3,0,0,0,.25.35l6.5,1.19c-.13.16-.25.33-.37.49L225.24,99,224,98.71a.31.31,0,0,0-.36.25.32.32,0,0,0,.25.36l1.25.23,5.32,1c-.17.22-.34.42-.51.63l-7.09-1.29a.31.31,0,1,0-.11.6l6.75,1.24-.46.54-7.23-1.35a.3.3,0,0,0-.35.24.29.29,0,0,0,.24.36l6.86,1.28-.36.4-7.33-1.4a.29.29,0,0,0-.36.24.31.31,0,0,0,.24.36l7,1.33-.36.37-7.51-1.42a.31.31,0,0,0-.12.6l7.12,1.35c-.14.13-.27.27-.41.41l-2.26-.43-5.44-1a.32.32,0,0,0-.36.25.31.31,0,0,0,.25.36l5.43,1,1.85.35-.67.64-8-1.46a.31.31,0,0,0-.36.25.3.3,0,0,0,.25.35l7.55,1.38-.57.5-8.2-1.54a.32.32,0,0,0-.36.25.31.31,0,0,0,.25.36l7.71,1.45-.42.36-8.4-1.61a.31.31,0,0,0-.36.25.32.32,0,0,0,.24.36l7.91,1.51L222,109l-8.71-1.64a.31.31,0,0,0-.36.24.31.31,0,0,0,.25.36l8.18,1.54Zm-31.49,10.54c-1,0-2,0-3-.1l-12.94-2.38c-1.19-.37-2.35-.78-3.49-1.24l9.93,1.85,10,1.85ZM144.6,26.14l0-.23,1.59.91c-.48,2.59-1,5.17-1.47,7.76l-1.34-1.69C143.82,30.66,144.21,28.4,144.6,26.14Zm.67,9.07,1.53-8.07,1.49.85-.88,4.34a.31.31,0,0,0,.24.36h.06a.3.3,0,0,0,.3-.25l.84-4.13,1.28.73-.07.41a.3.3,0,0,0,.24.35h.06a.32.32,0,0,0,.3-.25l0-.2.48.27a54.36,54.36,0,0,0-5.38,6.25Zm13-9.72a.26.26,0,0,0,.16-.11l1.29-.92a.21.21,0,0,0,.15-.1L161,23.6a.31.31,0,0,0,.19-.13c.46-.29.93-.57,1.4-.84a.38.38,0,0,0,.15-.09c.44-.26.89-.51,1.34-.76a.2.2,0,0,0,.09-.05c.47-.26.95-.51,1.43-.75a.39.39,0,0,0,.11-.06c.62-.31,1.25-.62,1.89-.91h0a52.15,52.15,0,0,1,21.64-4.69,52.94,52.94,0,0,1,9.79.92,52.31,52.31,0,0,1,17,6.39L198.6,19.39,185.69,17a.32.32,0,0,0-.36.24.31.31,0,0,0,.25.36L198.49,20,216,23.24H216a.3.3,0,0,0,.26-.46c.8.48,1.58,1,2.35,1.5L206,22c-6.77-1.26-13.64-2.51-20.54-3.77L182,17.55a.31.31,0,0,0-.11.6l3.43.63,20.54,3.77L219.06,25h.06a.29.29,0,0,0,.26-.19q1,.69,1.92,1.41c-7.56-1.38-15.94-2.91-22-4.07l-15.34-3-5-1a.29.29,0,0,0-.36.24.31.31,0,0,0,.24.36l5,1,15.35,3c6.31,1.21,15.13,2.82,22.93,4.24h0s.06,0,.1,0l.86.73L193.26,22l-16.61-3.17a.31.31,0,0,0-.36.25.32.32,0,0,0,.24.36l16.61,3.16q15.44,2.94,30.92,5.88l.68.61-23.69-4.64L174.5,19.52a.32.32,0,0,0-.36.25.3.3,0,0,0,.25.35l21,3.9a44,44,0,0,0-5.72-.41l-17.44-3.25a.32.32,0,0,0-.36.24.31.31,0,0,0,.25.36l14.59,2.72c-.75,0-1.5.11-2.24.19l-1.9-.35q-6.23-1.12-12.44-2.28a.31.31,0,0,0-.11.61l12.44,2.28h0c-.58.09-1.16.19-1.73.31-4.13-.81-8.26-1.61-12.36-2.39a.3.3,0,0,0-.36.24.31.31,0,0,0,.24.36l10.95,2.11-1,.25-11.39-2.16a.31.31,0,1,0-.11.6l10.16,1.93c-.35.1-.71.2-1.06.32l-10.65-1.94a.31.31,0,1,0-.11.61l9.57,1.73c-.35.13-.7.25-1,.39l-9.88-1.85a.32.32,0,0,0-.36.24.31.31,0,0,0,.25.36l8.91,1.67c-.35.14-.7.3-1,.45l-9.31-1.72a.31.31,0,0,0-.36.25.32.32,0,0,0,.25.36l8.43,1.55-1,.5-8.8-1.63a.31.31,0,1,0-.11.61l8,1.48-.7.38-8.38-1.6a.32.32,0,0,0-.36.24.31.31,0,0,0,.25.36l7.66,1.46-.58.36-8.1-1.53a.31.31,0,0,0-.36.24.31.31,0,0,0,.25.36l7.42,1.41-.7.46-7.6-1.38-.26-.05a.32.32,0,0,0-.36.24.31.31,0,0,0,.24.36l7.24,1.32-.58.41-7.58-1.42a.33.33,0,0,0-.36.25A.31.31,0,0,0,156,31l7,1.31-.71.54-7.35-1.37a.31.31,0,1,0-.11.61l6.82,1.26-.48.39L154,32.37a.31.31,0,0,0-.35.25.32.32,0,0,0,.24.36l6.67,1.26-.46.39-7-1.32a.31.31,0,0,0-.36.24.31.31,0,0,0,.25.36l6.53,1.23-.45.43-6.88-1.27a.29.29,0,0,0-.36.24.31.31,0,0,0,.25.36l6.43,1.19c-.17.18-.35.35-.52.52l-6.72-1.26a.31.31,0,0,0-.36.25.3.3,0,0,0,.25.35l6.32,1.19c-.19.19-.38.38-.56.58l-6.59-1.23a.31.31,0,0,0-.11.6l6.22,1.16-.35.39-6.49-1.22a.31.31,0,0,0-.36.24.31.31,0,0,0,.25.36l6.13,1.16c-.12.13-.23.27-.34.41l-6.41-1.2a.31.31,0,0,0-.11.6l6.08,1.14c-.15.19-.31.38-.45.57l-6.28-1.24a.31.31,0,0,0-.36.24.31.31,0,0,0,.24.36l6,1.18-.33.43-6.24-1.17a.31.31,0,0,0-.12.6l6,1.12-.42.61-6.17-1.16a.31.31,0,0,0-.12.6l5.91,1.11-.26.4-6.12-1.15a.31.31,0,0,0-.11.6l5.88,1.11-.27.43-6.07-1.15a.3.3,0,0,0-.36.25.32.32,0,0,0,.24.36l5.85,1.1c-.09.15-.18.32-.27.48l-6.05-1.13a.31.31,0,0,0-.11.61l5.84,1.08-.31.55-6-1.13a.31.31,0,1,0-.11.61L150,47.49c-.11.21-.22.42-.32.63l-6-1.13a.31.31,0,0,0-.36.25.3.3,0,0,0,.24.35l5.79,1.1c-.06.13-.12.27-.19.41L143.3,48a.31.31,0,0,0-.11.6L149,49.67c-.07.15-.14.29-.2.44L142.86,49a.32.32,0,0,0-.36.25.3.3,0,0,0,.25.35l5.78,1.09-.2.5-5.92-1.1a.3.3,0,0,0-.35.25.29.29,0,0,0,.24.35l5.79,1.08-.21.56L142,51.22a.31.31,0,0,0-.36.25.3.3,0,0,0,.25.35l5.8,1.1c-.08.21-.16.42-.23.64l-5.89-1.11a.29.29,0,0,0-.36.24.31.31,0,0,0,.24.36l5.81,1.1c0,.14-.08.28-.13.42l-5.9-1.11a.31.31,0,1,0-.11.6l5.83,1.1c0,.15-.09.3-.14.45l-5.91-1.11a.3.3,0,0,0-.35.25.31.31,0,0,0,.24.36l5.86,1.1-.15.58-5.91-1.17a.31.31,0,0,0-.12.6l5.88,1.16c0,.17-.09.34-.13.51l-5.93-1.12a.31.31,0,1,0-.11.61l5.92,1.11c-.05.22-.1.44-.14.66L140,58a.3.3,0,0,0-.35.25.29.29,0,0,0,.24.35l5.95,1.13c0,.15,0,.29-.07.43l-6-1.13a.33.33,0,0,0-.36.25.31.31,0,0,0,.25.36l6,1.13c0,.16,0,.31-.07.47l-6-1.13a.31.31,0,0,0-.11.6l6,1.13c0,.2,0,.4-.07.6l-6.05-1.19a.29.29,0,0,0-.36.24.31.31,0,0,0,.24.36l6.1,1.2c0,.17,0,.35-.05.52l-6.11-1.15a.32.32,0,0,0-.36.24.31.31,0,0,0,.25.36l6.15,1.16c0,.23,0,.45,0,.68L139,63.72a.3.3,0,0,0-.36.24.31.31,0,0,0,.25.36l6.23,1.18c0,.14,0,.29,0,.44l-6.21-1.17a.31.31,0,0,0-.36.24.31.31,0,0,0,.25.36l6.29,1.19c0,.27,0,.55,0,.83l-6.28-1.19a.31.31,0,0,0-.36.25.3.3,0,0,0,.24.35l6.4,1.21c0,.15,0,.3,0,.45l-6.33-1.2a.31.31,0,0,0-.12.61l6.47,1.22c0,.16,0,.32,0,.48l-6.41-1.2a.3.3,0,0,0-.36.24.31.31,0,0,0,.25.36l6.55,1.23c0,.21,0,.42,0,.62l-6.49-1.27a.3.3,0,0,0-.36.24.31.31,0,0,0,.25.36l6.65,1.31c0,.18,0,.35,0,.53l-6.58-1.24a.3.3,0,0,0-.35.25.29.29,0,0,0,.24.35l6.75,1.27c0,.24.05.47.08.7l-6.68-1.25a.29.29,0,0,0-.35.24.3.3,0,0,0,.24.36L145.49,74c0,.16,0,.31.07.46l-6.77-1.27a.31.31,0,0,0-.12.6l7,1.32c0,.29.11.57.16.86l-6.91-1.3a.3.3,0,0,0-.35.24.29.29,0,0,0,.24.36l7.15,1.35c0,.15.05.31.09.46l-7-1.32a.31.31,0,0,0-.36.25.3.3,0,0,0,.25.35l7.27,1.37c0,.17.08.34.12.51l-7.14-1.35a.32.32,0,0,0-.36.25.31.31,0,0,0,.25.36l7.34,1.38h.07c0,.23.11.45.17.68l-7.28-1.44a.31.31,0,0,0-.36.25.32.32,0,0,0,.24.36l7.6,1.49.15.52-7.42-1.39a.31.31,0,0,0-.36.24.31.31,0,0,0,.25.36l7.73,1.45c.08.25.17.49.25.73l-7.6-1.42a.32.32,0,0,0-.36.24.31.31,0,0,0,.25.36l7.95,1.49c.05.16.11.33.17.49l-7.76-1.46a.31.31,0,0,0-.11.6l8.13,1.53.36.89-8-1.49a.31.31,0,0,0-.36.24.31.31,0,0,0,.25.36l8.38,1.57c.08.17.16.33.23.5l-8.18-1.54a.29.29,0,0,0-.36.24.31.31,0,0,0,.24.36l8.62,1.63.24.52-8.39-1.58a.3.3,0,0,0-.35.24.29.29,0,0,0,.24.36l8.86,1.67c.11.23.23.46.36.7l-3.88-.71L141.59,87a.3.3,0,0,0-.36.24.29.29,0,0,0,.24.36l4.79.94,4.35.79.33.58L142,88.18a.31.31,0,0,0-.36.25.32.32,0,0,0,.24.36l9.44,1.77.46.75-9.23-1.71a.31.31,0,1,0-.11.6l9.8,1.82.36.55-.25,0-9.31-1.77a.3.3,0,0,0-.35.25.29.29,0,0,0,.24.35l9.3,1.77.87.16.39.55L143.62,92a.3.3,0,0,0-.36.24.31.31,0,0,0,.24.36l10.54,2,.55.69-9.29-1.68-1-.2a.29.29,0,0,0-.36.24.3.3,0,0,0,.24.36l11,2,.55.64-10.78-2a.31.31,0,0,0-.35.25.3.3,0,0,0,.24.36l11.54,2.16.71.78-11.33-2.09a.31.31,0,1,0-.11.6l12.17,2.25.66.66-7.15-1.37-4.85-.93a.31.31,0,0,0-.35.25.3.3,0,0,0,.24.36l4.85.92,8.08,1.55h0l1,.92-12.8-2.36a.3.3,0,0,0-.35.24,53.22,53.22,0,0,1-3.77-5.83l0-.06c-.46-.82-.88-1.65-1.29-2.49a.31.31,0,0,0-.06-.13c-.17-.35-.33-.7-.49-1.06a.54.54,0,0,0-.05-.11c-.19-.42-.39-.85-.57-1.28a.22.22,0,0,0-.06-.15c-.15-.36-.3-.73-.44-1.1a.29.29,0,0,0-.07-.16q-.22-.57-.42-1.14a.48.48,0,0,0-.06-.18c-.12-.32-.24-.65-.35-1a.27.27,0,0,0-.07-.21c-.1-.3-.2-.6-.29-.91a.33.33,0,0,0-.06-.22q-.21-.65-.39-1.29h0a.31.31,0,0,0-.09-.26l-.21-.85h0a.32.32,0,0,0-.06-.25c-.09-.36-.19-.73-.27-1.1,0,0,0,0,0,0a.31.31,0,0,0-.08-.26c-.07-.32-.13-.64-.19-1,0,0,0,0,0,0a.31.31,0,0,0-.06-.25c-.06-.32-.13-.63-.18-1l0,0a.31.31,0,0,0-.08-.26c-.05-.28-.08-.56-.13-.84l0,0a.32.32,0,0,0-.07-.25c0-.26-.08-.53-.11-.8,0,0,0,0,0-.05a.32.32,0,0,0-.06-.25c0-.39-.1-.79-.14-1.18,0,0,0,0,0-.06a.29.29,0,0,0-.06-.24c0-.26,0-.52-.08-.79,0,0,0,0,0-.06a.32.32,0,0,0-.06-.25c0-.33-.05-.66-.07-1a.35.35,0,0,0,0-.08.29.29,0,0,0-.06-.24c0-.3,0-.61,0-.91,0,0,0,0,.05-.08a.29.29,0,0,0-.06-.24c0-.27,0-.55,0-.82,0,0,.05-.06.06-.11a.27.27,0,0,0-.06-.23c0-.26,0-.52,0-.78a.33.33,0,0,0,.06-.1.31.31,0,0,0-.06-.23c0-.24,0-.48,0-.72a.24.24,0,0,0,.07-.12.29.29,0,0,0-.06-.24c0-.36,0-.72.07-1.09a.29.29,0,0,0,.06-.11.28.28,0,0,0,0-.22c0-.24,0-.47,0-.7a.32.32,0,0,0,.08-.14.29.29,0,0,0-.06-.24c0-.3.07-.6.1-.91a.22.22,0,0,0,.08-.13.25.25,0,0,0,0-.21l.09-.84a.24.24,0,0,0,.09-.15.31.31,0,0,0,0-.23c0-.24.07-.49.11-.73a.32.32,0,0,0,.09-.16.27.27,0,0,0,0-.2c0-.24.07-.48.11-.72a.31.31,0,0,0,.1-.16.27.27,0,0,0,0-.2c0-.22.07-.43.11-.64v0a.3.3,0,0,0,.12-.19.24.24,0,0,0,0-.2c.06-.29.12-.58.19-.87a.33.33,0,0,0,.11-.18.31.31,0,0,0,0-.19l.18-.8a.3.3,0,0,0,.13-.18.4.4,0,0,0,0-.19c.06-.25.12-.49.19-.73a.31.31,0,0,0,.12-.19.38.38,0,0,0,0-.18c.06-.22.11-.46.18-.68a.33.33,0,0,0,.14-.19.27.27,0,0,0,0-.18c.07-.22.14-.44.2-.66a.24.24,0,0,0,.13-.18.32.32,0,0,0,0-.17c.09-.29.17-.58.27-.87a.29.29,0,0,0,.15-.19.33.33,0,0,0,0-.17l.27-.77A.33.33,0,0,0,140,50a.42.42,0,0,0,0-.16c.09-.25.17-.5.27-.75a.29.29,0,0,0,.15-.19.38.38,0,0,0,0-.15l.28-.7a.28.28,0,0,0,.14-.19.29.29,0,0,0,0-.13l.27-.66a.32.32,0,0,0,.16-.2.23.23,0,0,0,0-.14l.4-.87a.26.26,0,0,0,.15-.19.28.28,0,0,0,0-.13c.12-.26.24-.52.37-.78a.29.29,0,0,0,.16-.21.2.2,0,0,0,0-.11l.39-.76a.27.27,0,0,0,.16-.2v-.1c.12-.24.24-.47.37-.7a.31.31,0,0,0,.17-.2.33.33,0,0,0,0-.1l.38-.67a.31.31,0,0,0,.17-.2.28.28,0,0,0,0-.09c.18-.3.36-.59.53-.89a.28.28,0,0,0,.18-.2v-.07c.16-.26.32-.53.49-.79a.29.29,0,0,0,.18-.21v-.07c.17-.27.35-.52.53-.78a.3.3,0,0,0,.17-.21v0l.5-.73a.27.27,0,0,0,.19-.2s0,0,0-.06l.51-.68a.28.28,0,0,0,.18-.2s0,0,0,0c.23-.3.45-.6.69-.89a.32.32,0,0,0,.2-.22v0l.68-.82a.29.29,0,0,0,.19-.21v0l.66-.77A.28.28,0,0,0,150,33h0l.64-.72a.31.31,0,0,0,.21-.22h0l.66-.68a.28.28,0,0,0,.18-.19c.3-.31.59-.61.9-.91a.29.29,0,0,0,.2-.19l.81-.76a.27.27,0,0,0,.18-.18l1-.86a.27.27,0,0,0,.16-.14l.86-.75a.27.27,0,0,0,.21-.16l.9-.72a.25.25,0,0,0,.17-.13C157.46,26.1,157.86,25.79,158.27,25.49Zm68.57,5.65.61.62-9-1.65-8.9-1.63c-.63-.32-1.26-.63-1.9-.92Zm-1.56,18.08-.37.58a.44.44,0,0,1,0-.1,7.06,7.06,0,0,0,.11-.91Zm-2.84,41.24c-1.76,2.85-3.54,5.71-5.31,8.56a39.16,39.16,0,0,1-3.26,2.64l.29-.46a7.18,7.18,0,0,0,1.24-1.92c1.65-2.58,3.32-5.16,5-7.74,1.83-2.83,3.65-5.66,5.44-8.46a12.42,12.42,0,0,0,3.45-4.25c-.09.35-.17.69-.27,1Q225.73,85.14,222.44,90.46Zm4.91-5.83a40.43,40.43,0,0,1-6.68,10.78L223.38,91Q225.36,87.83,227.35,84.63Zm-7.24-22.18A11,11,0,0,1,216,84.13a10.93,10.93,0,0,1-6.79-4.27c-.1-.13-.2-.25-.29-.39s-.24-.38-.36-.58-.15-.25-.22-.38-.21-.4-.3-.61-.13-.27-.19-.41-.15-.41-.23-.62l-.15-.47c-.06-.19-.11-.39-.16-.59s-.07-.37-.11-.55l-.09-.55c0-.22,0-.43-.06-.65s0-.32,0-.48,0-.52,0-.79,0-.25,0-.37a11,11,0,0,1,.15-1.15v0c.07-.37.16-.72.26-1.07l.12-.35c.08-.24.16-.47.26-.7s.1-.26.16-.39.21-.42.32-.63.12-.24.19-.36c.16-.28.34-.55.53-.82l.23-.31c.16-.2.31-.4.48-.59s.2-.22.31-.32a5.44,5.44,0,0,1,.48-.48l.31-.28c.22-.19.44-.37.68-.54l.17-.13a10.1,10.1,0,0,1,1-.59,11,11,0,0,1,7.43-1.22Zm10.38,6.34-.49.79c-.14-.42-.29-.84-.46-1.25l.9-1.44C230.47,67.52,230.49,68.15,230.49,68.79Zm-.08,2.61c0-.1,0-.21,0-.31l.08-.13ZM229,67.17a10.33,10.33,0,0,0-.63-1l1.77-2.77c.08.54.14,1.08.2,1.62Zm-20.13,35h0a5.7,5.7,0,0,1-3.22-10.41,5.65,5.65,0,0,1,3.2-1A5.7,5.7,0,0,1,212,101.14,5.65,5.65,0,0,1,208.83,102.13Zm2.59-18.26-3.52,5.46a7,7,0,0,0-1.67.44l4.12-6.66C210.69,83.38,211.05,83.63,211.42,83.87Zm3.32,8.52-.13-.18,4-6.44a10.73,10.73,0,0,0,1.39-.14l-4.76,7.69A7.17,7.17,0,0,0,214.74,92.39Zm-.89-1a6.81,6.81,0,0,0-.87-.74l3.06-5a11.65,11.65,0,0,0,1.31.14ZM212,90a6.19,6.19,0,0,0-.8-.34l2.89-4.55c.26.09.52.16.78.23Zm-1.92-.64a6.44,6.44,0,0,0-.87-.1l3.14-4.87.69.32ZM216,96.32a6.89,6.89,0,0,0-.24-1.69l5.78-9.33a12.8,12.8,0,0,0,2.08-.81q-2.07,3.21-4.16,6.46Zm-32.07,11.33a11,11,0,0,1-7.08-19.52h0c.3-.25.61-.47.93-.69l.15-.09c.3-.19.6-.37.91-.53l.08,0a11.34,11.34,0,0,1,3.4-1.08h0c.37,0,.75-.08,1.13-.1h.14c.33,0,.65,0,1,0h.23a11.5,11.5,0,0,1,1.16.15,11,11,0,0,1,1.13.28l.31.11c.27.09.54.18.8.29l.32.15q.38.16.72.36l.32.18c.23.14.45.28.66.43l.32.23c.2.15.4.31.59.48l.31.27.51.52.3.32c.16.19.31.39.46.59l.25.33a10.67,10.67,0,0,1,.57.91l0,.08,0,0a11,11,0,0,1-9.68,16.3ZM160.77,93.06h0a5.69,5.69,0,0,1-5.61-6.75,5.7,5.7,0,0,1,5.59-4.64,5.73,5.73,0,0,1,4.72,2.48,5.7,5.7,0,0,1-4.7,8.91Zm-2.23-19.77a11,11,0,0,1,2-21.88,11.14,11.14,0,0,1,2.06.2,10.9,10.9,0,0,1,6.4,3.74h0c.06.07.11.15.16.22.19.24.38.48.55.73l.25.41c.12.19.24.39.34.59s.14.28.21.42.2.43.28.65.1.26.15.4.16.47.23.72.07.25.1.37.11.51.15.77.05.24.06.36a7.56,7.56,0,0,1,.07.82c0,.11,0,.23,0,.35,0,.28,0,.57,0,.85,0,.11,0,.21,0,.32a11.5,11.5,0,0,1-.15,1.16,9.64,9.64,0,0,1-.27,1.09,3.38,3.38,0,0,1-.11.34c-.08.24-.17.48-.26.72s-.11.24-.16.37-.22.44-.33.66l-.18.33c-.18.3-.37.6-.57.89l-.15.18c-.17.23-.35.46-.54.67s-.18.19-.26.28-.35.36-.54.53l-.26.24c-.25.21-.51.42-.78.62l-.08,0a9,9,0,0,1-1,.62,11,11,0,0,1-5.36,1.4h0A10.94,10.94,0,0,1,158.54,73.29Zm16-37.2a5.71,5.71,0,0,1-4.7,8.92h0a5.7,5.7,0,1,1,4.7-8.92Zm-7.42,15.7,3.32-5.36a7.24,7.24,0,0,0,2.1-.5l-4.17,6.73A13.3,13.3,0,0,0,167.11,51.79Zm-1.89-7L161.88,50c-.27,0-.54,0-.81-.05l3.61-5.69A6.51,6.51,0,0,0,165.22,44.79Zm.9.64a7,7,0,0,0,.86.44l-2.87,4.58c-.34-.1-.69-.18-1-.25Zm1.93.82a6.41,6.41,0,0,0,1.08.18l-3,4.82c-.31-.15-.63-.3-1-.43Zm-4.15-2.9,0,0L159.76,50c-.36,0-.7.06-1,.11,1.52-2.44,3.1-5,4.7-7.6A9.09,9.09,0,0,0,163.9,43.35Zm30.83-15.26a11,11,0,0,1,7.1,19.49l0,0a8.81,8.81,0,0,1-.94.7l-.1.07c-.32.2-.64.39-1,.56h0a11.12,11.12,0,0,1-4.56,1.2h-.13c-.33,0-.66,0-1,0h-.21A11.14,11.14,0,0,1,192.7,50a10.56,10.56,0,0,1-1.14-.29l-.3-.1c-.27-.09-.54-.18-.8-.29l-.32-.15c-.25-.11-.49-.23-.73-.36l-.31-.19a6.9,6.9,0,0,1-.67-.43l-.31-.22c-.2-.15-.4-.32-.59-.48l-.31-.28c-.18-.16-.35-.34-.52-.52s-.2-.21-.29-.32-.31-.38-.46-.58-.18-.22-.26-.34c-.19-.28-.38-.57-.55-.87l-.07-.12,0,0a11,11,0,0,1,9.68-16.3Zm23.15,14.58a5.7,5.7,0,1,1,0,11.4h0a5.69,5.69,0,0,1-4.71-2.49,5.61,5.61,0,0,1-.89-4.27,5.68,5.68,0,0,1,5.59-4.64ZM215.58,61c-.39.08-.77.18-1.14.29l3.59-5.8a8.33,8.33,0,0,0,1.12-.11l-3.24,5.11ZM207.2,79.46l.06.11c-1-.72-2.41-1.65-3.81-2.59.26-.46.49-.93.71-1.42l1.82.91.09.29c0,.15.08.29.13.44s.18.51.28.76.1.26.16.39.23.49.36.73S207.13,79.33,207.2,79.46ZM196.32,95.18a11.56,11.56,0,0,0-.25-1.43l2.06-3.24c.49-.2,1-.41,1.46-.63Zm-4-7.85c-.12-.1-.23-.21-.36-.31s-.44-.35-.66-.52l-.33-.23-.13-.1c0-.58-.07-1.17-.11-1.78h0c.51,0,1,0,1.53-.09.25,1.29.5,2.57.71,3.68l-.13-.12C192.65,87.68,192.46,87.51,192.27,87.33Zm-2.43-1.72c-.28-.15-.56-.28-.85-.41l-.3-.14-.22-.08c0-.26,0-.51.05-.76.52.07,1,.12,1.54.14,0,.49.07,1,.09,1.43h0Zm-2.37-1c-.37-.11-.76-.2-1.15-.28l.12-.6a11.86,11.86,0,0,0,1.48.37c0,.22,0,.43,0,.65l-.11,0Zm-5.14-.41-.53.07-.3,0L182.66,82c.41.27.83.51,1.26.74l-.48,1.4-.61,0Zm-2.52.58c-.21.07-.42.16-.63.24l-.33.14-.59.28a3.9,3.9,0,0,0-.35.19l-.27.14c.93-1.35,2.2-3.24,3.4-5,.35.31.73.6,1.11.88-.48,1-1,2-1.42,2.88l-.58.17Zm-9.35-4.08c1.39-.85,4.35-2.82,6.92-4.54.15.22.32.43.48.64s.17.29.25.43c-2.31,2-5,4.35-6.2,5.35C171.4,82,170.91,81.37,170.46,80.72Zm-.54-10,.3-.36c.2-.24.39-.48.57-.73l.21-.32,3.82-.25c0,.43.09.86.17,1.28-2.26.46-4.26.85-5.79,1.13l.06-.06Q169.61,71.11,169.92,70.75Zm1.49-14.53-.09-.18c2,1.38,4,2.75,5.75,4-.23.36-.45.74-.65,1.12l-3.78-2c-.06-.23-.13-.47-.21-.7s-.11-.31-.17-.46-.18-.46-.28-.69l-.25-.52C171.63,56.61,171.52,56.42,171.41,56.22Zm10.88-16.11c0,.38.08.77.14,1.15l-2.68,4.28c-.49.21-1,.43-1.42.67Zm4.08,8.29.36.32.66.51.34.24.19.14c.06,1.25.11,2.5.16,3.75-.43,0-.86.09-1.28.17-.3-1.75-.63-3.68-1-5.69l0,0C186,48.05,186.18,48.23,186.37,48.4Zm3.28,2.13.31.15.26.09L190,53.34l-.67,0-.62,0c0-1.12-.09-2.24-.14-3.35l.26.15C189.08,50.27,189.37,50.4,189.65,50.53Zm1.52.58a12.09,12.09,0,0,0,1.19.28c-.16.72-.32,1.44-.49,2.15a10.93,10.93,0,0,0-1.28-.17c.08-.8.15-1.59.22-2.39l.07,0Zm7.65-.17.68-.26.28-.11.64-.31.29-.15.44-.25c-1.34,2-2.69,3.92-4,5.74-.37-.23-.74-.45-1.12-.65q1-1.87,1.95-3.75l.53-.17Zm9.38,4.11c-2.34,1.58-4.69,3.08-6.93,4.48l-.09-.09c-.23-.32-.46-.63-.7-.93,2-1.68,4.16-3.47,6.28-5.35A22.4,22.4,0,0,1,208.2,55.05Zm-1.53,13.13c-.07.15-.14.3-.2.46a.59.59,0,0,0,0,.08l-1.09-.08a14.2,14.2,0,0,0-.18-1.46l2.06-.09c-.09.15-.17.3-.25.46S206.76,68,206.67,68.18Zm-.6,1.6a10.74,10.74,0,0,0-.27,1.12l-.47-.1c0-.52.06-1,0-1.54l.84.06a.25.25,0,0,1,0,.07C206.16,69.52,206.11,69.65,206.07,69.78ZM193.75,88.92c-.23-1.28-.56-3-.9-4.69.53-.08,1.05-.18,1.56-.31.79,2.34,1.52,4.54,1.86,5.68a16.52,16.52,0,0,1-1.7.49l-.16-.23-.18-.3-.22-.29C193.92,89.16,193.84,89,193.75,88.92Zm-8-4.66a12.65,12.65,0,0,0-1.63-.14l.39-1.12a12.68,12.68,0,0,0,1.37.56C185.81,83.8,185.76,84,185.72,84.26ZM168,72.49l.26-.19c2.11-.38,5.19-1,6.83-1.33.09.43.19.84.32,1.26-2.93,1-6.31,2.13-7.83,2.59a17.28,17.28,0,0,1-.49-1.7l.16-.12Q167.65,72.76,168,72.49Zm25-21a14.73,14.73,0,0,0,1.62.13L193.72,54c-.41-.13-.83-.24-1.25-.33C192.64,52.94,192.8,52.21,193,51.49Zm2.28.12c.19,0,.38,0,.56,0l.54-.06.49-.07.38-.07-1.73,3.31c-.39-.18-.79-.34-1.19-.49C194.62,53.34,194.94,52.47,195.25,51.61Zm14.44,6c-2.46,1.23-4.93,2.39-7.15,3.4-.27-.36-.55-.7-.85-1,2.21-1.38,4.52-2.86,6.83-4.42A19.87,19.87,0,0,1,209.69,57.63Zm-4.08,14.64c0,.12,0,.25,0,.38s0,.3,0,.45l-.56-.19c0-.16.08-.32.11-.48.06-.34.11-.68.15-1l.43.09C205.67,71.76,205.63,72,205.61,72.27ZM167.78,75.4c1.56-.47,4.94-1.6,7.86-2.6.14.4.31.8.49,1.19-2.77,1.38-6,3-7.44,3.6A21,21,0,0,1,167.78,75.4ZM172.57,66a10.2,10.2,0,0,0,.27-1.09l2.16.42c-.08.44-.14.87-.18,1.31l-2.39-.22,0,0C172.49,66.21,172.54,66.09,172.57,66Zm2.56-1.26-2.2-.44c0-.26.09-.52.11-.78,0-.1,0-.2,0-.3s0-.39,0-.59l2.39.88A12.35,12.35,0,0,0,175.13,64.7Zm.52-1.81-2.58-1a.22.22,0,0,1,0-.08c0-.31,0-.62-.07-.94,0-.12,0-.23-.06-.36s-.05-.39-.09-.59l3.3,1.73C176,62.08,175.8,62.48,175.65,62.89Zm-4,5.31c.11-.21.22-.43.31-.65s.13-.3.19-.45l.06-.12,2.56.23c0,.42,0,.85,0,1.27l-3.39.22,0-.06ZM169,78.14c1.48-.67,4.67-2.23,7.43-3.59a12.27,12.27,0,0,0,.64,1.11c-2.56,1.72-5.54,3.7-6.9,4.54A22.19,22.19,0,0,1,169,78.14Zm27.48,13-.8,1.26c-.12-.32-.24-.62-.38-.93C195.67,91.33,196.06,91.22,196.45,91.1Zm.4-1.69c-.34-1.16-1.07-3.35-1.85-5.67a13.47,13.47,0,0,0,1.5-.55c1.05,2.14,2.05,4.22,2.54,5.31A21,21,0,0,1,196.85,89.41Zm8-15.9.7.23c0,.12,0,.24,0,.36s0,.47.06.69.07.46.11.69a2.07,2.07,0,0,0,0,.22L204.4,75C204.58,74.51,204.74,74,204.88,73.51Zm-2-12c2.2-1,4.64-2.15,7.08-3.36a23.45,23.45,0,0,1,.91,2.19c-2.5.86-5,1.66-7.27,2.36C203.39,62.32,203.15,61.93,202.89,61.54Zm13.9-6.09-3.94,6.34c-.17-.66-.37-1.3-.59-1.93l3-4.83A7.3,7.3,0,0,0,216.79,55.45Zm-5,3.11c-.16-.38-.33-.76-.5-1.13L213.42,54a7.76,7.76,0,0,0,.84.57Zm-1.09-2.28c-.16-.3-.33-.59-.5-.88L212,52.51a6.25,6.25,0,0,0,.56.69Zm.75-4.83-1.9,2.93-.51-.73,2-3.18A7.4,7.4,0,0,0,211.42,51.45ZM181.51,55.6c-1.34-2.13-2.87-4.53-4.49-6.93a22.19,22.19,0,0,1,2.06-1.17c1.3,2.58,2.5,5.17,3.55,7.45A11.27,11.27,0,0,0,181.51,55.6ZM183.21,44l-.3.48c-.49.13-1,.28-1.45.45l1.32-2.11C182.91,43.17,183.05,43.56,183.21,44Zm0,10.72c-1-2.28-2.25-4.86-3.54-7.45.72-.34,1.44-.64,2.19-.91,1,2.74,1.81,5.46,2.55,7.87A12.57,12.57,0,0,0,183.17,54.67ZM185,54c-.74-2.41-1.6-5.13-2.55-7.87.56-.17,1.11-.34,1.68-.48l.16.24a2.82,2.82,0,0,0,.18.29l.22.29c.11.16.22.31.34.46.47,2.37.87,4.68,1.22,6.74C185.78,53.75,185.36,53.86,185,54Zm-8.45-5c1.62,2.4,3.16,4.81,4.49,6.94-.35.24-.69.51-1,.78-1.6-1.93-3.43-4.11-5.36-6.28Q175.52,49.67,176.5,49Zm-2.34,1.85c1.92,2.17,3.75,4.35,5.35,6.29-.31.29-.62.59-.91.91-1.84-1.72-3.94-3.64-6.13-5.54C173,51.92,173.57,51.37,174.16,50.84Zm15.15,3.94a12.6,12.6,0,0,1,2.44.23,13,13,0,0,1,8.38,5.48,12.53,12.53,0,0,1,1.17,2.12l.72,2.1a13.1,13.1,0,0,1,.18,5.51c-1.42-4-2.84-7.93-4.22-11.85a.56.56,0,0,0-.71-.34.55.55,0,0,0-.33.71q2.34,6.63,4.76,13.36a13.59,13.59,0,0,1-.77,1.79c-1.05-3-2.09-6-3.13-8.89l-2.92-8.29a.55.55,0,0,0-.71-.33.53.53,0,0,0-.33.7l2.92,8.29q1.71,4.81,3.44,9.76a13.06,13.06,0,0,1-1,1.32l-1.87-5.18a.55.55,0,0,0-.71-.33.54.54,0,0,0-.33.7l2.06,5.7c-.27.25-.54.49-.82.72l-1.68-4.9a.55.55,0,1,0-1,.35l1.78,5.23a9.13,9.13,0,0,1-.84.53l-1.59-4.74a.55.55,0,1,0-1,.35l1.63,4.9a12.16,12.16,0,0,1-1.35.52l-1.65-4.61a.55.55,0,0,0-.7-.34.56.56,0,0,0-.34.71l1.63,4.54c-.44.1-.89.18-1.34.24L189.31,76a.55.55,0,0,0-.7-.34.56.56,0,0,0-.34.71l1.6,4.54-.53,0c-.32,0-.63,0-.94,0l-2.2-6.07a.55.55,0,1,0-1,.37l2,5.55-.27,0q-.45-.09-.87-.21l-6.24-18.27a.55.55,0,1,0-1,.35l6,17.51a12.1,12.1,0,0,1-1.17-.5c-1.1-3.3-2.2-6.58-3.3-9.79-.52-1.53-1.1-3.22-1.73-5a.56.56,0,0,0-1.05.37c.64,1.81,1.22,3.49,1.74,5l2.91,8.63c-.33-.22-.65-.45-1-.7-.38-1-.81-2.07-1.27-3.18-.66-1.58-1.33-3.22-1.85-4.76a.55.55,0,0,0-1,.34c.52,1.59,1.21,3.24,1.87,4.85l.33.8q-.36-.44-.69-.9a13.09,13.09,0,0,1,10.8-20.47Zm-23,20.92-3.17,4.92a6.92,6.92,0,0,0-1.21-.31l3.88-6.26C166,74.6,166.14,75.15,166.32,75.7Zm.49,1.28c.11.29.23.57.36.85l-2.32,3.65a6.68,6.68,0,0,0-.67-.41Zm.93,2c.14.28.29.56.45.83l-1.87,3a7.83,7.83,0,0,0-.61-.67ZM167,83.86l1.82-3c.22.35.46.7.7,1l-2,3.15A7.56,7.56,0,0,0,167,83.86Zm32.58,4.36c-.5-1.1-1.49-3.16-2.53-5.28a14.7,14.7,0,0,0,1.4-.78c1.34,2,2.57,3.88,3.19,4.89A19.87,19.87,0,0,1,199.59,88.22Zm2.58-1.49c-.62-1-1.86-2.9-3.19-4.9a15,15,0,0,0,1.28-1c1.6,1.83,3.06,3.53,3.8,4.43C203.45,85.79,202.83,86.28,202.17,86.73Zm2.34-1.86c-.77-.94-2.25-2.66-3.8-4.43.39-.37.77-.75,1.12-1.15,1.82,1.6,3.51,3.11,4.37,3.92A22.06,22.06,0,0,1,204.51,84.87Zm3.85-19.44c-.17.21-.34.42-.5.64l-.26.39-2.57.11a13.74,13.74,0,0,0-.37-1.4c1.48-.25,3.07-.53,4.69-.84-.19.18-.37.38-.55.58S208.5,65.25,208.36,65.43Zm2.3-2.2-.37.28h0c-2,.4-4,.75-5.82,1.07-.17-.45-.35-.88-.56-1.31,2.25-.69,4.72-1.48,7.18-2.33.18.55.34,1.11.48,1.67l-.21.14ZM210.84,47a7,7,0,0,0-.1,1.83l-2.44,3.84c-.2-.24-.4-.49-.61-.73l3.22-5.21C210.89,46.86,210.86,47,210.84,47Zm-10.78,11c-.29-.32-.59-.63-.91-.92,1.73-1.85,3.66-4,5.54-6.13.58.54,1.14,1.1,1.66,1.69C204.23,54.59,202.09,56.38,200.06,58.06Zm-1.36-1.32c-.33-.28-.68-.54-1-.79,1.53-2.15,3.13-4.44,4.7-6.82a22,22,0,0,1,1.87,1.47C202.36,52.76,200.42,54.88,198.7,56.74Zm6-25.09.13-.2,1.31.56-.58.94A13.91,13.91,0,0,0,204.74,31.65Zm-22.28,5.16a11.05,11.05,0,0,0-.17,1.27l-6.06,9.33c-.6.39-1.18.8-1.75,1.24,3-4.7,5.72-9,8.29-13.1A12.87,12.87,0,0,0,182.46,36.81ZM172.05,53c2.19,1.9,4.29,3.83,6.14,5.54-.28.33-.54.67-.79,1-2.05-1.46-4.39-3.1-6.82-4.7C171,54.17,171.53,53.55,172.05,53Zm-7.73,21.42-3.61,5.83a7.09,7.09,0,0,0-1.45.17c1.18-1.88,2.36-3.75,3.52-5.61A13.89,13.89,0,0,0,164.32,74.37Zm3.49,14.32a7.14,7.14,0,0,0,.08-2.06l2.35-3.74c.25.31.5.62.77.93l-3.32,5.34C167.73,89,167.78,88.85,167.81,88.69Zm4.51-5.63c1.24-1,3.84-3.28,6.12-5.28.24.37.51.73.79,1.08-2,2.26-4.19,4.77-5.25,5.88A21.93,21.93,0,0,1,172.32,83.06Zm7.3-3.72c.31.35.63.68,1,1-1.63,2.44-3.42,5.09-4.28,6.29-.65-.46-1.27-.95-1.87-1.47C175.49,84,177.67,81.58,179.62,79.34Zm-4.42,8.3a12.15,12.15,0,0,0-1.45,1.67c.39-.62.78-1.24,1.18-1.86Zm21,11.29a12.71,12.71,0,0,0,.19-1.73l5.13-8.33a24,24,0,0,0,2.27-1.49q-3.87,6.18-7.8,12.42Q196.1,99.38,196.19,98.93Zm10.43-16.17c-.88-.83-2.58-2.35-4.41-4a13.38,13.38,0,0,0,.92-1.31c2,1.36,4,2.69,5,3.39C207.63,81.54,207.13,82.16,206.62,82.76Zm11.26-22-.86,0,3.76-5.91a8.08,8.08,0,0,0,1.15-.63l.21-.16Zm1.4-19.44.09-.13.16.18Zm-1.22-.14h-.18a7.28,7.28,0,0,0-1,.08c.33-.52.66-1.05,1-1.57l.73.71Zm-2.8.51a7.34,7.34,0,0,0-1.42.73c-.18.12-.35.26-.51.39l.68-1.11,2.17-3.51c.28.24.57.46.84.71Zm-2.19-.57c-2,3.34-4.12,6.7-6.15,10-.36-.38-.73-.75-1.11-1.1,2.71-4.38,5.55-9,8.36-13.41.39.29.77.58,1.15.89ZM205,49.29q-.39-.33-.78-.63,4.23-6.75,8.32-13.22c.26.17.5.36.75.53C210.49,40.4,207.67,44.94,205,49.29Zm1.81-6.83c.09-.33.18-.67.24-1s.08-.53.11-.8l3.3-5.08.63-1,.52.32ZM209.5,35l-2.28,3.53a13.81,13.81,0,0,0-.18-1.59l2.16-3.44c.31.17.62.32.92.49Zm-2.82.45a12.34,12.34,0,0,0-.5-1.32l1-1.64,1,.5Zm-20.33-5.55.69-1.08c.26,0,.52-.05.78-.06A12.54,12.54,0,0,0,186.35,29.87Zm-15,21.66a22.56,22.56,0,0,0-1.79,2.22l-.35-.35c1.74-2.8,3.57-5.76,5.44-8.79a7,7,0,0,0,2.09-3.39l7.47-12.11,1.45-.2C181.41,35.65,176.77,43,171.34,51.53ZM177,38.74a7.34,7.34,0,0,0-.48-2.07c1.45-2.34,2.9-4.64,4.32-6.91.65-.16,1.3-.31,2-.43Zm-1.07-3.22-.15-.26c-.14-.2-.29-.38-.44-.56.87-1.39,1.74-2.78,2.61-4.15.44-.14.89-.26,1.33-.38C178.14,31.93,177,33.72,175.9,35.52Zm-1.39-1.63a6.9,6.9,0,0,0-.68-.53l1.09-1.71c.44-.18.88-.36,1.33-.52Zm-1.65-1.07-.29-.13.54-.26Zm-10.2,6.64a7.4,7.4,0,0,0,.26,1.74l-5.7,9.2a12.67,12.67,0,0,0-2.39,1L159.4,44c.73-1.16,1.44-2.31,2.16-3.47C161.92,40.16,162.29,39.81,162.66,39.46ZM149.75,68.68l.13.2-.13.21Zm.8,1.21c.26.34.52.67.81,1L150,73.11c-.07-.67-.12-1.34-.16-2Zm1.61,1.78c.27.25.55.49.85.72l-2.56,4.13c-.11-.55-.2-1.11-.28-1.67ZM153.91,73a12.66,12.66,0,0,0,1.14.63l-3.87,6c-.15-.52-.28-1-.4-1.57Zm2.16,1.08c.25.1.49.18.74.26l-4.9,7.7c-.11-.33-.22-.67-.32-1Zm1.86.55.33.08.48.07-6,9.54-.39-1Zm2,.27c.21,0,.42,0,.63,0h0c.27,0,.53,0,.79,0l-3.77,6a8.85,8.85,0,0,0-.89.51,7.15,7.15,0,0,0-3,4.6,3.11,3.11,0,0,0,0,.32c-.13-.26-.25-.53-.37-.79Zm-.72,19.44-.23.37-.46-.56A5.91,5.91,0,0,0,159.24,94.36Zm1.2.16.33,0h0a6.82,6.82,0,0,0,.9-.07l-1.21,1.92c-.24-.25-.47-.51-.7-.77Zm2.77-.43a7.41,7.41,0,0,0,1.59-.8,8.11,8.11,0,0,0,.65-.51l-3.32,5.34-.89-.9Zm8.57-9.43c.27.29.54.56.82.83-2.79,4.33-5.58,8.67-8.3,13l-.67,1-.68-.61Q167.38,91.79,171.78,84.66ZM165.23,99c2.69-4.23,5.44-8.51,8.2-12.79l.62.54q-4.45,7-8.88,14l-.69-.56Zm7.82-8.62a12.55,12.55,0,0,0-1.43,3.88.13.13,0,0,0,0,.06L166.82,102l-.77-.56Zm-1.65,6.36a11,11,0,0,0,.18,1.9l-2.88,4.58c-.33-.2-.65-.42-1-.63Zm.52,3.43a13.61,13.61,0,0,0,.55,1.46l-1.74,2.78-1.09-.62Zm1.13,2.61c.16.28.33.56.51.83l-1.08,1.7-.77-.38C172.15,104.24,172.6,103.53,173.05,102.81Zm1.22,1.77c.2.24.41.46.62.68l-.58.91-.82-.35ZM175.7,106c.25.21.5.42.76.61l-.18.29-.93-.34Zm1.68,1.23.21.13-.24-.08Zm7.67,1.79h0Zm1.45-.23a12.91,12.91,0,0,0,1.72-.48l-.6,1-1.36-.1Zm3.52-1.32a11.94,11.94,0,0,0,2-1.39c-.68,1.1-1.37,2.19-2.06,3.28l-1.08,0Zm16.59-22.57a23.41,23.41,0,0,0,2.49-3l.41.39L204.2,91a7.17,7.17,0,0,0-2.33,3.76q-4.53,7.32-9.08,14.6l-1.53.07C196.4,101.22,201.57,93,206.61,84.94ZM201.69,97.1a6.44,6.44,0,0,0,.28,1.44l-4,6.25c-.91,1.44-1.81,2.86-2.72,4.28l-1.09.13Q197.93,103.17,201.69,97.1Zm-2.79,8.28,3.59-5.6a6,6,0,0,0,.41.69l.09.12-5.11,8.06-1.18.21Zm4.84-3.91a7.91,7.91,0,0,0,.81.71L201,107.9c-.54.16-1.08.3-1.63.42Zm1.74,1.3a7.21,7.21,0,0,0,.94.41l-2.36,3.75c-.48.17-1,.34-1.45.49Zm2.06.7a6.88,6.88,0,0,0,1.29.13h.07l-1.06,1.7c-.67.33-1.35.64-2,.94Zm2.76,0a7.32,7.32,0,0,0,1.42-.45,2.33,2.33,0,0,0-.17.26c-.59.37-1.19.72-1.79,1.05Zm19.53-41.65-2.21,3.46c-.15-.18-.32-.36-.49-.53l2.51-3.95C229.71,61.1,229.77,61.44,229.83,61.78Zm-3.51,2.15a8,8,0,0,0-.63-.53L229,58.1c.11.38.22.76.32,1.14Zm-1.53-1.17a13.21,13.21,0,0,0-1.34-.74l4.46-7.18c.23.61.44,1.23.64,1.85C227.27,58.77,226,60.8,224.79,62.76Zm-2.36-1.17c-.34-.13-.67-.24-1-.34l5.51-8.79c.17.36.33.73.49,1.1Zm-2.16-.6a9.89,9.89,0,0,0-1.11-.15l6.73-10.52c.16.31.32.64.47,1Q223.34,56.08,220.27,61Zm-9-31.57,7.05,1.29,9.82,1.81c.29.31.56.63.84.95L213.24,30.6C212.59,30.19,211.94,29.8,211.28,29.42ZM161.11,102l.06,0c.34.28.68.54,1,.81-3.8-.73-7.6-1.47-11.35-2.18l-2.48-.47a.29.29,0,0,0-.32.14c-.21-.26-.43-.52-.63-.79l13.5,2.49A.26.26,0,0,0,161.11,102ZM149,101.54c-.2-.24-.39-.49-.58-.74l2.29.44,11.85,2.28h.06a.3.3,0,0,0,.25-.17c.41.31.84.61,1.27.9l-14.86-2.82A.32.32,0,0,0,149,101.54ZM223.4,39.63c-.27-.33-.55-.65-.83-1l11.77,2.18c.17.29.34.58.5.87l-10.48-1.9a.28.28,0,0,0-.31.13.32.32,0,0,0-.25-.24Zm-.78-1.58h-.12a.28.28,0,0,0-.12,0l-.46-.09-.79-.83c4.17.77,8.28,1.52,12.28,2.27.17.26.34.52.5.78Q228.38,39.11,222.62,38.05Zm-2.22-1.71c-.23-.23-.46-.44-.7-.66l12.87,2.4.38.57Zm-1.53-1.44c-.25-.23-.5-.44-.76-.66l13.56,2.6.38.52Zm-1.71-1.47-.66-.51,14.25,2.69.39.5Zm-1.74-1.34c-.3-.22-.6-.42-.91-.63l15.13,2.76c.18.21.35.44.53.66Zm-10.57-5.67a44.64,44.64,0,0,0-5.56-1.67l1.65.31,24.63,4.82.53.5C219.18,29.08,212.07,27.76,204.85,26.42Zm-8.08,93.47-19.57-3.75-13.58-2.47c-.43-.24-.86-.47-1.28-.72l14.17,2.7,21.36,4.06Zm-20.14-4.84-15.71-3q-.48-.3-1-.63l6.27,1.22,15.43,3c5.29,1,12.44,2.32,19.11,3.54l-1.22.25Zm16.08,5.25L180,117.94l-12.64-2.34q-1-.48-2-1l11.72,2.13,17.69,3.39C194.09,120.2,193.4,120.25,192.71,120.3Zm9.52-1.49c-7-1.29-14.81-2.71-20.46-3.79l-15.43-3-7.61-1.48-1-.75,10,1.84c6.91,1.27,13.79,2.52,20.57,3.78l13,2.38,2.72.5C203.44,118.49,202.83,118.65,202.23,118.81Zm3.1-.88-3.91-.72-13-2.38c-6.78-1.26-13.66-2.52-20.57-3.78l-11.21-2-1.17-1,11.18,2.16c5.21,1,10.4,2,15.45,3,6.4,1.22,15.61,2.91,24.09,4.45Zm36.17-64a54.29,54.29,0,0,0-2.75-7.77l1.61-.24L240,48a.31.31,0,0,0,.24.36h.06a.31.31,0,0,0,.3-.25l.42-2.26,1.72-.26q-.6,3.41-1.22,6.86a.31.31,0,0,0,.25.36h.05a.29.29,0,0,0,.3-.25c.42-2.37.84-4.73,1.26-7.06l2.33-.34-1.24,7.07Zm6.09-3.55.37-2,.53,1.51Zm-.05-3.21-.64,3.62-1.76,1,1.19-6.77.44-.06Zm-11.45-6.24a53.6,53.6,0,0,0-4.65-6.82l1.64-.71-.3,1.62a.31.31,0,0,0,.24.36h.06a.32.32,0,0,0,.3-.25l.38-2,2.36-1L235,38.3a.3.3,0,0,0,.25.35h.05a.31.31,0,0,0,.3-.25l1.15-6.59,2.06-.89q-.82,4.45-1.66,8.91Zm4.52-4.55.45-2.32.75,1.1Zm0-3-.74,3.82L238,39.06c.46-2.5.93-5,1.39-7.49Zm-10.39-8.23c.2-1,.4-2.06.61-3.08l.77.66Zm-2.54-5.79.65.56-1.59,8.3a.31.31,0,0,0,.24.36H227a.31.31,0,0,0,.3-.25q.76-4.05,1.53-7.95l1.42,1.23q-.51,2.57-1,5.2l-1.69,3a55.34,55.34,0,0,0-6.24-5.39l2.08-1.65L223,25a.3.3,0,0,0,.24.35h.06a.32.32,0,0,0,.3-.25l.54-2.94L226,20.6l-1.16,5.93a.31.31,0,0,0,.24.36h.06a.3.3,0,0,0,.3-.25L226.77,20Zm-10.5-1.1c.32-1.78.63-3.47.93-5.1l.36.18Zm-2-6.49-.42,2.13c-.34,1.69-.69,3.41-1,5.15a.3.3,0,0,0,.24.36H214a.31.31,0,0,0,.3-.25c.34-1.74.69-3.46,1-5.15l.39-2,1.74.84c-.43,2.33-.88,4.83-1.35,7.46a.31.31,0,0,0,.24.36h.11l-.12.46a53.49,53.49,0,0,0-7.43-3.57l.9-1.21-.16.83a.31.31,0,0,0,.24.36H210a.3.3,0,0,0,.3-.24l.41-2.09,2-2.74c-.36,1.82-.73,3.67-1.09,5.55a.31.31,0,0,0,.24.36h.06a.31.31,0,0,0,.3-.25q.67-3.48,1.34-6.82l.19-.26ZM199.77,7l-1.36,7a.31.31,0,0,0,.24.36h.06a.3.3,0,0,0,.3-.25l1.36-7,1.47.27q-.69,3.44-1.38,7a.3.3,0,0,0,.24.36h.06a.31.31,0,0,0,.3-.25q.69-3.57,1.38-7l.88.16v3.8l-.68,3.43a.3.3,0,0,0,.24.36H203a.31.31,0,0,0,.3-.25l.1-.49v1.24c-1.32-.35-2.65-.68-4-.93s-2.71-.45-4.08-.6l1.52-3.83c-.2,1.08-.39,2.16-.59,3.24a.31.31,0,0,0,.25.36h.06a.31.31,0,0,0,.3-.25c.37-2.07.75-4.15,1.12-6.23l.32-.82Zm-17.68-.51,1-.07c-.42,2.26-.86,4.68-1.32,7.23A.31.31,0,0,0,182,14h.05a.29.29,0,0,0,.3-.25c.47-2.61.92-5.08,1.35-7.39l2-.15-1.29,7.15a.3.3,0,0,0,.25.35h0a.3.3,0,0,0,.3-.25c.45-2.44.88-4.87,1.32-7.3l1-.08.39,1.43-1,5.69a.31.31,0,0,0,.25.36h0a.31.31,0,0,0,.3-.25L188,8.86l1,3.46-.16.81a.31.31,0,0,0,.24.36h.06a.3.3,0,0,0,.16-.05l.11.41h-.1a54.33,54.33,0,0,0-8.11.62Zm-9.23,4.89c-.27,1.5-.55,3-.82,4.5a.3.3,0,0,0,.24.35h.06a.3.3,0,0,0,.3-.25c.23-1.27.46-2.53.7-3.8l1.26,2.18-.13.78a.3.3,0,0,0,.25.35h.05a.3.3,0,0,0,.3-.26v-.06l.31.52a54.61,54.61,0,0,0-7.77,2.74l-.32-2.16c.43-2.23.87-4.43,1.3-6.59l2.13-.75c-.45,2.51-.92,5.15-1.4,7.9a.29.29,0,0,0,.25.35h0a.32.32,0,0,0,.3-.25c.5-2.83,1-5.55,1.45-8.13ZM167.92,9.9c-.29,1.49-.59,3-.89,4.53l-.59-4ZM152.83,18l1.88-1.28-.3,1.55c-.21,1.11-.42,2.24-.62,3.37L152.64,19Zm1.39,4.65c.27-1.43.53-2.86.79-4.27.14-.72.28-1.43.41-2.15l1.21-.82.93.92-1.37,7.8a.31.31,0,0,0,.25.35h.06a.32.32,0,0,0,.3-.26l1.29-7.37,1.6,1.58L159,22.13a.3.3,0,0,0,.24.35h.06a.31.31,0,0,0,.3-.25c.21-1.1.41-2.2.61-3.3l1.3,1.28-.08.39a.31.31,0,0,0,.25.36h0a.31.31,0,0,0,.3-.24l.33.32a54.51,54.51,0,0,0-6.8,4.66Zm-10.17,3.13L144,26c-.36,2.08-.73,4.15-1.09,6.21L141,29.89l.15-.81Zm-9.29,13,1.63.43q-.57,3.11-1.14,6.26l-1.58-1.18,1.05-5.43Zm2.22.58,1.68.45c-.43,2.4-.86,4.82-1.29,7.23l-1.57-1.16C136.19,43.67,136.59,41.5,137,39.34ZM133.67,41l-.55,2.85-.6-.45Zm4.24,6.41c.46-2.5.9-5,1.35-7.49l2.2.58-.08.45a.3.3,0,0,0,.24.35h.06a.32.32,0,0,0,.3-.26l.07-.39.53.14A53.92,53.92,0,0,0,139,48.24Zm-7.85,12.3-1.29-.52,1-5.34h1.38l-.9,4.62Zm.82-1.14.92-4.73h1.92l-1.24,6.83L130.65,60Zm-1.79-4.72h.09l-1,5.11-.06,0Zm4,7,1.28-7.06h1.8l-.07.35a.31.31,0,0,0,.25.36h.05a.3.3,0,0,0,.3-.26l.09-.46h.42q-.54,2-.93,4c-.26,1.36-.44,2.72-.59,4.08Zm2.26,6.9a54.58,54.58,0,0,0,.62,8.22l-.66-.08.15-.72a.32.32,0,0,0-.24-.36.31.31,0,0,0-.36.24l-.16.77-1.79-.2,1.34-7.57Zm-3.71,1,2-.53-1.3,7.32-1.87-.22Q131,72.09,131.61,68.82Zm-1.82,6.5L128,75.11l1-5.57,2-.54C130.57,71.1,130.18,73.2,129.79,75.32Zm-1.47-5.6L127.75,73l-.23-3.06Zm8.83,12.07a54,54,0,0,0,2.74,7.78l-.45.06-.1,0a.29.29,0,0,0-.28.1l-2,.3.81-4.45a.31.31,0,0,0-.25-.36.3.3,0,0,0-.35.25l-.85,4.65-1.72.25,1.53-8Zm-3.1,8.64-1.65.24.47-2.43.87-4.46,1.78-1Zm-3.58-4.75-.13.71-.18-.52Zm.29,1.89.41-2.29L133,84.19c-.25,1.31-.51,2.63-.76,3.94l-.47,2.42Zm9.5,9.54q-.62,3.35-1.24,6.66l-1.59-2.33.35-1.83ZM137,100.39l-.07.34-.11-.17Zm2.74,4.45-.24-.35q.77-4.06,1.52-8.16l1.52-1.53a54.28,54.28,0,0,0,4.66,6.81l-.39.17a.25.25,0,0,0-.17-.11.29.29,0,0,0-.36.24l0,.11-2,.89.67-3.58a.32.32,0,0,0-.25-.36.31.31,0,0,0-.35.25l-.75,4-1.76.75c.46-2.41.91-4.82,1.37-7.25a.31.31,0,0,0-.6-.12c-.49,2.57-1,5.12-1.45,7.67Zm10.43,2.79c-.44,2.32-.89,4.62-1.34,6.92l-1.71-1.48,0-.17Zm1.18,8.5,1.47-7.76a.31.31,0,0,0-.25-.36.32.32,0,0,0-.36.25c-.49,2.64-1,5.27-1.49,7.91L149.38,115q.81-4.17,1.61-8.39a.32.32,0,0,0-.08-.27l.2-.35a53.64,53.64,0,0,0,6.24,5.39l-.56.43,0-.15a.3.3,0,0,0-.24-.35.31.31,0,0,0-.36.25l-.15.83L154,114c.24-1.32.49-2.65.73-4a.29.29,0,0,0-.24-.35.31.31,0,0,0-.36.24c-.29,1.56-.57,3.12-.86,4.67Zm13.52,8.54-.86-.41c.44-2.44.89-4.89,1.34-7.33a.31.31,0,1,0-.61-.11q-.66,3.59-1.3,7.16l-1.56-.75,1.41-7.37a.31.31,0,0,0-.25-.36.32.32,0,0,0-.36.24q-.67,3.62-1.38,7.22l-1.1-.53,2.06-7.83a53.54,53.54,0,0,0,7.43,3.58l-.26.35a.31.31,0,0,0-.25.24l0,.12-2.39,3.21.76-4.15a.3.3,0,0,0-.24-.35.31.31,0,0,0-.36.24l-1,5.38Zm15.53,4.39-.63-.12,1.32-7a.29.29,0,0,0-.24-.36.31.31,0,0,0-.36.25l-1.33,7-1.87-.35,1.2-6.27.15-.72a.3.3,0,0,0-.24-.36.29.29,0,0,0-.36.24l-1.36,7-1.36-.26v-.74c.39-2.12.77-4.24,1.16-6.37a.31.31,0,0,0-.6-.11l-.57,3.13,0-4c1.32.35,2.66.67,4,.93s2.72.45,4.08.6l-.16.4a.31.31,0,0,0-.18.22l-.1.49Zm9.56-4.61.37-1.84a.3.3,0,0,0-.24-.36.29.29,0,0,0-.36.24l-.13.64-.34-1.25h.11a54.19,54.19,0,0,0,8.1-.63l0,.38a.32.32,0,0,0-.26.25q-.7,3.73-1.42,7.45l-1.64.13q.72-3.57,1.43-7.18a.31.31,0,0,0-.24-.36.3.3,0,0,0-.36.24q-.72,3.7-1.46,7.35l-2,.14,1.35-7.15a.3.3,0,0,0-.25-.35.3.3,0,0,0-.35.24l-1.18,6.21Zm6.42,4.85c.14-.72.28-1.44.41-2.15l-.24,2.13ZM206.7,126l1.35-6.56a.31.31,0,0,0-.24-.36.3.3,0,0,0-.36.24l-1.21,5.89L205,123l.51-2.74a.31.31,0,0,0-.25-.36.3.3,0,0,0-.35.25l-.38,2-1.24-2.13a53.24,53.24,0,0,0,7.76-2.73l.82,5.49c-.19.94-.37,1.88-.55,2.82l-2.14.75c.5-2.64,1-5.31,1.5-8a.31.31,0,0,0-.6-.12l-1.57,8.35-1.16.4Zm5.26-.56c0-.26.1-.51.14-.76l.1.67Zm8.54-6.56,1.26-6.7a.3.3,0,0,0-.25-.35.3.3,0,0,0-.35.24L220,118.33l-1.3-1.29c.2-1.06.4-2.11.59-3.18a.3.3,0,0,0-.24-.35.31.31,0,0,0-.36.24l-.51,2.77-1.86-1.85a54.33,54.33,0,0,0,6.79-4.65l.48,1.1c-.57,3-1.14,6-1.7,9.08Zm4.87-.78.39-1.87.53,1.24Zm0-2.85-.69,3.35L222.51,120c.5-2.63,1-5.26,1.49-7.89Zm9.16-5.11-.41-.24.47-2.45c.28-1.44.56-2.9.85-4.35l1.78,2.25-.38,2.1Zm3.1-3.6.09-.55.18.22Zm-2.69-4.07c-.32,1.62-.64,3.25-1,4.87l-.43,2.24-1.44-.82,1.44-8Zm9-5.46h0L245,91.44l1.18.87Zm2.19-22,1.32.52-1.22,6.34h-1.45c.4-2,.79-4,1.17-5.95Zm2.11,6.85h-1.39L248,75.77l1.28.5-.88,4.49Zm1.38,0h-.75l1-5.36.69.27Zm-4.07-7.07-.2,1q-.58,3-1.19,6.08h-2.63c.35-1.32.67-2.66.93-4s.44-2.72.59-4.08Zm-2.17-6.87a52.27,52.27,0,0,0-.62-8.22l.42,0v0a.29.29,0,0,0,.24.35h.06a.31.31,0,0,0,.3-.25v-.09l1.53.18q-.69,3.89-1.39,7.78Zm6.5-1.76,1-5,.35,4.66Z" transform="translate(11.78 27.73)"/><path class="cls-5" d="M190.63,17.27l5.05.92,16,3.07h0a.3.3,0,0,0,.06-.6l-16-3.07-5-.92a.3.3,0,0,0-.35.25A.3.3,0,0,0,190.63,17.27Z" transform="translate(11.78 27.73)"/><path class="cls-5" d="M198.37,17.72l6.16,1.17h.06a.3.3,0,0,0,.3-.25.31.31,0,0,0-.24-.36l-6.17-1.17a.31.31,0,0,0-.11.6Z" transform="translate(11.78 27.73)"/><path class="cls-5" d="M182.35,67.06a7.22,7.22,0,0,0-.06.92,7.05,7.05,0,0,0,5.73,6.8,7.17,7.17,0,0,0,1.31.12h0a7,7,0,0,0,5.6-2.8A1.47,1.47,0,0,0,195,72l0,0a7.06,7.06,0,0,0,1.18-2.78c0-.15.05-.3.07-.45a7,7,0,0,0-1.79-5.58L192.1,56a.55.55,0,0,0-.7-.34.55.55,0,0,0-.34.7l1.84,5.44a6.1,6.1,0,0,0-1.09-.53L190,55.93a.55.55,0,0,0-.7-.34.55.55,0,0,0-.34.7l1.59,4.65a6.77,6.77,0,0,0-1-.09l-1.64-4.67a.56.56,0,0,0-.71-.33.55.55,0,0,0-.33.7c.54,1.52,1,3,1.53,4.36a7.08,7.08,0,0,0-1.71.46l-1.5-4.25a.56.56,0,0,0-.71-.34.55.55,0,0,0-.33.71l1.55,4.38a7,7,0,0,0-1.06.8l-1.51-4.26a.55.55,0,0,0-1,.36l1.7,4.82a6.72,6.72,0,0,0-.89,1.54l-1.66-4.87a.55.55,0,0,0-1,.35Zm6.81-4.74h.09l.14,0a6.12,6.12,0,0,1,1,.09,5.92,5.92,0,0,1,1,.28l.09,0h0a5.57,5.57,0,0,1,3.45,5.06,5.35,5.35,0,0,1-.09,1.12,5.59,5.59,0,0,1-2.62,3.74l-.07,0-.23.1a5.47,5.47,0,0,1-2.54.64,5.24,5.24,0,0,1-1-.1A5.57,5.57,0,0,1,183.76,68a6.06,6.06,0,0,1,.1-1.12A5.54,5.54,0,0,1,189.16,62.32Z" transform="translate(11.78 27.73)"/><path class="cls-4" d="M137.42,4.59l-4.59-1.72c0-.85-.1-1.69-.2-2.53l4.26-2.49a.62.62,0,0,0,.26-.75.58.58,0,0,0-.52-.47l-4.87-.45a25.06,25.06,0,0,0-.84-2.39l3.49-3.53a.61.61,0,0,0,.06-.79.57.57,0,0,0-.61-.32L129-10a23.76,23.76,0,0,0-1.41-2.08l2.48-4.34a.61.61,0,0,0-.14-.78.58.58,0,0,0-.68-.14l-4.44,2.11c-.61-.58-1.24-1.13-1.89-1.64l1.3-4.84a.62.62,0,0,0-.34-.72.56.56,0,0,0-.68.05l-1.41,1.19-2.36,2c-.61-.34-1.24-.65-1.88-.93l-.36-.15,0-5a.61.61,0,0,0-.51-.6.57.57,0,0,0-.65.22l-2.83,4.11c-.81-.19-1.62-.34-2.44-.45l-1.23-4.86a.57.57,0,0,0-.59-.44H109a.56.56,0,0,0-.57.39l-1.7,4.71c-.83,0-1.65.1-2.47.21l-2.42-4.36a.58.58,0,0,0-.73-.26.59.59,0,0,0-.46.53l-.45,5-.37.12c-.66.22-1.32.46-2,.74l-2.15-2.23-1.28-1.33a.58.58,0,0,0-.77-.06.6.6,0,0,0-.31.63l.83,4.94c-.7.45-1.38.93-2,1.45l-4.23-2.53a.59.59,0,0,0-.76.15.61.61,0,0,0-.14.69l2,4.55c-.57.63-1.11,1.28-1.61,1.94L82.7-13.33a.57.57,0,0,0-.65.26.62.62,0,0,0,0,.79l3.12,3.85c-.39.75-.74,1.52-1.06,2.3l-4.89,0a.58.58,0,0,0-.56.41.61.61,0,0,0,.19.77l4,2.89c-.19.83-.34,1.66-.45,2.5L77.65,1.7a.57.57,0,0,0-.43.55.59.59,0,0,0,.37.69l4.6,1.73a24,24,0,0,0,.2,2.53L78.13,9.69a.59.59,0,0,0-.29.64c.07.3.19.54.54.58l4.88.44c.24.81.51,1.61.83,2.4L80.6,17.28a.59.59,0,0,0-.1.69c.13.27.32.48.66.41L86,17.52c.44.72.91,1.41,1.42,2.09L84.92,24a.66.66,0,0,0,.81.92l4.45-2.11c.61.58,1.24,1.13,1.89,1.64l-1.3,4.84a.61.61,0,0,0,.24.66.59.59,0,0,0,.78,0l1.4-1.2,2.36-2q.93.5,1.89.93l.36.15,0,5a.65.65,0,0,0,1.16.38l2.82-4.1c.81.19,1.62.34,2.44.45l1.24,4.85a.57.57,0,0,0,.53.45h0a.57.57,0,0,0,.63-.39l1.7-4.71c.82,0,1.65-.1,2.47-.21l2.41,4.36a.56.56,0,0,0,.63.28c.29-.06.53-.19.56-.55l.45-5,.37-.12c.67-.22,1.32-.47,2-.74L119.34,30l1.28,1.33a.56.56,0,0,0,.68.11.62.62,0,0,0,.41-.68l-.83-4.94a23.76,23.76,0,0,0,2-1.46l4.22,2.53a.54.54,0,0,0,.68-.07A.6.6,0,0,0,128,26l-2-4.56a24.71,24.71,0,0,0,1.61-1.94l4.72,1.32a.58.58,0,0,0,.7-.34.6.6,0,0,0,0-.7L129.85,16a25.28,25.28,0,0,0,1.06-2.31l4.9,0c.34,0,.5-.23.59-.52a.6.6,0,0,0-.22-.67l-4-2.89c.18-.82.33-1.66.44-2.5l4.75-1.27c.33-.09.42-.35.43-.66A.58.58,0,0,0,137.42,4.59Zm-16.5-13.3a1.83,1.83,0,0,1,.28.46,1.61,1.61,0,0,1-.07,1.34,1.66,1.66,0,0,1-.32.43l-4.08,3.79-.9.84A1.52,1.52,0,0,1,113.66-2a1.62,1.62,0,0,1,.11-2.22l3.18-3,1.8-1.67A1.52,1.52,0,0,1,120.92-8.71ZM99.51-15a19.64,19.64,0,0,1,17.78.86,19.76,19.76,0,0,1,2.63,1.8l-2.85,2.65-7.74,7.2a6.31,6.31,0,0,0-3-.15l-7-7.91-2.58-2.91A19.17,19.17,0,0,1,99.51-15Zm9.56,20.54a2.29,2.29,0,0,1-3.29-.16A2.44,2.44,0,0,1,105.94,2a2.3,2.3,0,0,1,3.3.16A2.44,2.44,0,0,1,109.07,5.54Zm-14-15.06a1.42,1.42,0,0,1,.32-.42,1.51,1.51,0,0,1,2.17.1L99.17-8,102-4.75a1.6,1.6,0,0,1-.11,2.22h0a1.5,1.5,0,0,1-2.16-.1L99-3.55,95.26-7.72A1.67,1.67,0,0,1,95-8.18,1.61,1.61,0,0,1,95.05-9.52ZM90.67,14.87A20.94,20.94,0,0,1,91.82-8.91l3,3.42,4,4.49,2.57,2.91A6.85,6.85,0,0,0,101.25,5L98.41,7.67,94,11.76Zm3.43,1.37h0a1.53,1.53,0,0,1-.28-.45,1.65,1.65,0,0,1,.06-1.34,1.37,1.37,0,0,1,.33-.43l4.07-3.79.9-.84a1.52,1.52,0,0,1,2.17.11h0a1.6,1.6,0,0,1-.11,2.22l-3.17,2.95-1.8,1.68A1.52,1.52,0,0,1,94.1,16.24Zm21.41,6.3a19.67,19.67,0,0,1-9,1.7,19.72,19.72,0,0,1-8.79-2.56,20.15,20.15,0,0,1-2.63-1.81l2.84-2.64,7.74-7.2a6.46,6.46,0,0,0,1.51.26,6.54,6.54,0,0,0,1.53-.11l7,7.91L118.3,21A20.05,20.05,0,0,1,115.51,22.54ZM120,17.06a1.61,1.61,0,0,1-.32.42h0a1.52,1.52,0,0,1-2.17-.1l-1.63-1.84L113,12.29a1.63,1.63,0,0,1,.11-2.23,1.52,1.52,0,0,1,2.17.11l.81.92,3.69,4.17a1.57,1.57,0,0,1,.29.45A1.63,1.63,0,0,1,120,17.06Zm3.22-.61-3-3.42-4-4.49-2.58-2.91a6.72,6.72,0,0,0,.15-3.12l2.85-2.65L121-4.22l3.35-3.12A21,21,0,0,1,123.19,16.45Z" transform="translate(11.78 27.73)"/><path class="cls-5" d="M137.58,4.18l-4.33-1.63c0-.66-.08-1.32-.15-2l4-2.35A1,1,0,0,0,137.57-3a1,1,0,0,0-.9-.81l-4.58-.43c-.2-.63-.41-1.26-.65-1.86l3.28-3.32a1.07,1.07,0,0,0,.14-1.32,1,1,0,0,0-1.08-.55l-4.54.81c-.35-.56-.71-1.11-1.1-1.63l2.34-4.07a1.07,1.07,0,0,0-.2-1.31,1,1,0,0,0-1.18-.24l-4.18,2c-.48-.45-1-.88-1.48-1.28l1.23-4.55a1,1,0,0,0-.52-1.21,1,1,0,0,0-1.2.07l-3.54,3c-.57-.31-1.16-.59-1.75-.85l0-4.72a1,1,0,0,0-.8-1,1,1,0,0,0-1.15.4L113.08-22c-.63-.14-1.26-.26-1.9-.35L110-26.95a1,1,0,0,0-1-.78,1,1,0,0,0-1,.68l-1.6,4.44c-.64,0-1.29.08-1.93.16l-2.27-4.1A1,1,0,0,0,101-27a1,1,0,0,0-.8.93l-.42,4.69c-.62.2-1.23.43-1.83.68L94.7-24.09a1,1,0,0,0-1.28-.14,1.06,1.06,0,0,0-.54,1.11l.78,4.64q-.82.54-1.59,1.14l-4-2.38a1.08,1.08,0,0,0-.47-.15,1.16,1.16,0,0,0-.81.35,1.05,1.05,0,0,0-.24,1.21L88.5-14c-.43.49-.85,1-1.25,1.51l-4.44-1.24a1,1,0,0,0-1.12.44,1.08,1.08,0,0,0,0,1.33l2.94,3.61c-.29.59-.57,1.19-.83,1.8l-4.6,0a1,1,0,0,0-1,.73,1,1,0,0,0,.35,1.27l3.76,2.71c-.14.65-.26,1.3-.35,2l-4.46,1.2a1,1,0,0,0-.76,1,1,1,0,0,0,.66,1.14L81.76,5c0,.66.08,1.32.16,2l-4,2.34a1,1,0,0,0-.49,1.13,1,1,0,0,0,.92.92l4.59.42c.19.64.41,1.26.65,1.87L80.3,17a1,1,0,0,0-.19,1.22,1,1,0,0,0,1.12.64L85.77,18c.35.56.72,1.11,1.1,1.63l-2.33,4.08A1.05,1.05,0,0,0,84.66,25a1.15,1.15,0,0,0,.78.42.87.87,0,0,0,.47-.1l4.19-2c.47.44,1,.87,1.47,1.28l-1.22,4.55a1,1,0,0,0,.43,1.15,1,1,0,0,0,1.29,0l3.53-3c.58.31,1.17.59,1.76.85l0,4.71a1,1,0,0,0,.71,1,1,1,0,0,0,1.24-.36l2.66-3.86c.63.14,1.27.26,1.9.35L105,34.49a1.09,1.09,0,0,0,2.05.1l1.59-4.44c.65,0,1.3-.08,1.93-.16l2.28,4.1a1,1,0,0,0,1.09.5,1,1,0,0,0,.91-1l.42-4.7c.62-.2,1.23-.42,1.83-.67l3.22,3.35a1,1,0,0,0,1.19.2,1.06,1.06,0,0,0,.64-1.16L121.36,26c.54-.35,1.08-.73,1.59-1.13l4,2.38a1,1,0,0,0,1.2-.13,1.05,1.05,0,0,0,.32-1.28l-1.93-4.28c.44-.49.86-1,1.26-1.52l4.43,1.25a1,1,0,0,0,1.19-.54,1.05,1.05,0,0,0-.08-1.23l-2.94-3.62c.3-.59.58-1.19.83-1.8l4.6,0a1,1,0,0,0,1-.83,1,1,0,0,0-.38-1.17l-3.76-2.72c.14-.64.25-1.3.34-1.95l4.46-1.2a1,1,0,0,0,.77-1.07A1,1,0,0,0,137.58,4.18ZM134-10.41a.12.12,0,0,1,.11.08c.1.2.07.22,0,.27l-.47.47-3.44-.15Zm-5.63-6,1.22.05-.5.87-2.41-.12Zm1.13-.53a.12.12,0,0,1,.16,0c.15.16.13.2.09.26l0,.07-.9,0Zm-8.87-2.63,2.58.16-.16.57-3.1-.15Zm1-.84.31,0,1.53.07-.19.69-2.39-.15Zm1.17-1,1,0-.22.83-1.65-.08Zm.76-.64a.14.14,0,0,1,.17,0c.18.12.17.16.15.22l-.07.25-.76,0ZM116-24.64l.86,0v.71l-1.34-.06Zm.5-.74.06-.05h.15c.15.06.16.1.16.16v.44l-.73,0Zm-1.13,1.65,1.49.06v.75l-2-.08Zm-.65.95,2.13.08v.86l-2.17-.09-.53,0ZM108.19-25l1.43.08.2.77-1.91-.08Zm.28-.79.94.05.15.59-1.29-.07Zm.32-.9h0l.37,0h0l.18.71-.81,0Zm-1,2.68,2,.09.2.77-2.51-.11Zm-.35,1,2.65.12.22.86-3.17-.15Zm-5.18-1.44-1.38-.06.07-.79.85,0Zm.57,1-2-.08.07-.79,1.52.07ZM101-25.6l0-.42a.14.14,0,0,1,.11-.14c.14,0,.19-.08.26.05l.3.54Zm-.2,2.24,2.18.09.45.81-1.69-.1-1-.05ZM94.14-20.9l2.51.11.8.83-3.18-.15Zm-.4-2.38a.13.13,0,0,1,.08-.15A.36.36,0,0,1,94-23.5s0,0,.07,0l.48.5-.77,0Zm1.05.56.76.78L94-22l-.13-.76Zm-.8.93,1.78.09.65.67-2.32-.1Zm-6.46,3.47,1.28.06,1.4.84-2.32-.11Zm-.16-.37a.14.14,0,0,1,0-.17c.13-.11.18-.12.19-.12l.06,0,.75.45-1-.05Zm-5,6.12s-.06-.08,0-.26a.13.13,0,0,1,.1-.06h.1l3.36.94-3.23-.15ZM81.09,17.94H81s-.06,0-.15-.18a.17.17,0,0,1,0-.14l1.47.09Zm6.73,5.44-2-.1.43-.75h.17l2.87.15Zm-1.91.91-.64,0a.15.15,0,0,1,0-.09l.39-.67,1.71.09Zm8,3.22-2.19-.12.17-.64,2.78.11ZM91.8,29.32l-.59,0,.17-.63,1.14,0Zm1-.83-1.33-.06.22-.82,2,.11Zm-1.26,1.08c-.05,0-.07,0-.07,0a.81.81,0,0,1-.19-.09h0l.31,0Zm9.18.25-2.47-.14v-.75l3,.12Zm-.62.9-1.86-.1V29.9l2.33.13Zm-1.23,1.79-.64,0v-.79l1.17,0Zm.68-1-1.32-.05v-.62l1.71.09ZM98.3,32.94a.14.14,0,0,1-.11-.14v-.1l.49,0-.13.2C98.47,33,98.43,33,98.3,32.94Zm9.07-1.85L105,31l-.18-.71.75,0,2.05.09Zm-.29.79-1.87-.1-.15-.58,2.23.11Zm-.7,1.95-.66,0-.2-.78,1.13,0Zm.35-1-1.26-.05-.2-.79,1.73.09ZM106,34.37a.12.12,0,0,1-.13-.11l-.06-.23.52,0-.08.23C106.2,34.34,106.18,34.38,106,34.37Zm5.92-3.79,2.34.09-.07.77-1.84-.09Zm2.25,1.08,0,.59-1.31-.07-.33-.6Zm-1.23.75,1.16.06-.07.7-.69,0Zm1.34-2-2.49-.1-.48-.88,3,.13Zm-.54,3.27a.15.15,0,0,1-.12-.07l-.15-.28.54,0v.16C114,33.63,114,33.67,113.71,33.72Zm7.23-4.94-2.22-.08-.85-.88,2.92.12Zm.14.87-1.5-.06-.63-.66,2,.08Zm.18,1.07-.61,0-.84-.88,1.31.06Zm-.16.3a.12.12,0,0,1-.16,0l-.07-.06h.36A.49.49,0,0,1,121.1,31Zm6.16-5.66-1.93-.09-1.56-.94,3.08.12Zm.39.86a0,0,0,0,0,0,0l-.76,0-1.17-.7,1.63.08Zm-.29.27,0,0h.22A.14.14,0,0,1,127.36,26.49Zm5.28-6.39a.14.14,0,0,1,0,.18c-.1.17-.15.16-.16.16h-.05L130.86,20l1.77.1Zm4.62-14.69-1.5.4-3.17-.12a.1.1,0,0,0-.11.1.11.11,0,0,0,.1.12h0l2.47.09L133,6.55l-.48,0h0a.1.1,0,0,0-.11.1.12.12,0,0,0,0,.09.43.43,0,0,0-.24.34c-.11.82-.25,1.64-.44,2.45a.45.45,0,0,0,.18.47l.4.29-.5,0a.12.12,0,0,0-.12.11.13.13,0,0,0,.11.12h0l.84,0,.93.67-2-.1h0a.12.12,0,0,0-.12.11.11.11,0,0,0,.11.11l2.34.12,1.17.85-3.81-.21h0a.12.12,0,0,0-.12.1.11.11,0,0,0,.11.12l4.16.23.49.36a.15.15,0,0,1,0,.17c0,.14-.08.18-.12.19L130.94,13a.11.11,0,0,0-.11.11.11.11,0,0,0,0,.09.46.46,0,0,0-.37.27c-.31.77-.66,1.53-1,2.27a.42.42,0,0,0,.05.49l.37.46-.68,0a.12.12,0,0,0-.12.11.13.13,0,0,0,.11.12l.88,0,.64.8L129,17.67l-.34,0a.12.12,0,1,0,0,.23H129l2,.08.76.94-3.78-.17a.1.1,0,0,0-.11.11.1.1,0,0,0,.1.11h0l4,.18.58.71-2.56-.13-2.16-.61a.43.43,0,0,0-.46.16c-.5.66-1,1.3-1.59,1.91a.44.44,0,0,0-.07.49l.29.66-1,0a.1.1,0,0,0-.11.11.11.11,0,0,0,.11.11h0l1.13,0,.28.62h0l-2.22-.1a.12.12,0,1,0,0,.23h0l2.21.1h.15l.37.83-3.38-.14-.23-.13a.44.44,0,0,0-.49,0c-.64.5-1.31,1-2,1.43a.44.44,0,0,0-.2.45h-.19a.12.12,0,0,0,0,.23h.24l.11.66-1.8-.08a.11.11,0,0,0-.11.11.1.1,0,0,0,.1.11h0l1.85.09.12.72-3.11-.12-.15-.16a.43.43,0,0,0-.48-.1,21.71,21.71,0,0,1-2.3.85.44.44,0,0,0-.29.35h-.27a.11.11,0,0,0-.11.11.1.1,0,0,0,.1.11h.25l-.06.63-3.2-.13a.43.43,0,0,0-.4-.19,24.11,24.11,0,0,1-2.43.21.43.43,0,0,0-.39.29l-.22.61L104.76,30l-.16-.64a.45.45,0,0,0-.36-.33,22,22,0,0,1-2.4-.44h-.08a.41.41,0,0,0-.37.19l0,0-3.15-.13V28h.28a.11.11,0,0,0,.12-.1.12.12,0,0,0-.11-.12l-.29,0a.42.42,0,0,0-.27-.38c-.74-.32-1.48-.67-2.21-1.07a.44.44,0,0,0-.48.05l-.35.3-3-.12.22-.81,2,.09a.1.1,0,0,0,.11-.1.11.11,0,0,0-.1-.12h0l-2-.09.2-.74h.28a.11.11,0,0,0,.11-.11.1.1,0,0,0-.1-.11h-.23v0a.44.44,0,0,0-.16-.47c-.63-.51-1.26-1.05-1.85-1.62a.43.43,0,0,0-.48-.08l-.3.14-3.29-.17h-.06l.33-.56,2.75.12a.12.12,0,0,0,0-.23h0l-2.64-.11.47-.81,1.19.06h0a.1.1,0,0,0,.11-.1.11.11,0,0,0-.1-.12l-1.08-.06.33-.57h0a.11.11,0,0,0,.12-.1.1.1,0,0,0-.07-.1.45.45,0,0,0-.08-.39c-.49-.65-.95-1.34-1.39-2.05a.42.42,0,0,0-.44-.21l-2.57.46h-.4l-1.85-.11.74-.75,3.89.19a.12.12,0,0,0,.12-.11.11.11,0,0,0-.1-.12L82,16.45l.73-.74,2.4.12h0a.12.12,0,0,0,.12-.11.11.11,0,0,0-.11-.11L83,15.5l.53-.54,1.27.06a.1.1,0,0,0,.11-.11.1.1,0,0,0-.1-.11h0l-1.07-.05.68-.68a.46.46,0,0,0,.09-.49c-.3-.76-.58-1.55-.82-2.36a.44.44,0,0,0-.27-.29v0c0-.07,0-.12-.1-.12l-2.77-.13-2.12-.2c-.06,0-.1,0-.15-.22a.14.14,0,0,1,.07-.16l.12-.07.78,0c1.28.07,2.56.13,3.85.18a.11.11,0,0,0,.12-.1A.12.12,0,0,0,83.1,10h0l-4.28-.2L80.28,9l2.56.12A.11.11,0,0,0,83,9a.1.1,0,0,0-.1-.11l-2.22-.11L81.85,8l.81,0A.11.11,0,0,0,82.77,8a.11.11,0,0,0-.1-.12h0l-.47,0,.4-.23a.45.45,0,0,0,.22-.45c-.1-.82-.17-1.65-.2-2.49a.45.45,0,0,0-.17-.34.12.12,0,0,0-.09-.09h-.1l-2.32-.87,2.4.1a.11.11,0,0,0,.12-.1c0-.07,0-.12-.1-.12h0l-3.09-.14-1.52-.57c-.06,0-.09,0-.09-.22l4.73.22a.1.1,0,0,0,.11-.1.1.1,0,0,0-.1-.12l-4.47-.21,2.46-.67,2.07.1a.1.1,0,0,0,.11-.1.11.11,0,0,0-.1-.12l-1.37-.07L82.5.85a.45.45,0,0,0,.33-.37c.1-.82.25-1.65.43-2.46a.47.47,0,0,0-.08-.38s0,0,0,0a.13.13,0,0,0-.11-.12H83l-1.15-.83,1.51.07a.12.12,0,0,0,.12-.11.11.11,0,0,0-.11-.11L81.5-3.59l-.82-.59L83.57-4a.11.11,0,0,0,.12-.1.12.12,0,0,0-.11-.12h0l-3.23-.15-1.26-.91h0l4.85.23a.12.12,0,0,0,.12-.11.11.11,0,0,0-.11-.11h0l-4.88-.24a0,0,0,0,1,0,0,.14.14,0,0,1,.14-.11l4.89,0A.44.44,0,0,0,84.51-6c.31-.77.66-1.53,1-2.26a.48.48,0,0,0,0-.5l0,0h.11a.11.11,0,0,0,.11-.11A.1.1,0,0,0,85.6-9h0l-.31,0-.72-.89,1.62.08a.11.11,0,0,0,.12-.11.1.1,0,0,0-.1-.11l-1.83-.09-.57-.7.5,0,2.46.09a.1.1,0,0,0,.11-.1c0-.07,0-.12-.1-.12h0L84.32-11l-.7,0-.68-.83,4,.2.36.1a.45.45,0,0,0,.46-.16,23.89,23.89,0,0,1,1.58-1.91.46.46,0,0,0,.08-.49l0-.06h.2a.11.11,0,0,0,.12-.1.12.12,0,0,0-.11-.12h-.31l-.42-.92,1.82.08a.11.11,0,0,0,.11-.11.1.1,0,0,0-.1-.11h0l-1.93-.09-.32-.72,3.27.12a.11.11,0,0,0,.12-.1.12.12,0,0,0-.11-.12h0l-3.38-.13L88-17.3l2.63.13,1.26.75a.42.42,0,0,0,.48,0,23.6,23.6,0,0,1,2-1.43.46.46,0,0,0,.2-.46l-.09-.49,1.07,0a.12.12,0,0,0,.12-.11.11.11,0,0,0-.11-.11h0l-1.11,0-.14-.82,3.13.14c.07,0,.12,0,.12-.1a0,0,0,0,0,0,0,.41.41,0,0,0,.44.06,23.41,23.41,0,0,1,2.3-.84.47.47,0,0,0,.31-.39l0-.42,1.74.09h0a.11.11,0,0,0,.11-.11.1.1,0,0,0-.1-.11l-1.73-.09.06-.72,1,.06,1.83.1.27.48a.42.42,0,0,0,.43.22,22.11,22.11,0,0,1,2.43-.2.45.45,0,0,0,.4-.3v0l1,.06,2.27.1v0a.42.42,0,0,0,.36.33c.81.11,1.61.26,2.4.44a.45.45,0,0,0,.46-.17l.31-.47.67,0,2.18.09v.77l-1.62-.08h0a.1.1,0,0,0-.11.11.1.1,0,0,0,.1.11l1.63.08v.38a.45.45,0,0,0,.27.42c.75.32,1.49.67,2.21,1.06a.39.39,0,0,0,.38,0h.09l3.23.15-.19.71-1.47-.06a.11.11,0,0,0-.12.1.11.11,0,0,0,.11.12h0l1.42.06-.18.69a.44.44,0,0,0,.15.47,23.7,23.7,0,0,1,1.86,1.62.45.45,0,0,0,.48.08l1.2-.57,2.72.12-.36.63-3.46-.18h0a.11.11,0,0,0-.12.11.1.1,0,0,0,.1.11l3.35.18-.35.61L126-13.9v.23l2,.09-.43.75-.68,0a.13.13,0,0,0-.12.11.12.12,0,0,0,.11.12h0l.56,0-.18.32a.47.47,0,0,0,0,.5,24.55,24.55,0,0,1,1.39,2.05.43.43,0,0,0,.44.2h.09l4.24.19-.64.65-3.27-.18h0a.11.11,0,0,0-.11.11.12.12,0,0,0,.1.12l3.07.16-.59.59L130-8h0a.12.12,0,0,0-.12.1.11.11,0,0,0,.11.12l1.81.09-.66.68-.7,0h0a.1.1,0,0,0-.11.1c0,.07,0,.12.1.12l.5,0-.29.29a.45.45,0,0,0-.1.49c.31.76.58,1.55.82,2.35a.44.44,0,0,0,.38.32l4.87.45a.12.12,0,0,1,.09,0l-4.87-.25h0a.11.11,0,0,0-.12.1.11.11,0,0,0,.1.12l5,.26a.12.12,0,0,1-.07.12l-.94.55L132-2.2h0a.13.13,0,0,0-.12.11A.13.13,0,0,0,132-2l3.35.18-1.13.66-2-.08a.12.12,0,0,0-.12.11.11.11,0,0,0,.11.11h0l1.67.07-1.46.85h0a.12.12,0,0,0-.11.1.47.47,0,0,0-.12.36c.11.82.17,1.66.2,2.49a.45.45,0,0,0,.28.4l1.11.42-1.11-.05a.11.11,0,0,0-.11.11.12.12,0,0,0,.1.12h0l1.78.07,2.73,1-4.53-.19a.11.11,0,0,0-.12.1.12.12,0,0,0,.11.12h0l4.72.2C137.35,5.37,137.31,5.39,137.26,5.41Z" transform="translate(11.78 27.73)"/><path class="cls-5" d="M90.3,15.12a.65.65,0,0,0,.18.15.34.34,0,0,0,.29.23h0l2.55.1a1.74,1.74,0,0,0,.05.22l-2-.11h0a.34.34,0,0,0,0,.67l2.38.13,0,0a2.13,2.13,0,0,0,.31.29l-1.89-.1h0a.33.33,0,0,0-.35.32.34.34,0,0,0,.31.35l4.69.24-.2.19L93,17.69a.34.34,0,0,0,0,.67h0l2.95.11-.33.31-1.56-.07a.34.34,0,0,0-.35.32.33.33,0,0,0,.31.35h0l.9,0-.14.12a.5.5,0,0,0-.14.35.47.47,0,0,0,.17.33,19.9,19.9,0,0,0,11.66,4.47,20,20,0,0,0,12.05-3.32.4.4,0,0,0,.19-.31.47.47,0,0,0-.1-.36l-.21-.24,1.11.05a.33.33,0,0,0,.35-.32.34.34,0,0,0-.31-.35h0l-1.77-.08-.22-.24,3,.15h0a.32.32,0,0,0,.34-.31.34.34,0,0,0-.31-.36L117,18.81l-.14-.15,4.58.22a.33.33,0,0,0,.34-.32.33.33,0,0,0-.31-.35l-1.94-.09a2.26,2.26,0,0,0,.45-.31.1.1,0,0,0,0,0l2.39.1a.34.34,0,0,0,.34-.33.32.32,0,0,0-.31-.34h0l-2-.08a2.91,2.91,0,0,0,.12-.39l2.43.1a.5.5,0,0,0,.2.08h0a.43.43,0,0,0,.32-.17,21.34,21.34,0,0,0,1.18-24.31.44.44,0,0,0-.31-.2.51.51,0,0,0-.35.11L124-7.6l-2.24-.1a1.23,1.23,0,0,0,0-.27l2.1.1a.32.32,0,0,0,.33-.32.34.34,0,0,0-.33-.35h0l-2.33-.11a1.88,1.88,0,0,0-.16-.23l1.81.1h0a.33.33,0,0,0,.34-.32.33.33,0,0,0-.31-.35l-3.12-.17-.36,0-1.93-.1.15-.14,4.5.22a.32.32,0,0,0,.34-.32.33.33,0,0,0-.31-.35l-3.84-.19.36-.33,2.42.09a.33.33,0,0,0,.34-.32.34.34,0,0,0-.31-.35h0l-1.75-.06.41-.39h.08a.34.34,0,0,0,.34-.33.33.33,0,0,0-.17-.3.5.5,0,0,0-.13-.19,20,20,0,0,0-11.67-4.46,19.94,19.94,0,0,0-12,3.31.46.46,0,0,0-.2.31h0a.33.33,0,0,0-.34.32.33.33,0,0,0,.31.35h0l.47,0,.23.26-1.79-.1h0a.32.32,0,0,0-.34.31.34.34,0,0,0,.31.36l2.45.13.26.3-3.73-.19h0a.35.35,0,0,0-.35.32.33.33,0,0,0,.31.35l4.4.23.17.2-1.86-.07a1.87,1.87,0,0,0-.53,0l-3-.12a.33.33,0,0,0-.34.32.33.33,0,0,0,.31.35h0l1.83.07a1.7,1.7,0,0,0-.23.3l-2.4-.11a.33.33,0,0,0-.34.32.33.33,0,0,0,.31.35h0l2.18.1a2.23,2.23,0,0,0,0,.36l-2-.08-.27-.31a.45.45,0,0,0-.34-.15.47.47,0,0,0-.33.17A21.35,21.35,0,0,0,90.3,15.12ZM91.85-8.22,100.92,2a7.29,7.29,0,0,0-.14,2.83l-10,9.32A20.45,20.45,0,0,1,91.85-8.22Zm24.3,0,1.26.06-.3.28-1.27-.05Zm3.2,25.38a1.11,1.11,0,0,1-1.55-.07L113.3,12a1.14,1.14,0,0,1,.07-1.59,1.08,1.08,0,0,1,.8-.3,1.13,1.13,0,0,1,.76.37l4.5,5.09A1.14,1.14,0,0,1,119.35,17.15Zm-20.85-1L97.25,16l.29-.27,1.27.05Zm-4-1.76,5-4.63a1.08,1.08,0,0,1,.79-.29,1,1,0,0,1,.76.37,1.18,1.18,0,0,1,.28.81,1.1,1.1,0,0,1-.36.78L96,16a1.12,1.12,0,0,1-1.56-.08A1.15,1.15,0,0,1,94.5,14.35ZM102-2l1.91.1a4.48,4.48,0,0,0-.44.32.29.29,0,0,0-.2-.09l-1.7-.09A1.64,1.64,0,0,0,102-2Zm5.76-.08a5.85,5.85,0,0,1,5.48,6.18,5.77,5.77,0,1,1-11.52-.56A5.84,5.84,0,0,1,107.79-2.13Zm5.72.63a2.34,2.34,0,0,0,.49.33l-1.75-.09h0a.31.31,0,0,0-.21.06c-.14-.13-.28-.26-.43-.38ZM111.24,9.63l1.57.09h0a1.43,1.43,0,0,0-.2.23l-2.16-.1a4.3,4.3,0,0,0,.59-.34A.36.36,0,0,0,111.24,9.63Zm-1.3,1.26-.35-.39,2.65.11c0,.13-.06.25-.08.38Zm-5.58-.23-2.18-.09a1.75,1.75,0,0,0,0-.4l2.62.12Zm-1-1.54c.21.16.43.32.66.47l-2.17-.1a1.91,1.91,0,0,0-.22-.3l-.07-.06,1.58.07A.35.35,0,0,0,103.4,9.12ZM96.18-6l-1.25-.06-.18-.2L96-6.21Zm.62.7.32.36L95.87-5l-.32-.36Zm.94,1.06.32.36-1.24,0-.33-.37Zm.94,1.06.27.3L97.68-3l-.25-.28Zm.92,1a2.42,2.42,0,0,0,.42.29L98.56-2l-.26-.3Zm3.27,1.11-.17.17a.25.25,0,0,0-.15,0h0l-3.19-.12-.16-.18Zm-.67.77c-.09.12-.17.25-.25.37l-.1,0h0L100.28,0,100-.38Zm-.6,1a3.52,3.52,0,0,0-.18.4h-.16L100.9.67Zm-1.09,5.62.78,0,.08,0c0,.12.09.24.14.36l-1.33-.07Zm-1,.94,2.24.12h0a.19.19,0,0,0,.13,0,3.13,3.13,0,0,0,.2.3l-2.85-.14Zm-1,.89,3.84.2h0a.34.34,0,0,0,.17,0l.2.21-4.38-.19ZM97.68,9,99,9l-.06.05-.31.28-1.26-.05Zm-1.05,1L97.9,10l-.43.4-1.27-.05Zm-1.12,1,1.27,0-.27.25-1.24-.07Zm-.93.86,1.25.07-.29.28-1.26-.07Zm-1,.92,1.26.06-.24.22-1.27,0Zm-.94.87,1.27.05,0,0a2.09,2.09,0,0,0-.24.28l-1.32-.06Zm-1,.93,1.69.08a1.59,1.59,0,0,0-.06.3l-2-.08Zm7.84.63-1.27,0,.29-.27,1.26.06Zm1-.9-1.27-.06.36-.33,1.27,0Zm1-1-1.27,0,.16-.14,1.26.06Zm.83-.76-1.26-.07.27-.25,1.25.07Zm1-.88-1.4-.08a1.5,1.5,0,0,0,.16-.34l1.61.07Zm8.89,0a2,2,0,0,0,.14.41l-1.4-.06-.37-.42Zm.61,1.1.28.31L111.82,13l-.27-.3Zm.9,1,.13.15-1.26-.07-.13-.15Zm.76.85.24.27-1.26-.06-.25-.28Zm.85,1,.22.24-1.25-.05-.22-.25Zm-.41.89,1.25.05.37.42-1.25-.05Zm5.62-.66,1.61.08.19.22-1.75-.08A2.25,2.25,0,0,0,120.52,15.83Zm-.3-.68-.14-.19,0,0,1.26.07.2.22Zm-.79-.93-.15-.17,1.26.07.15.17Zm-.77-.87-.33-.37,1.24,0,.35.38Zm-1-1.07-.37-.41,1.25.05.37.41Zm-1-1.11-.33-.37,1.25.06.33.36Zm-1-1.07-.19-.22,1.27.08.17.2Zm-4-1.12.23-.2a.29.29,0,0,0,.18.07l3.9.2.18.2Zm.78-.78c.09-.1.17-.21.26-.32a.25.25,0,0,0,.12,0h0l2.23.09.3.33Zm.67-.94.22-.41h.08l.65,0,.38.42Zm.88-5.64h-.27c0-.13-.09-.26-.14-.39l.79,0Zm1.07-1L113.47.55l-.11,0a2.85,2.85,0,0,0-.16-.3l2.2.11Zm1-.88-3.17-.17h0a.26.26,0,0,0-.15,0c0-.07-.11-.13-.16-.19l3.62.18Zm.83-.78-1.5-.07a2.11,2.11,0,0,0,.55-.3l1.29,0Zm1-1L116.69-2l.41-.39,1.27.05Zm1.1-1-1.27,0,.3-.28,1.27.05Zm1-.91L118.78-4l.18-.17,1.25.07Zm.84-.79-1.24-.07.22-.21,1.26.06Zm.92-.85-1.25-.06.38-.36,1.27,0Zm-1.28-1.24-5,4.63A1.11,1.11,0,0,1,114-2.26a1.09,1.09,0,0,1-.28-.81,1.13,1.13,0,0,1,.35-.78l5-4.63a1.11,1.11,0,0,1,.79-.29,1,1,0,0,1,.76.37A1.14,1.14,0,0,1,120.52-6.81Zm-5.37-.49,1.26.06-.41.39-1.27-.06Zm-1.11,1,1.27,0-.33.3L113.73-6Zm-1,.92,1.26.07-.17.16-1.25-.08Zm-.84.78,1.25.08a1.64,1.64,0,0,0-.21.24l-1.31-.06Zm-1,.9,1.68.08a1.59,1.59,0,0,0-.06.3h-.3l-1.65-.07Zm-1,.94,2.32.1.34,0a2,2,0,0,0,.13.41l-2-.09a.32.32,0,0,0-.26.13,6.59,6.59,0,0,0-.75-.38Zm-5.39.28a.32.32,0,0,0-.25-.14l-2-.11a2.07,2.07,0,0,0,.15-.34l2.71.11.16.18A5.36,5.36,0,0,0,104.83-2.44Zm-2-1.26c0-.11,0-.22,0-.33l1.69.08.3.34Zm-.26-1a2.62,2.62,0,0,0-.24-.34l0,0,1.26.06.32.36Zm-.88-1.06-.14-.15,1.26.06.14.15ZM101-6.63l-.25-.28,1.27.07.24.28Zm-.87-1-.28-.32,1.25,0,.29.34Zm.35-1L99.2-8.63,98.88-9l1.26.05Zm1.27,4.13a1.14,1.14,0,0,1-.08,1.59,1.1,1.1,0,0,1-1.55-.07L95.58-8a1.15,1.15,0,0,1,.08-1.59,1.07,1.07,0,0,1,.79-.29,1,1,0,0,1,.76.36ZM95.11-7.22l.28.31L94.13-7l-.29-.31Zm1.1,24.16a2.88,2.88,0,0,0,.35-.26h0l1.25.07-.28.26Zm10.33,6.85a19.11,19.11,0,0,1-10.76-3.94l10-9.33a6.58,6.58,0,0,0,2.76.14l9.07,10.25A19.1,19.1,0,0,1,106.54,23.79ZM116.2,18l-.31-.35,1.24,0,0,0a2.72,2.72,0,0,0,.42.34Zm7-2.2L114.1,5.51a7.3,7.3,0,0,0,.13-2.83l10-9.33A20.43,20.43,0,0,1,123.17,15.75Zm-.28-22.34-1.42,0a1.36,1.36,0,0,0,.17-.39l1.65.07ZM118.34-9l-.24.23-1.27-.06.26-.23Zm-9.86-7.22a19.12,19.12,0,0,1,10.76,4L109.22-3a6.66,6.66,0,0,0-2.76-.13L97.39-13.37A19.09,19.09,0,0,1,108.48-16.26ZM99.21-10l.31.35-1.25,0L98-10ZM94.53-8.14c0,.07.06.14.09.22L93.22-8,93-8.2Z" transform="translate(11.78 27.73)"/><path class="cls-5" d="M91-13.37a.18.18,0,0,0,.1,0l3.61-1.93,9.47-5.06a.18.18,0,0,0,.08-.25.18.18,0,0,0-.24-.08l-9.48,5.06L91-13.72a.19.19,0,0,0-.08.25A.18.18,0,0,0,91-13.37Z" transform="translate(11.78 27.73)"/><path class="cls-5" d="M132.14,5.28l0-.39c0-.19,0-.39,0-.58a.19.19,0,0,0,0-.19h0V3.32a.2.2,0,0,0,0-.17h0c0-.25,0-.51,0-.76a.15.15,0,0,0,0-.16s0,0,0,0c0-.26,0-.52-.05-.79a.16.16,0,0,0,0-.15s0,0,0,0c0-.35-.07-.7-.11-1a.26.26,0,0,0,0-.15s0,0,0,0c0-.29-.08-.58-.13-.87a.2.2,0,0,0,0-.13s0,0,0,0c-.06-.29-.11-.58-.17-.88a.23.23,0,0,0,0-.11,0,0,0,0,1,0,0c-.06-.24-.11-.48-.17-.72a.15.15,0,0,0,0-.09v0c-.07-.26-.14-.53-.22-.79a.28.28,0,0,0,0-.09h0l-.33-1a.09.09,0,0,1,0,0h0q-.15-.45-.33-.9h0l-.28-.69h0a24.93,24.93,0,0,0-2.94-5.2.22.22,0,0,0-.31-.05.25.25,0,0,0,0,.32l0,.05-3,1.55-.31-.39,3.14-1.67a.19.19,0,0,0,.08-.25.18.18,0,0,0-.25-.08l-3.22,1.71L122.9-11l3-1.61c.12.14.24.27.35.41a.21.21,0,0,0,.16.08.17.17,0,0,0,.15-.05.22.22,0,0,0,0-.31l-.7-.84a.21.21,0,0,0-.31,0,.22.22,0,0,0,0,.31l.1.12-3,1.62-.48-.48,3.23-1.69a.19.19,0,0,0,.08-.25.19.19,0,0,0-.25-.08L121.89-12l-.43-.4L124.57-14c.09.09.18.17.26.26a.18.18,0,0,0,.15.07.23.23,0,0,0,.16-.06.22.22,0,0,0,0-.32c-.28-.3-.58-.59-.88-.88a.25.25,0,0,0-.14-.06.19.19,0,0,0-.18,0l-3.4,1.85-.49-.39,3.29-1.75a.21.21,0,0,0,.12-.07.22.22,0,0,0,0-.31l-.37-.32a.22.22,0,0,0-.31,0,.23.23,0,0,0,0,.32l.16.13-3.24,1.73c-.21-.16-.43-.32-.66-.47l3.4-1.83a.18.18,0,0,0,.07-.25.17.17,0,0,0-.24-.08l-3.57,1.93h0c-.21-.14-.43-.27-.65-.4l1.65-.88,1.86-1a.19.19,0,0,0,.08-.25.19.19,0,0,0-.25-.08l-1.86,1-1.86,1-.58-.32,3.6-1.91a.18.18,0,0,0,.08-.25.18.18,0,0,0-.24-.08l-3.84,2-.56-.26,3.73-2a.19.19,0,0,0,.08-.25.19.19,0,0,0-.25-.08l-4,2.08-.57-.23,3.8-2a.19.19,0,0,0,.08-.25.17.17,0,0,0-.24-.08l-4.08,2.16h0c-.29-.11-.59-.22-.89-.31l3.88-2.1a.18.18,0,0,0,.07-.25.17.17,0,0,0-.24-.08L113.31-17h0c-.32-.09-.65-.18-1-.25l4.07-2.18a.19.19,0,0,0,.08-.25.2.2,0,0,0-.09-.09h0a.22.22,0,0,0-.12-.29l-1-.37a.22.22,0,0,0-.28.14A.23.23,0,0,0,115-20c-1.48.79-3,1.59-4.52,2.42l0,0-1.13-.13,4.56-2.42a.19.19,0,0,0,.09-.22.2.2,0,0,0,.18-.15.22.22,0,0,0-.15-.27c-.32-.09-.65-.18-1-.25a.22.22,0,0,0-.26.17.21.21,0,0,0,.17.26l.69.18L108.7-17.8l0,0h-.1c-.33,0-.67,0-1,0l5-2.61a.19.19,0,0,0,.08-.25.17.17,0,0,0-.24-.08l-5.57,2.91-.06,0c-.38,0-.76,0-1.13.08l5.51-2.91a.19.19,0,0,0,.08-.25.2.2,0,0,0-.08-.08c.24,0,.49.07.73.12h0a.21.21,0,0,0,.22-.18.21.21,0,0,0-.17-.26c-.41-.08-.82-.14-1.24-.2a.22.22,0,0,0-.24.2.22.22,0,0,0,.18.25c.13,0,.26,0,.38.06h0l-6.23,3.28a.23.23,0,0,0-.07.07,21.25,21.25,0,0,0-2.11.41l6.62-3.56a.2.2,0,0,0,.07-.26.17.17,0,0,0-.24-.07l-7.86,4.23a.16.16,0,0,0-.08.1A20.79,20.79,0,0,0,95-13.53a.2.2,0,0,0-.13,0l-7,3.63a.19.19,0,0,0-.08.25.18.18,0,0,0,.15.1.15.15,0,0,0,.09,0l5.75-3c-.51.46-1,.94-1.48,1.45a.18.18,0,0,0-.1,0L86.94-8.32a.2.2,0,0,0-.08.26A.2.2,0,0,0,87-8l.1,0,4.57-2.41c-.27.32-.53.65-.78,1a.15.15,0,0,0-.09,0L86.21-6.9a.18.18,0,0,0-.07.25.2.2,0,0,0,.15.1l.09,0,4-2.19c-.25.36-.5.74-.73,1.12l-.07,0-4,2.14a.19.19,0,0,0-.08.25.18.18,0,0,0,.16.1.15.15,0,0,0,.09,0L89.34-7c-.21.37-.42.75-.61,1.14l0,0L85-3.92a.18.18,0,0,0-.07.25.2.2,0,0,0,.15.1l.09,0,3.27-1.76-.3.69h0L84.68-2.8a.19.19,0,0,0-.07.25.18.18,0,0,0,.15.1l.09,0L88-4.14c-.09.24-.18.47-.26.71h0L84.41-1.73a.19.19,0,0,0-.08.25.19.19,0,0,0,.16.1.1.1,0,0,0,.09,0l2.94-1.53-.24.81h0L84.16-.48a.18.18,0,0,0-.08.25.18.18,0,0,0,.15.1l.09,0,2.83-1.49c-.06.24-.12.49-.17.73h0L84,.72a.19.19,0,0,0-.08.25.19.19,0,0,0,.16.1.15.15,0,0,0,.09,0L86.88-.43c0,.24-.09.48-.13.72l-2.9,1.54a.19.19,0,0,0-.08.25.18.18,0,0,0,.15.1.16.16,0,0,0,.1,0L86.68.75c0,.27-.07.54-.1.82L83.77,3.08a.19.19,0,0,0-.08.25.2.2,0,0,0,.15.1l.1,0L86.54,2c0,.18,0,.35,0,.53l-.15.08-1.78.93L83.75,4a.19.19,0,0,0-.08.25.18.18,0,0,0,.15.1.18.18,0,0,0,.1,0l.81-.43L86.48,3c0,.23,0,.47,0,.7l-2.7,1.42a.19.19,0,0,0-.08.25.18.18,0,0,0,.15.1.15.15,0,0,0,.09,0l2.54-1.33c0,.19,0,.39,0,.58L83.83,6.09a.19.19,0,0,0-.08.25.18.18,0,0,0,.15.1.1.1,0,0,0,.09,0L86.5,5.08c0,.23,0,.46,0,.69L83.93,7.16a.19.19,0,0,0-.08.25.19.19,0,0,0,.16.11.16.16,0,0,0,.09,0l2.49-1.32.09.73L84.09,8.29a.19.19,0,0,0-.08.25.18.18,0,0,0,.16.1.15.15,0,0,0,.09,0l2.48-1.33c0,.15.05.3.08.45l-.12.06L84.24,9.09a.19.19,0,0,0-.08.25.16.16,0,0,0,.15.1.1.1,0,0,0,.09,0l2.46-1.29h0c.05.21.1.42.14.63L84.46,10.1a.19.19,0,0,0-.08.25.18.18,0,0,0,.15.1.15.15,0,0,0,.09,0l2.49-1.31.16.61-2.55,1.38a.19.19,0,0,0-.08.25.19.19,0,0,0,.16.1.15.15,0,0,0,.09,0l2.49-1.34.16.52L85,12a.19.19,0,0,0-.08.25.18.18,0,0,0,.15.1l.09,0L87.66,11c.08.24.17.48.26.71-.85.46-1.7.92-2.56,1.37a.18.18,0,0,0-.07.25.16.16,0,0,0,.15.1.1.1,0,0,0,.09,0L88.06,12l.16.39-2.57,1.36a.18.18,0,0,0-.08.25.18.18,0,0,0,.15.1l.09,0,2.56-1.35.26.57L86.05,14.7A.19.19,0,0,0,86,15a.18.18,0,0,0,.15.1.1.1,0,0,0,.09,0l2.59-1.36.24.47-2.6,1.39a.19.19,0,0,0-.08.25.19.19,0,0,0,.16.1.15.15,0,0,0,.09,0l2.61-1.39c.11.18.21.36.31.54l-2.63,1.4a.19.19,0,0,0-.07.25.18.18,0,0,0,.15.1.15.15,0,0,0,.09,0l2.66-1.41.27.43-2.65,1.42a.19.19,0,0,0-.08.25.18.18,0,0,0,.15.1.15.15,0,0,0,.09,0l2.7-1.44.24.35L88,17.71l-.25.13a.19.19,0,0,0-.08.25.18.18,0,0,0,.15.1l.09,0,.25-.13,2.5-1.32c.12.17.25.34.38.5l-2.74,1.45a.18.18,0,0,0-.1.19.15.15,0,0,0-.12-.05c-.15-.19-.29-.39-.43-.59a.14.14,0,0,0,0-.11.18.18,0,0,0-.13-.1c-.11-.15-.2-.3-.3-.45a.19.19,0,0,0-.12-.18c-.13-.2-.25-.4-.37-.6,0,0,0,0,0-.06l-.06-.07a24.22,24.22,0,0,1-1.32-2.53.2.2,0,0,0-.29-.11.22.22,0,0,0-.11.29A25,25,0,0,0,97.56,27l.07,0,1.19.49a.18.18,0,0,0,.1,0h0c.31.12.62.23.94.33a.16.16,0,0,0,.11.05h0c.42.14.84.26,1.27.37a.14.14,0,0,0,.1.05h0c.36.09.73.18,1.11.25a.14.14,0,0,0,.1.05h.06c.47.09.94.17,1.42.23a.14.14,0,0,0,.1.05l.1,0h0c.47.06.94.1,1.41.14a.21.21,0,0,0,.11,0,.15.15,0,0,0,.09,0h0l.28,0c.5,0,1,0,1.49,0a.13.13,0,0,0,.1,0,.1.1,0,0,0,.09,0l0,0c.74,0,1.48-.07,2.2-.15a.17.17,0,0,0,.1,0,.1.1,0,0,0,.09,0l.1-.05a24.5,24.5,0,0,0,3-.57.14.14,0,0,0,.09,0,.15.15,0,0,0,.09,0,1.51,1.51,0,0,1,.22-.11,24.77,24.77,0,0,0,9.33-4.94l.26-.14a.2.2,0,0,0,.1-.18,26.06,26.06,0,0,0,2.35-2.35l.15-.08a.2.2,0,0,0,.09-.2c.44-.52.86-1.05,1.26-1.61l.09-.05a.18.18,0,0,0,.09-.21c.3-.42.58-.85.85-1.29l.07,0a.18.18,0,0,0,.09-.21c.21-.36.42-.72.62-1.09l0,0a.19.19,0,0,0,.08-.23c.24-.45.45-.91.66-1.37l0,0a.17.17,0,0,0,.08-.23c.19-.42.36-.84.52-1.27h0a.19.19,0,0,0,.08-.23l.3-.89a.19.19,0,0,0,.07-.24c.12-.38.23-.77.33-1.16a.18.18,0,0,0,.06-.23c.08-.31.15-.64.22-1a.2.2,0,0,0,0-.22l.15-.85a.21.21,0,0,0,0-.22h0c.05-.27.08-.55.12-.83a.2.2,0,0,0,0-.21h0c0-.37.08-.74.1-1.11a.18.18,0,0,0,0-.2ZM125.59-7.29c-.12-.21-.25-.41-.37-.6h0l2.92-1.52.3.52-2.77,1.49A.16.16,0,0,0,125.59-7.29ZM128-9.74l-2.89,1.51,0,0-.35-.52,2.94-1.54ZM127.14-11l.27.39L124.47-9l-.29-.39ZM124-14.62l.32.32-3.12,1.65-.32-.28Zm-8.67-5.15a.2.2,0,0,0,.09-.11l.65.24-4.24,2.26,0,0-.73-.13Q113.2-18.66,115.3-19.77Zm-6.77,2.44c11.35.55,20.12,10.46,19.56,22.1s-10.26,20.65-21.61,20.1S86.36,14.4,86.92,2.77,97.18-17.88,108.53-17.33Zm-5.17,45.59,3.22-1.67,2.16-1.12a.17.17,0,0,0,.1-.18c.63-.05,1.26-.11,1.87-.21q-3.18,1.67-6.35,3.34ZM102,28l4.76-2.56a.22.22,0,0,0,.09-.12h1.37l-1.83.94-3.65,1.9Zm-1.43-.38c1.3-.68,2.6-1.36,3.91-2l.63-.33.06-.05c.35,0,.71.07,1.07.09l-4.77,2.57Zm-1.1-.36L103.68,25s0,0,0,0l.88.14-.24.12-4.25,2.21Zm-1.3-.5,4-2.1,0,0c.32.09.64.17,1,.24L99,27.09C98.74,27,98.46,26.88,98.19,26.76Zm-1.07-.48,3.74-2h0l.79.25-3.91,2.07Zm-1.07-.54,3.66-1.92h0l.69.27-3.69,2Zm-1-.58.28-.15,3.25-1.7.7.32-3.6,1.9C95.46,25.41,95.24,25.29,95,25.16Zm-.77-.49,3.39-1.82.5.26-3,1.57-.48.25C94.53,24.85,94.4,24.76,94.27,24.67ZM93.34,24l3.32-1.76c.2.13.41.25.62.37l-3.36,1.8C93.72,24.31,93.53,24.17,93.34,24Zm-.8-.6,3.22-1.74.54.35L93,23.78Zm-.83-.7,3.18-1.68.54.4-3.2,1.73ZM90.92,22h0l3.11-1.63.52.42-3.06,1.61,0,0h0l-.07,0Zm-.59-.58.07,0,3-1.61.34.31-3,1.56-.05,0,0,0,0,0C90.54,21.65,90.44,21.54,90.33,21.44Zm-.82-.87h0a.18.18,0,0,0,.12,0L92.58,19c.18.19.37.37.56.55l-2.9,1.55a.19.19,0,0,1-.15.08h0Zm-.66-.78s0,0,0,0a.15.15,0,0,0,.16,0l2.85-1.52.44.48-2.83,1.5a.14.14,0,0,0-.08.09.23.23,0,0,0-.11,0C89.14,20.14,89,20,88.85,19.79ZM88.27,19a.2.2,0,0,0,.21,0l2.8-1.48.35.42-2.77,1.48a.18.18,0,0,0-.1.13.14.14,0,0,0-.11,0l-.39-.5S88.27,19,88.27,19Zm22.94,6.27a.19.19,0,0,0,.08-.26h0a19.66,19.66,0,0,0,2.64-.68L106,28.57l-1-.08Zm5.26,1.56.08,0,3.94-2.09A23.42,23.42,0,0,1,116.47,26.8Zm6.13-3.67-6.21,3.3L114,27.66a24.14,24.14,0,0,1-2.41.57l7.64-4.1,5.43-2.92A25.15,25.15,0,0,1,122.6,23.13Zm2.86-2.76c-2.11,1.14-4.24,2.29-6.38,3.43l-8.57,4.6c-.55.07-1.1.13-1.66.17l6.21-3.32,11.38-6.07C126.12,19.59,125.8,20,125.46,20.37Zm4.11-6.4-4.79,2.59a.18.18,0,0,0-.07.25.2.2,0,0,0,.15.1.16.16,0,0,0,.09,0l4.37-2.36c-.17.36-.35.71-.53,1.06l-5.56,2.93a.19.19,0,0,0-.07.25.2.2,0,0,0,.15.1l.09,0,5-2.67c-.14.25-.29.5-.44.75l-6.94,3.63a.19.19,0,0,0-.08.25.18.18,0,0,0,.15.1.15.15,0,0,0,.09,0l6.39-3.34c-.21.32-.42.63-.64.94-3.94,2.09-8,4.25-12.08,6.44L108,28.6c-.43,0-.87,0-1.3,0l6.39-3.45,1.14-.6a.19.19,0,0,0,.08-.25.17.17,0,0,0-.14-.09A21.61,21.61,0,0,0,128.53,4.79a21.91,21.91,0,0,0-2.82-11.86h0l.1,0,2.78-1.5c.12.22.24.44.35.67l-2.69,1.43a.19.19,0,0,0-.08.25.18.18,0,0,0,.16.1l.09,0,2.69-1.44c.08.16.15.32.23.49l-2.63,1.42a.18.18,0,0,0-.07.25.18.18,0,0,0,.15.1.15.15,0,0,0,.09,0l2.61-1.42c.07.14.13.28.19.42L127.11-5a.19.19,0,0,0-.08.25.16.16,0,0,0,.15.1.1.1,0,0,0,.09,0L129.86-6a3.45,3.45,0,0,1,.14.34L127.41-4.3a.18.18,0,0,0-.08.25.18.18,0,0,0,.15.1l.09,0,2.56-1.34c.07.19.15.38.21.57L128-3.47l-.21.12a.18.18,0,0,0-.08.25.2.2,0,0,0,.15.1l.09,0,.22-.12,2.31-1.24c.08.24.16.48.23.72L128.1-2.27A.19.19,0,0,0,128-2a.2.2,0,0,0,.15.1l.1,0,2.53-1.35c0,.18.1.35.14.53l-2.61,1.42a.19.19,0,0,0-.08.25.18.18,0,0,0,.15.1.18.18,0,0,0,.1,0L131-2.39c0,.15.07.3.11.45l-2.66,1.4a.19.19,0,0,0-.08.25.19.19,0,0,0,.16.1.15.15,0,0,0,.09,0l2.57-1.35c.05.21.08.42.12.63L128.63.49a.18.18,0,0,0-.07.25.18.18,0,0,0,.15.1l.09,0,2.61-1.37c0,.21.07.43.1.64l-2.77,1.5a.19.19,0,0,0-.08.25.18.18,0,0,0,.16.1l.09,0L131.56.48c0,.27.06.54.09.81L128.8,2.8a.19.19,0,0,0-.08.25.18.18,0,0,0,.16.1.15.15,0,0,0,.09,0l2.72-1.44,0,.55-2.91,1.52a.19.19,0,0,0-.08.25.18.18,0,0,0,.16.1.15.15,0,0,0,.09,0l2.76-1.44c0,.17,0,.35,0,.53l-3,1.56a.18.18,0,0,0-.08.25.18.18,0,0,0,.15.1l.1,0,2.8-1.48c0,.19,0,.37,0,.56L130.12,5l-1.39.73a.19.19,0,0,0-.08.25.18.18,0,0,0,.16.1.15.15,0,0,0,.09,0l1.38-.73,1.46-.77c0,.1,0,.2,0,.3s0,.3,0,.45L128.58,7a.18.18,0,0,0-.07.25.18.18,0,0,0,.15.1l.09,0,2.92-1.58-.09.88-3.24,1.72a.19.19,0,0,0-.08.25.18.18,0,0,0,.15.1.15.15,0,0,0,.09,0c1-.53,2-1.06,3-1.6,0,.2-.05.4-.08.6l-3.36,1.76a.18.18,0,0,0-.08.25.2.2,0,0,0,.15.1l.09,0,3.12-1.63c0,.2-.07.4-.11.6l-3.52,1.86a.19.19,0,0,0-.08.25.18.18,0,0,0,.15.1.12.12,0,0,0,.1,0l3.24-1.71c0,.23-.1.47-.16.71l-3.72,2a.19.19,0,0,0-.08.26.2.2,0,0,0,.15.1.19.19,0,0,0,.1,0l3.41-1.82c-.08.3-.17.6-.26.9l-4,2.16a.19.19,0,0,0-.07.26.2.2,0,0,0,.15.1.16.16,0,0,0,.09,0l3.67-2c-.07.21-.14.41-.22.61l-4.26,2.29a.19.19,0,0,0-.08.25.18.18,0,0,0,.15.1.15.15,0,0,0,.09,0L130,13C129.86,13.31,129.71,13.64,129.57,14Z" transform="translate(11.78 27.73)"/><path class="cls-5" d="M89.17-11.23a.15.15,0,0,0,.09,0l.68-.36q4.52-2.45,9-4.83L106-20.26l.82-.44a.19.19,0,0,0,.08-.25.18.18,0,0,0-.24-.08l-.82.44-7.12,3.82c-3,1.59-6,3.2-9,4.83l-.68.36a.18.18,0,0,0-.07.25A.18.18,0,0,0,89.17-11.23Z" transform="translate(11.78 27.73)"/><path class="cls-5" d="M94.8-16.53a.13.13,0,0,0,.09,0l5.2-2.69a.19.19,0,0,0,.08-.25.18.18,0,0,0-.24-.09l-4.19,2.16-1,.54a.19.19,0,0,0-.08.25A.18.18,0,0,0,94.8-16.53Z" transform="translate(11.78 27.73)"/><path class="cls-5" d="M102.48,2.93a.16.16,0,0,0,.12.06.15.15,0,0,0,.13-.05L107-1a.19.19,0,0,0,0-.26.18.18,0,0,0-.26,0l-4.24,3.92A.19.19,0,0,0,102.48,2.93Z" transform="translate(11.78 27.73)"/><path class="cls-5" d="M106.3-1.47a.2.2,0,0,0,.14-.06.18.18,0,0,0,0-.26.17.17,0,0,0-.25,0l0,0a.17.17,0,0,0,0,.25A.17.17,0,0,0,106.3-1.47Z" transform="translate(11.78 27.73)"/><path class="cls-5" d="M103.24,1.21a.18.18,0,0,0,.13.06.17.17,0,0,0,.13-.05c.3-.27.71-.67,1.12-1.07l1.07-1a.19.19,0,0,0,0-.26.18.18,0,0,0-.25,0l-1.07,1L103.26,1A.19.19,0,0,0,103.24,1.21Z" transform="translate(11.78 27.73)"/><path class="cls-5" d="M107.57-1.61a.24.24,0,0,0,.14,0,.2.2,0,0,0,0-.27.19.19,0,0,0-.26,0l0,0a.18.18,0,0,0,0,.25A.14.14,0,0,0,107.57-1.61Z" transform="translate(11.78 27.73)"/><path class="cls-5" d="M105,5.9a.18.18,0,0,0-.26,0l-1.27,1.17a.19.19,0,0,0,0,.26.16.16,0,0,0,.12.06.15.15,0,0,0,.13,0L105,6.16A.19.19,0,0,0,105,5.9Z" transform="translate(11.78 27.73)"/><path class="cls-5" d="M112.17,6l-2.82,2.65a.18.18,0,0,0,0,.26.14.14,0,0,0,.12.06.14.14,0,0,0,.13-.05l2.82-2.65a.19.19,0,0,0,0-.26A.18.18,0,0,0,112.17,6Z" transform="translate(11.78 27.73)"/><path class="cls-5" d="M107.69,7.44a.18.18,0,0,0-.26,0l-1.52,1.41a.19.19,0,0,0,0,.26.18.18,0,0,0,.13.06.17.17,0,0,0,.13-.05l1.52-1.4A.19.19,0,0,0,107.69,7.44Z" transform="translate(11.78 27.73)"/><path class="cls-5" d="M109,7.21a.19.19,0,0,0-.26,0l-2,1.81a.19.19,0,0,0,0,.26.18.18,0,0,0,.13.06.17.17,0,0,0,.13-.05l2-1.81A.19.19,0,0,0,109,7.21Z" transform="translate(11.78 27.73)"/><path class="cls-5" d="M112.65,4.5l-3,2.74L107.75,9a.2.2,0,0,0,0,.27.31.31,0,0,0,.13.06.24.24,0,0,0,.13,0l1.9-1.78,3-2.74a.19.19,0,0,0-.25-.28Z" transform="translate(11.78 27.73)"/><path class="cls-5" d="M106.05,6.93a.18.18,0,0,0-.26,0l-1.32,1.24a.19.19,0,0,0,0,.26.16.16,0,0,0,.12.06.18.18,0,0,0,.14,0L106,7.19A.19.19,0,0,0,106.05,6.93Z" transform="translate(11.78 27.73)"/><path class="cls-5" d="M105.41,6.41a.18.18,0,0,0-.26,0l-1.21,1.13a.2.2,0,0,0,0,.27.16.16,0,0,0,.12.06.19.19,0,0,0,.13-.05l1.22-1.14A.19.19,0,0,0,105.41,6.41Z" transform="translate(11.78 27.73)"/><path class="cls-5" d="M104.66,5.2a.19.19,0,0,0-.26,0L103,6.45a.19.19,0,0,0,0,.26.18.18,0,0,0,.25,0l1.37-1.26A.2.2,0,0,0,104.66,5.2Z" transform="translate(11.78 27.73)"/><path class="cls-5" d="M112.74,3.53l-2.14,2a.19.19,0,0,0,0,.26.18.18,0,0,0,.13.06.17.17,0,0,0,.13,0l2.14-2a.18.18,0,0,0,0-.26A.17.17,0,0,0,112.74,3.53Z" transform="translate(11.78 27.73)"/><path class="cls-5" d="M106.68,7.23a.19.19,0,0,0-.26,0L105.07,8.5a.19.19,0,0,0,0,.27.23.23,0,0,0,.12.06.19.19,0,0,0,.13-.05l1.35-1.28A.2.2,0,0,0,106.68,7.23Z" transform="translate(11.78 27.73)"/><path class="cls-5" d="M110.59,2.66a.18.18,0,0,0,.13.06.16.16,0,0,0,.13,0l1.47-1.39a.19.19,0,0,0,0-.26.18.18,0,0,0-.26,0L110.6,2.4A.2.2,0,0,0,110.59,2.66Z" transform="translate(11.78 27.73)"/><path class="cls-5" d="M110.12-.91a.2.2,0,0,0,.14-.06.18.18,0,0,0,0-.26.18.18,0,0,0-.26,0h0A.19.19,0,0,0,110-1,.17.17,0,0,0,110.12-.91Z" transform="translate(11.78 27.73)"/><path class="cls-5" d="M106.86.61a3.22,3.22,0,0,0-2.4,2.3.19.19,0,0,0-.14,0l-2,1.84a.2.2,0,0,0,0,.26.18.18,0,0,0,.13.06.18.18,0,0,0,.13,0l1.76-1.65c0,.06,0,.13,0,.2a3.12,3.12,0,0,0,0,.61.17.17,0,0,0-.19,0l-1.61,1.52a.19.19,0,0,0,0,.26.16.16,0,0,0,.12.06.19.19,0,0,0,.14,0l1.61-1.52A3.16,3.16,0,0,0,107.35,7a3.19,3.19,0,0,0,3.31-3.08,3.22,3.22,0,0,0-.81-2.32.21.21,0,0,0,.13-.05L111.43.2a.19.19,0,0,0,0-.26.18.18,0,0,0-.26,0l-1.46,1.35a.2.2,0,0,0,0,.15l-.37-.31h0l1.43-1.35a.18.18,0,0,0,0-.26.17.17,0,0,0-.25,0L109.08.84a.16.16,0,0,0,0,.09A3.14,3.14,0,0,0,108.5.7l.61-.59.68-.66a.18.18,0,0,0,0-.26.17.17,0,0,0-.25,0l-.69.66-.72.69s0,0,0,.06a2.14,2.14,0,0,0-.45,0,.81.81,0,0,0-.22,0L108.9-.82a.18.18,0,0,0,0-.26.18.18,0,0,0-.26,0L106.88.55S106.87.59,106.86.61Zm-.62,1.72a1.82,1.82,0,0,1,1.36-.5,1.84,1.84,0,0,1,1.31.63,1.93,1.93,0,0,1,.49,1.4,1.9,1.9,0,0,1-3.3,1.22,2,2,0,0,1,.14-2.75Z" transform="translate(11.78 27.73)"/><path class="cls-5" d="M111,4.14a.19.19,0,0,0,0,.26.18.18,0,0,0,.13.06.17.17,0,0,0,.13,0l1.69-1.6a.19.19,0,0,0,0-.26.18.18,0,0,0-.26,0Z" transform="translate(11.78 27.73)"/><path class="cls-5" d="M108.43-1.52a.16.16,0,0,0,.13,0l0,0a.18.18,0,0,0,0-.25.18.18,0,0,0-.26,0,.18.18,0,0,0,0,.26A.14.14,0,0,0,108.43-1.52Z" transform="translate(11.78 27.73)"/><path class="cls-5" d="M109.3-1.29a.24.24,0,0,0,.14-.05.2.2,0,0,0,0-.27.19.19,0,0,0-.26,0h0a.19.19,0,0,0,0,.26A.14.14,0,0,0,109.3-1.29Z" transform="translate(11.78 27.73)"/><path class="cls-5" d="M107.55-1.17l-5.06,4.71-.16.15a.19.19,0,0,0,0,.26.18.18,0,0,0,.26,0l5.21-4.85a.19.19,0,0,0,0-.26A.18.18,0,0,0,107.55-1.17Z" transform="translate(11.78 27.73)"/><path class="cls-5" d="M110.83,3.32a.18.18,0,0,0,.13.06.21.21,0,0,0,.13,0l1.55-1.46a.19.19,0,0,0,0-.26.18.18,0,0,0-.26,0l-1.54,1.46A.19.19,0,0,0,110.83,3.32Z" transform="translate(11.78 27.73)"/><path class="cls-5" d="M110.18,2a.16.16,0,0,0,.13.06.18.18,0,0,0,.13,0L111.85.73a.18.18,0,0,0,0-.26.19.19,0,0,0-.26,0l-1.42,1.3A.19.19,0,0,0,110.18,2Z" transform="translate(11.78 27.73)"/><path class="cls-5" d="M83,5.32a.24.24,0,0,0-.21.24c0,.67.12,1.34.22,2a.22.22,0,0,0,.2.19h0a.22.22,0,0,0,.18-.25c-.1-.64-.17-1.3-.21-1.95A.23.23,0,0,0,83,5.32Z" transform="translate(11.78 27.73)"/><path class="cls-5" d="M108.66-21.19l.91.06h0a.23.23,0,0,0,.23-.21.22.22,0,0,0-.2-.24l-.92-.06a.22.22,0,0,0-.23.21A.22.22,0,0,0,108.66-21.19Z" transform="translate(11.78 27.73)"/><path class="cls-5" d="M84.35,11.53a.22.22,0,0,0-.27-.14.22.22,0,0,0-.14.28c.06.2.12.39.19.58a.21.21,0,0,0,.19.14.14.14,0,0,0,.09,0,.22.22,0,0,0,.13-.28C84.47,11.91,84.41,11.72,84.35,11.53Z" transform="translate(11.78 27.73)"/><path class="cls-5" d="M82.92,3.87a.22.22,0,0,0,.22-.22c0-.37,0-.75,0-1.13a.22.22,0,1,0-.44,0c0,.38,0,.77,0,1.15a.22.22,0,0,0,.21.22Z" transform="translate(11.78 27.73)"/><path class="cls-5" d="M120.32,67.87q0,22.42-26.06,31.65a74.08,74.08,0,0,1,15.5,6.37q18.19,10.33,18.2,31,0,20.2-16,32.19T69.32,181q-9.66,0-24.49-1.09T23,178.85a94.56,94.56,0,0,0-11.46.66L1,180.83A10,10,0,0,0-.55,181H-2.12q-9.66-.21-9.66-7.9,0-7,7-7a46,46,0,0,1,6.07.66A32.13,32.13,0,0,0,6,167.2q11.46,0,11.45-16.26V62.6Q17.42,46.11,6,46.12a30.2,30.2,0,0,0-4.72.44,41.45,41.45,0,0,1-6.07.66q-7,0-7-7,0-7.68,10.33-7.69H1.48l11,1.54a97.33,97.33,0,0,0,12.81.66q8.54,0,24.26-1.32,10.56-.87,22.69-.88,22.7,0,35.38,9.34T120.32,67.87Zm-86,9.45q0,11.66,2.14,14.4T48.2,94.46H60.78q39.77,0,39.77-25.27,0-23.07-32.8-23.07-22.92,0-28.2,2.85T34.27,63.7Zm0,44.61v24.39q0,14.3,4.95,17.59t27,3.29q42,0,42-30.76,0-28.35-40.44-28.35H49.1q-12.14,0-13.93,5.27A29.13,29.13,0,0,0,34.27,121.93Z" transform="translate(11.78 27.73)"/></g></g></g></svg>