<?xml version="1.0" encoding="UTF-8" standalone="no"?>
<svg
   xmlns:dc="http://purl.org/dc/elements/1.1/"
   xmlns:cc="http://creativecommons.org/ns#"
   xmlns:rdf="http://www.w3.org/1999/02/22-rdf-syntax-ns#"
   xmlns:svg="http://www.w3.org/2000/svg"
   xmlns="http://www.w3.org/2000/svg"
   xmlns:sodipodi="http://sodipodi.sourceforge.net/DTD/sodipodi-0.dtd"
   xmlns:inkscape="http://www.inkscape.org/namespaces/inkscape"
   viewBox="0 0 264.42 208.78"
   version="1.1"
   id="svg103"
   sodipodi:docname="Blue Steel Favicon_dark.svg">
  <metadata
     id="metadata107">
    <rdf:RDF>
      <cc:Work
         rdf:about="">
        <dc:format>image/svg+xml</dc:format>
        <dc:type
           rdf:resource="http://purl.org/dc/dcmitype/StillImage" />
      </cc:Work>
    </rdf:RDF>
  </metadata>
  <sodipodi:namedview
     pagecolor="#ffffff"
     bordercolor="#666666"
     inkscape:document-rotation="0"
     borderopacity="1"
     objecttolerance="10"
     gridtolerance="10"
     guidetolerance="10"
     inkscape:pageopacity="0"
     inkscape:pageshadow="2"
     inkscape:window-width="640"
     inkscape:window-height="480"
     id="namedview105"
     showgrid="false" />
  <defs
     id="defs15">
    <style
       id="style10">.cls-1{fill:none;}.cls-2{fill:#00579b;}.cls-3{clip-path:url(#clip-path);}.cls-4,.cls-5{fill:#fff;}.cls-4{fill-rule:evenodd;}</style>
    <clipPath
       id="clip-path"
       transform="translate(11.78 27.73)">
      <rect
         class="cls-1"
         y="1.4"
         width="177.69"
         height="177.69"
         rx="12"
         id="rect12" />
    </clipPath>
  </defs>
  <g
     id="Layer_2"
     data-name="Layer 2">
    <g
       id="Layer_1-2"
       data-name="Layer 1">
      <g
         id="g119">
        <rect
           id="rect17"
           rx="12"
           height="177.69"
           width="177.69"
           y="37.73"
           x="12.22"
           class="cls-2" />
      </g>
      <g
         class="cls-3"
         clip-path="url(#clip-path)"
         id="g99"
         transform="translate(26.375645,-7.529)">
        <g
           id="g122">
          <path
             inkscape:connector-curvature="0"
             id="path97"
             transform="translate(11.78,27.73)"
             d="m 120.32,67.87 q 0,22.42 -26.06,31.65 a 74.08,74.08 0 0 1 15.5,6.37 q 18.19,10.33 18.2,31 0,20.2 -16,32.19 -16,11.99 -42.64,11.92 -9.66,0 -24.49,-1.09 Q 30,178.82 23,178.85 a 94.56,94.56 0 0 0 -11.46,0.66 L 1,180.83 A 10,10 0 0 0 -0.55,181 h -1.57 q -9.66,-0.21 -9.66,-7.9 0,-7 7,-7 a 46,46 0 0 1 6.07,0.66 32.13,32.13 0 0 0 4.71,0.44 q 11.46,0 11.45,-16.26 V 62.6 Q 17.42,46.11 6,46.12 a 30.2,30.2 0 0 0 -4.72,0.44 41.45,41.45 0 0 1 -6.07,0.66 q -7,0 -7,-7 0,-7.68 10.33,-7.69 h 2.94 l 11,1.54 a 97.33,97.33 0 0 0 12.81,0.66 q 8.54,0 24.26,-1.32 10.56,-0.87 22.69,-0.88 22.7,0 35.38,9.34 12.68,9.34 12.7,26 z m -86,9.45 q 0,11.66 2.14,14.4 2.14,2.74 11.74,2.74 h 12.58 q 39.77,0 39.77,-25.27 0,-23.07 -32.8,-23.07 -22.92,0 -28.2,2.85 -5.28,2.85 -5.28,14.73 z m 0,44.61 v 24.39 q 0,14.3 4.95,17.59 4.95,3.29 27,3.29 42,0 42,-30.76 0,-28.35 -40.44,-28.35 H 49.1 q -12.14,0 -13.93,5.27 a 29.13,29.13 0 0 0 -0.9,8.57 z"
             class="cls-5" />
        </g>
        <path
           class="cls-5"
           d="m 190.63,17.27 5.05,0.92 16,3.07 v 0 a 0.30149627,0.30149627 0 0 0 0.06,-0.6 l -16,-3.07 -5,-0.92 a 0.3,0.3 0 0 0 -0.35,0.25 0.3,0.3 0 0 0 0.24,0.35 z"
           transform="translate(11.78,27.73)"
           id="path23"
           inkscape:connector-curvature="0" />
        <path
           class="cls-5"
           d="m 198.37,17.72 6.16,1.17 h 0.06 a 0.3,0.3 0 0 0 0.3,-0.25 0.31,0.31 0 0 0 -0.24,-0.36 l -6.17,-1.17 a 0.31,0.31 0 0 0 -0.11,0.6 z"
           transform="translate(11.78,27.73)"
           id="path25"
           inkscape:connector-curvature="0" />
        <path
           class="cls-5"
           d="m 182.35,67.06 a 7.22,7.22 0 0 0 -0.06,0.92 7.05,7.05 0 0 0 5.73,6.8 7.17,7.17 0 0 0 1.31,0.12 v 0 a 7,7 0 0 0 5.6,-2.8 A 1.47,1.47 0 0 0 195,72 v 0 a 7.06,7.06 0 0 0 1.18,-2.78 c 0,-0.15 0.05,-0.3 0.07,-0.45 a 7,7 0 0 0 -1.79,-5.58 L 192.1,56 a 0.55,0.55 0 0 0 -0.7,-0.34 0.55,0.55 0 0 0 -0.34,0.7 l 1.84,5.44 a 6.1,6.1 0 0 0 -1.09,-0.53 L 190,55.93 a 0.55,0.55 0 0 0 -0.7,-0.34 0.55,0.55 0 0 0 -0.34,0.7 l 1.59,4.65 a 6.77,6.77 0 0 0 -1,-0.09 l -1.64,-4.67 a 0.56,0.56 0 0 0 -0.71,-0.33 0.55,0.55 0 0 0 -0.33,0.7 c 0.54,1.52 1,3 1.53,4.36 a 7.08,7.08 0 0 0 -1.71,0.46 l -1.5,-4.25 a 0.56,0.56 0 0 0 -0.71,-0.34 0.55,0.55 0 0 0 -0.33,0.71 l 1.55,4.38 a 7,7 0 0 0 -1.06,0.8 l -1.51,-4.26 a 0.55,0.55 0 0 0 -1,0.36 l 1.7,4.82 a 6.72,6.72 0 0 0 -0.89,1.54 l -1.66,-4.87 a 0.55,0.55 0 0 0 -1,0.35 z m 6.81,-4.74 h 0.09 0.14 a 6.12,6.12 0 0 1 1,0.09 5.92,5.92 0 0 1 1,0.28 h 0.09 v 0 a 5.57,5.57 0 0 1 3.45,5.06 5.35,5.35 0 0 1 -0.09,1.12 5.59,5.59 0 0 1 -2.62,3.74 h -0.07 l -0.23,0.1 a 5.47,5.47 0 0 1 -2.54,0.64 5.24,5.24 0 0 1 -1,-0.1 5.57,5.57 0 0 1 -4.62,-5.25 6.06,6.06 0 0 1 0.1,-1.12 5.54,5.54 0 0 1 5.3,-4.56 z"
           transform="translate(11.78,27.73)"
           id="path27"
           inkscape:connector-curvature="0" />
        <path
           class="cls-5"
           d="m 91,-13.37 a 0.18,0.18 0 0 0 0.1,0 l 3.61,-1.93 9.47,-5.06 a 0.18,0.18 0 0 0 0.08,-0.25 0.18,0.18 0 0 0 -0.24,-0.08 l -9.48,5.06 -3.54,1.91 a 0.19,0.19 0 0 0 -0.08,0.25 0.18,0.18 0 0 0 0.08,0.1 z"
           transform="translate(11.78,27.73)"
           id="path35"
           inkscape:connector-curvature="0" />
        <path
           class="cls-5"
           d="m 94.8,-16.53 a 0.13,0.13 0 0 0 0.09,0 l 5.2,-2.69 a 0.19,0.19 0 0 0 0.08,-0.25 0.18,0.18 0 0 0 -0.24,-0.09 l -4.19,2.16 -1,0.54 a 0.19,0.19 0 0 0 -0.08,0.25 0.18,0.18 0 0 0 0.14,0.08 z"
           transform="translate(11.78,27.73)"
           id="path41"
           inkscape:connector-curvature="0" />
        <path
           class="cls-5"
           d="m 102.48,2.93 a 0.16,0.16 0 0 0 0.12,0.06 0.15,0.15 0 0 0 0.13,-0.05 L 107,-1 a 0.19,0.19 0 0 0 0,-0.26 0.18,0.18 0 0 0 -0.26,0 l -4.24,3.92 a 0.19,0.19 0 0 0 -0.02,0.27 z"
           transform="translate(11.78,27.73)"
           id="path43"
           inkscape:connector-curvature="0" />
        <path
           class="cls-5"
           d="m 106.3,-1.47 a 0.2,0.2 0 0 0 0.14,-0.06 0.18,0.18 0 0 0 0,-0.26 0.17,0.17 0 0 0 -0.25,0 v 0 a 0.17,0.17 0 0 0 0,0.25 0.17,0.17 0 0 0 0.11,0.07 z"
           transform="translate(11.78,27.73)"
           id="path45"
           inkscape:connector-curvature="0" />
        <path
           class="cls-5"
           d="m 103.24,1.21 a 0.18,0.18 0 0 0 0.13,0.06 0.17,0.17 0 0 0 0.13,-0.05 c 0.3,-0.27 0.71,-0.67 1.12,-1.07 l 1.07,-1 a 0.19,0.19 0 0 0 0,-0.26 0.18,0.18 0 0 0 -0.25,0 l -1.07,1 -1.11,1.11 a 0.19,0.19 0 0 0 -0.02,0.21 z"
           transform="translate(11.78,27.73)"
           id="path47"
           inkscape:connector-curvature="0" />
        <path
           class="cls-5"
           d="m 107.57,-1.61 a 0.24,0.24 0 0 0 0.14,0 0.2,0.2 0 0 0 0,-0.27 0.19,0.19 0 0 0 -0.26,0 v 0 a 0.18,0.18 0 0 0 0,0.25 0.14,0.14 0 0 0 0.12,0.02 z"
           transform="translate(11.78,27.73)"
           id="path49"
           inkscape:connector-curvature="0" />
        <path
           class="cls-5"
           d="m 105,5.9 a 0.18,0.18 0 0 0 -0.26,0 l -1.27,1.17 a 0.19,0.19 0 0 0 0,0.26 0.16,0.16 0 0 0 0.12,0.06 0.15,0.15 0 0 0 0.13,0 L 105,6.16 a 0.19,0.19 0 0 0 0,-0.26 z"
           transform="translate(11.78,27.73)"
           id="path51"
           inkscape:connector-curvature="0" />
        <path
           class="cls-5"
           d="m 112.17,6 -2.82,2.65 a 0.18,0.18 0 0 0 0,0.26 0.14,0.14 0 0 0 0.12,0.06 0.14,0.14 0 0 0 0.13,-0.05 l 2.82,-2.65 a 0.19,0.19 0 0 0 0,-0.26 A 0.18,0.18 0 0 0 112.17,6 Z"
           transform="translate(11.78,27.73)"
           id="path53"
           inkscape:connector-curvature="0" />
        <path
           class="cls-5"
           d="m 107.69,7.44 a 0.18,0.18 0 0 0 -0.26,0 l -1.52,1.41 a 0.19,0.19 0 0 0 0,0.26 0.18,0.18 0 0 0 0.13,0.06 0.17,0.17 0 0 0 0.13,-0.05 l 1.52,-1.4 a 0.19,0.19 0 0 0 0,-0.28 z"
           transform="translate(11.78,27.73)"
           id="path55"
           inkscape:connector-curvature="0" />
        <path
           class="cls-5"
           d="m 109,7.21 a 0.19,0.19 0 0 0 -0.26,0 l -2,1.81 a 0.19,0.19 0 0 0 0,0.26 0.18,0.18 0 0 0 0.13,0.06 0.17,0.17 0 0 0 0.13,-0.05 l 2,-1.81 a 0.19,0.19 0 0 0 0,-0.27 z"
           transform="translate(11.78,27.73)"
           id="path57"
           inkscape:connector-curvature="0" />
        <path
           class="cls-5"
           d="m 112.65,4.5 -3,2.74 -1.9,1.76 a 0.2,0.2 0 0 0 0,0.27 0.31,0.31 0 0 0 0.13,0.06 0.24,0.24 0 0 0 0.13,0 l 1.9,-1.78 3,-2.74 a 0.19,0.19 0 0 0 -0.25,-0.28 z"
           transform="translate(11.78,27.73)"
           id="path59"
           inkscape:connector-curvature="0" />
        <path
           class="cls-5"
           d="m 106.05,6.93 a 0.18,0.18 0 0 0 -0.26,0 l -1.32,1.24 a 0.19,0.19 0 0 0 0,0.26 0.16,0.16 0 0 0 0.12,0.06 0.18,0.18 0 0 0 0.14,0 L 106,7.19 a 0.19,0.19 0 0 0 0.05,-0.26 z"
           transform="translate(11.78,27.73)"
           id="path61"
           inkscape:connector-curvature="0" />
        <path
           class="cls-5"
           d="m 105.41,6.41 a 0.18,0.18 0 0 0 -0.26,0 l -1.21,1.13 a 0.2,0.2 0 0 0 0,0.27 0.16,0.16 0 0 0 0.12,0.06 0.19,0.19 0 0 0 0.13,-0.05 l 1.22,-1.14 a 0.19,0.19 0 0 0 0,-0.27 z"
           transform="translate(11.78,27.73)"
           id="path63"
           inkscape:connector-curvature="0" />
        <path
           class="cls-5"
           d="m 104.66,5.2 a 0.19,0.19 0 0 0 -0.26,0 L 103,6.45 a 0.19,0.19 0 0 0 0,0.26 0.18,0.18 0 0 0 0.25,0 l 1.37,-1.26 a 0.2,0.2 0 0 0 0.04,-0.25 z"
           transform="translate(11.78,27.73)"
           id="path65"
           inkscape:connector-curvature="0" />
        <path
           class="cls-5"
           d="m 112.74,3.53 -2.14,2 a 0.19,0.19 0 0 0 0,0.26 0.18,0.18 0 0 0 0.13,0.06 0.17,0.17 0 0 0 0.13,0 l 2.14,-2 a 0.18,0.18 0 0 0 0,-0.26 0.17,0.17 0 0 0 -0.26,-0.06 z"
           transform="translate(11.78,27.73)"
           id="path67"
           inkscape:connector-curvature="0" />
        <path
           class="cls-5"
           d="m 106.68,7.23 a 0.19,0.19 0 0 0 -0.26,0 l -1.35,1.27 a 0.19,0.19 0 0 0 0,0.27 0.23,0.23 0 0 0 0.12,0.06 0.19,0.19 0 0 0 0.13,-0.05 l 1.35,-1.28 a 0.2,0.2 0 0 0 0.01,-0.27 z"
           transform="translate(11.78,27.73)"
           id="path69"
           inkscape:connector-curvature="0" />
        <path
           class="cls-5"
           d="m 110.59,2.66 a 0.18,0.18 0 0 0 0.13,0.06 0.16,0.16 0 0 0 0.13,0 l 1.47,-1.39 a 0.19,0.19 0 0 0 0,-0.26 0.18,0.18 0 0 0 -0.26,0 L 110.6,2.4 a 0.2,0.2 0 0 0 -0.01,0.26 z"
           transform="translate(11.78,27.73)"
           id="path71"
           inkscape:connector-curvature="0" />
        <path
           class="cls-5"
           d="m 110.12,-0.91 a 0.2,0.2 0 0 0 0.14,-0.06 0.18,0.18 0 0 0 0,-0.26 0.18,0.18 0 0 0 -0.26,0 v 0 a 0.19,0.19 0 0 0 0,0.23 0.17,0.17 0 0 0 0.12,0.09 z"
           transform="translate(11.78,27.73)"
           id="path73"
           inkscape:connector-curvature="0" />
        <path
           class="cls-5"
           d="m 111,4.14 a 0.19,0.19 0 0 0 0,0.26 0.18,0.18 0 0 0 0.13,0.06 0.17,0.17 0 0 0 0.13,0 l 1.69,-1.6 a 0.19,0.19 0 0 0 0,-0.26 0.18,0.18 0 0 0 -0.26,0 z"
           transform="translate(11.78,27.73)"
           id="path77"
           inkscape:connector-curvature="0" />
        <path
           class="cls-5"
           d="m 108.43,-1.52 a 0.16,0.16 0 0 0 0.13,0 v 0 a 0.18,0.18 0 0 0 0,-0.25 0.18,0.18 0 0 0 -0.26,0 0.18,0.18 0 0 0 0,0.26 0.14,0.14 0 0 0 0.13,-0.01 z"
           transform="translate(11.78,27.73)"
           id="path79"
           inkscape:connector-curvature="0" />
        <path
           class="cls-5"
           d="m 109.3,-1.29 a 0.24,0.24 0 0 0 0.14,-0.05 0.2,0.2 0 0 0 0,-0.27 0.19,0.19 0 0 0 -0.26,0 v 0 a 0.19,0.19 0 0 0 0,0.26 0.14,0.14 0 0 0 0.12,0.06 z"
           transform="translate(11.78,27.73)"
           id="path81"
           inkscape:connector-curvature="0" />
        <path
           class="cls-5"
           d="m 107.55,-1.17 -5.06,4.71 -0.16,0.15 a 0.19,0.19 0 0 0 0,0.26 0.18,0.18 0 0 0 0.26,0 l 5.21,-4.85 a 0.19,0.19 0 0 0 0,-0.26 0.18,0.18 0 0 0 -0.25,-0.01 z"
           transform="translate(11.78,27.73)"
           id="path83"
           inkscape:connector-curvature="0" />
        <path
           class="cls-5"
           d="m 110.83,3.32 a 0.18,0.18 0 0 0 0.13,0.06 0.21,0.21 0 0 0 0.13,0 l 1.55,-1.46 a 0.19,0.19 0 0 0 0,-0.26 0.18,0.18 0 0 0 -0.26,0 l -1.54,1.46 a 0.19,0.19 0 0 0 -0.01,0.2 z"
           transform="translate(11.78,27.73)"
           id="path85"
           inkscape:connector-curvature="0" />
        <path
           class="cls-5"
           d="m 110.18,2 a 0.16,0.16 0 0 0 0.13,0.06 0.18,0.18 0 0 0 0.13,0 l 1.41,-1.33 a 0.18,0.18 0 0 0 0,-0.26 0.19,0.19 0 0 0 -0.26,0 l -1.42,1.3 A 0.19,0.19 0 0 0 110.18,2 Z"
           transform="translate(11.78,27.73)"
           id="path87"
           inkscape:connector-curvature="0" />
        <path
           class="cls-5"
           d="m 83,5.32 a 0.24,0.24 0 0 0 -0.21,0.24 c 0,0.67 0.12,1.34 0.22,2 a 0.22,0.22 0 0 0 0.2,0.19 v 0 A 0.22,0.22 0 0 0 83.39,7.5 C 83.29,6.86 83.22,6.2 83.18,5.55 A 0.23,0.23 0 0 0 83,5.32 Z"
           transform="translate(11.78,27.73)"
           id="path89"
           inkscape:connector-curvature="0" />
        <path
           class="cls-5"
           d="m 108.66,-21.19 0.91,0.06 v 0 a 0.23,0.23 0 0 0 0.23,-0.21 0.22,0.22 0 0 0 -0.2,-0.24 l -0.92,-0.06 a 0.22,0.22 0 0 0 -0.23,0.21 0.22,0.22 0 0 0 0.21,0.24 z"
           transform="translate(11.78,27.73)"
           id="path91"
           inkscape:connector-curvature="0" />
        <path
           class="cls-5"
           d="m 82.92,3.87 a 0.22,0.22 0 0 0 0.22,-0.22 c 0,-0.37 0,-0.75 0,-1.13 a 0.22,0.22 0 1 0 -0.44,0 c 0,0.38 0,0.77 0,1.15 a 0.22,0.22 0 0 0 0.21,0.22 z"
           transform="translate(11.78,27.73)"
           id="path95"
           inkscape:connector-curvature="0" />
      </g>
    </g>
  </g>
</svg>
